G75*
%MOIN*%
%OFA0B0*%
%FSLAX24Y24*%
%IPPOS*%
%LPD*%
%AMOC8*
5,1,8,0,0,1.08239X$1,22.5*
%
%ADD10C,0.0160*%
%ADD11C,0.0040*%
%ADD12C,0.0070*%
%ADD13C,0.0050*%
%ADD14C,0.0060*%
%ADD15C,0.0080*%
%ADD16C,0.0010*%
%ADD17C,0.0000*%
%ADD18C,0.0100*%
%ADD19R,0.0400X0.4000*%
%ADD20R,0.4200X0.0400*%
%ADD21C,0.0020*%
D10*
X002634Y000180D02*
X074634Y000180D01*
X074634Y075180D01*
X002634Y075180D01*
X002634Y000180D01*
X004384Y002680D02*
X004386Y002734D01*
X004392Y002788D01*
X004402Y002841D01*
X004415Y002894D01*
X004432Y002945D01*
X004453Y002995D01*
X004478Y003043D01*
X004506Y003090D01*
X004537Y003134D01*
X004571Y003176D01*
X004608Y003215D01*
X004648Y003252D01*
X004691Y003285D01*
X004736Y003316D01*
X004783Y003343D01*
X004831Y003366D01*
X004882Y003386D01*
X004933Y003403D01*
X004986Y003415D01*
X005039Y003424D01*
X005093Y003429D01*
X005148Y003430D01*
X005202Y003427D01*
X005255Y003420D01*
X005308Y003409D01*
X005361Y003395D01*
X005412Y003377D01*
X005461Y003355D01*
X005509Y003330D01*
X005555Y003301D01*
X005599Y003269D01*
X005640Y003234D01*
X005678Y003196D01*
X005714Y003155D01*
X005747Y003112D01*
X005777Y003067D01*
X005803Y003019D01*
X005826Y002970D01*
X005845Y002919D01*
X005860Y002868D01*
X005872Y002815D01*
X005880Y002761D01*
X005884Y002707D01*
X005884Y002653D01*
X005880Y002599D01*
X005872Y002545D01*
X005860Y002492D01*
X005845Y002441D01*
X005826Y002390D01*
X005803Y002341D01*
X005777Y002293D01*
X005747Y002248D01*
X005714Y002205D01*
X005678Y002164D01*
X005640Y002126D01*
X005599Y002091D01*
X005555Y002059D01*
X005509Y002030D01*
X005461Y002005D01*
X005412Y001983D01*
X005361Y001965D01*
X005308Y001951D01*
X005255Y001940D01*
X005202Y001933D01*
X005148Y001930D01*
X005093Y001931D01*
X005039Y001936D01*
X004986Y001945D01*
X004933Y001957D01*
X004882Y001974D01*
X004831Y001994D01*
X004783Y002017D01*
X004736Y002044D01*
X004691Y002075D01*
X004648Y002108D01*
X004608Y002145D01*
X004571Y002184D01*
X004537Y002226D01*
X004506Y002270D01*
X004478Y002317D01*
X004453Y002365D01*
X004432Y002415D01*
X004415Y002466D01*
X004402Y002519D01*
X004392Y002572D01*
X004386Y002626D01*
X004384Y002680D01*
X024634Y000180D02*
X024634Y025180D01*
X028134Y025180D01*
X028134Y029680D01*
X049134Y029680D01*
X049134Y025180D01*
X052634Y025180D01*
X052634Y000180D01*
X071384Y002680D02*
X071386Y002734D01*
X071392Y002788D01*
X071402Y002841D01*
X071415Y002894D01*
X071432Y002945D01*
X071453Y002995D01*
X071478Y003043D01*
X071506Y003090D01*
X071537Y003134D01*
X071571Y003176D01*
X071608Y003215D01*
X071648Y003252D01*
X071691Y003285D01*
X071736Y003316D01*
X071783Y003343D01*
X071831Y003366D01*
X071882Y003386D01*
X071933Y003403D01*
X071986Y003415D01*
X072039Y003424D01*
X072093Y003429D01*
X072148Y003430D01*
X072202Y003427D01*
X072255Y003420D01*
X072308Y003409D01*
X072361Y003395D01*
X072412Y003377D01*
X072461Y003355D01*
X072509Y003330D01*
X072555Y003301D01*
X072599Y003269D01*
X072640Y003234D01*
X072678Y003196D01*
X072714Y003155D01*
X072747Y003112D01*
X072777Y003067D01*
X072803Y003019D01*
X072826Y002970D01*
X072845Y002919D01*
X072860Y002868D01*
X072872Y002815D01*
X072880Y002761D01*
X072884Y002707D01*
X072884Y002653D01*
X072880Y002599D01*
X072872Y002545D01*
X072860Y002492D01*
X072845Y002441D01*
X072826Y002390D01*
X072803Y002341D01*
X072777Y002293D01*
X072747Y002248D01*
X072714Y002205D01*
X072678Y002164D01*
X072640Y002126D01*
X072599Y002091D01*
X072555Y002059D01*
X072509Y002030D01*
X072461Y002005D01*
X072412Y001983D01*
X072361Y001965D01*
X072308Y001951D01*
X072255Y001940D01*
X072202Y001933D01*
X072148Y001930D01*
X072093Y001931D01*
X072039Y001936D01*
X071986Y001945D01*
X071933Y001957D01*
X071882Y001974D01*
X071831Y001994D01*
X071783Y002017D01*
X071736Y002044D01*
X071691Y002075D01*
X071648Y002108D01*
X071608Y002145D01*
X071571Y002184D01*
X071537Y002226D01*
X071506Y002270D01*
X071478Y002317D01*
X071453Y002365D01*
X071432Y002415D01*
X071415Y002466D01*
X071402Y002519D01*
X071392Y002572D01*
X071386Y002626D01*
X071384Y002680D01*
X038634Y052680D02*
X038634Y062680D01*
X028134Y062680D02*
X028137Y062938D01*
X028147Y063195D01*
X028162Y063452D01*
X028185Y063709D01*
X028213Y063965D01*
X028248Y064221D01*
X028289Y064475D01*
X028336Y064728D01*
X028389Y064981D01*
X028449Y065231D01*
X028514Y065480D01*
X028586Y065728D01*
X028664Y065974D01*
X028748Y066217D01*
X028838Y066459D01*
X028933Y066698D01*
X029035Y066935D01*
X029142Y067169D01*
X029255Y067401D01*
X029374Y067630D01*
X029498Y067855D01*
X029628Y068078D01*
X029763Y068297D01*
X029904Y068513D01*
X030049Y068726D01*
X030200Y068935D01*
X030356Y069140D01*
X030517Y069341D01*
X030683Y069538D01*
X030854Y069731D01*
X031029Y069920D01*
X031209Y070105D01*
X031394Y070285D01*
X031583Y070460D01*
X031776Y070631D01*
X031973Y070797D01*
X032174Y070958D01*
X032379Y071114D01*
X032588Y071265D01*
X032801Y071410D01*
X033017Y071551D01*
X033236Y071686D01*
X033459Y071816D01*
X033684Y071940D01*
X033913Y072059D01*
X034145Y072172D01*
X034379Y072279D01*
X034616Y072381D01*
X034855Y072476D01*
X035097Y072566D01*
X035340Y072650D01*
X035586Y072728D01*
X035834Y072800D01*
X036083Y072865D01*
X036333Y072925D01*
X036586Y072978D01*
X036839Y073025D01*
X037093Y073066D01*
X037349Y073101D01*
X037605Y073129D01*
X037862Y073152D01*
X038119Y073167D01*
X038376Y073177D01*
X038634Y073180D01*
X038892Y073177D01*
X039149Y073167D01*
X039406Y073152D01*
X039663Y073129D01*
X039919Y073101D01*
X040175Y073066D01*
X040429Y073025D01*
X040682Y072978D01*
X040935Y072925D01*
X041185Y072865D01*
X041434Y072800D01*
X041682Y072728D01*
X041928Y072650D01*
X042171Y072566D01*
X042413Y072476D01*
X042652Y072381D01*
X042889Y072279D01*
X043123Y072172D01*
X043355Y072059D01*
X043584Y071940D01*
X043809Y071816D01*
X044032Y071686D01*
X044251Y071551D01*
X044467Y071410D01*
X044680Y071265D01*
X044889Y071114D01*
X045094Y070958D01*
X045295Y070797D01*
X045492Y070631D01*
X045685Y070460D01*
X045874Y070285D01*
X046059Y070105D01*
X046239Y069920D01*
X046414Y069731D01*
X046585Y069538D01*
X046751Y069341D01*
X046912Y069140D01*
X047068Y068935D01*
X047219Y068726D01*
X047364Y068513D01*
X047505Y068297D01*
X047640Y068078D01*
X047770Y067855D01*
X047894Y067630D01*
X048013Y067401D01*
X048126Y067169D01*
X048233Y066935D01*
X048335Y066698D01*
X048430Y066459D01*
X048520Y066217D01*
X048604Y065974D01*
X048682Y065728D01*
X048754Y065480D01*
X048819Y065231D01*
X048879Y064981D01*
X048932Y064728D01*
X048979Y064475D01*
X049020Y064221D01*
X049055Y063965D01*
X049083Y063709D01*
X049106Y063452D01*
X049121Y063195D01*
X049131Y062938D01*
X049134Y062680D01*
X049131Y062422D01*
X049121Y062165D01*
X049106Y061908D01*
X049083Y061651D01*
X049055Y061395D01*
X049020Y061139D01*
X048979Y060885D01*
X048932Y060632D01*
X048879Y060379D01*
X048819Y060129D01*
X048754Y059880D01*
X048682Y059632D01*
X048604Y059386D01*
X048520Y059143D01*
X048430Y058901D01*
X048335Y058662D01*
X048233Y058425D01*
X048126Y058191D01*
X048013Y057959D01*
X047894Y057730D01*
X047770Y057505D01*
X047640Y057282D01*
X047505Y057063D01*
X047364Y056847D01*
X047219Y056634D01*
X047068Y056425D01*
X046912Y056220D01*
X046751Y056019D01*
X046585Y055822D01*
X046414Y055629D01*
X046239Y055440D01*
X046059Y055255D01*
X045874Y055075D01*
X045685Y054900D01*
X045492Y054729D01*
X045295Y054563D01*
X045094Y054402D01*
X044889Y054246D01*
X044680Y054095D01*
X044467Y053950D01*
X044251Y053809D01*
X044032Y053674D01*
X043809Y053544D01*
X043584Y053420D01*
X043355Y053301D01*
X043123Y053188D01*
X042889Y053081D01*
X042652Y052979D01*
X042413Y052884D01*
X042171Y052794D01*
X041928Y052710D01*
X041682Y052632D01*
X041434Y052560D01*
X041185Y052495D01*
X040935Y052435D01*
X040682Y052382D01*
X040429Y052335D01*
X040175Y052294D01*
X039919Y052259D01*
X039663Y052231D01*
X039406Y052208D01*
X039149Y052193D01*
X038892Y052183D01*
X038634Y052180D01*
X038376Y052183D01*
X038119Y052193D01*
X037862Y052208D01*
X037605Y052231D01*
X037349Y052259D01*
X037093Y052294D01*
X036839Y052335D01*
X036586Y052382D01*
X036333Y052435D01*
X036083Y052495D01*
X035834Y052560D01*
X035586Y052632D01*
X035340Y052710D01*
X035097Y052794D01*
X034855Y052884D01*
X034616Y052979D01*
X034379Y053081D01*
X034145Y053188D01*
X033913Y053301D01*
X033684Y053420D01*
X033459Y053544D01*
X033236Y053674D01*
X033017Y053809D01*
X032801Y053950D01*
X032588Y054095D01*
X032379Y054246D01*
X032174Y054402D01*
X031973Y054563D01*
X031776Y054729D01*
X031583Y054900D01*
X031394Y055075D01*
X031209Y055255D01*
X031029Y055440D01*
X030854Y055629D01*
X030683Y055822D01*
X030517Y056019D01*
X030356Y056220D01*
X030200Y056425D01*
X030049Y056634D01*
X029904Y056847D01*
X029763Y057063D01*
X029628Y057282D01*
X029498Y057505D01*
X029374Y057730D01*
X029255Y057959D01*
X029142Y058191D01*
X029035Y058425D01*
X028933Y058662D01*
X028838Y058901D01*
X028748Y059143D01*
X028664Y059386D01*
X028586Y059632D01*
X028514Y059880D01*
X028449Y060129D01*
X028389Y060379D01*
X028336Y060632D01*
X028289Y060885D01*
X028248Y061139D01*
X028213Y061395D01*
X028185Y061651D01*
X028162Y061908D01*
X028147Y062165D01*
X028137Y062422D01*
X028134Y062680D01*
X028134Y075180D01*
X049134Y075180D01*
X049134Y062680D01*
X038634Y062680D01*
X046134Y055180D01*
X038634Y062680D02*
X031134Y070180D01*
X038634Y073180D02*
X038634Y062680D01*
X031134Y055180D01*
X028134Y062680D02*
X038634Y062680D01*
X046134Y070180D01*
X053884Y072680D02*
X053886Y072734D01*
X053892Y072788D01*
X053902Y072841D01*
X053915Y072894D01*
X053932Y072945D01*
X053953Y072995D01*
X053978Y073043D01*
X054006Y073090D01*
X054037Y073134D01*
X054071Y073176D01*
X054108Y073215D01*
X054148Y073252D01*
X054191Y073285D01*
X054236Y073316D01*
X054283Y073343D01*
X054331Y073366D01*
X054382Y073386D01*
X054433Y073403D01*
X054486Y073415D01*
X054539Y073424D01*
X054593Y073429D01*
X054648Y073430D01*
X054702Y073427D01*
X054755Y073420D01*
X054808Y073409D01*
X054861Y073395D01*
X054912Y073377D01*
X054961Y073355D01*
X055009Y073330D01*
X055055Y073301D01*
X055099Y073269D01*
X055140Y073234D01*
X055178Y073196D01*
X055214Y073155D01*
X055247Y073112D01*
X055277Y073067D01*
X055303Y073019D01*
X055326Y072970D01*
X055345Y072919D01*
X055360Y072868D01*
X055372Y072815D01*
X055380Y072761D01*
X055384Y072707D01*
X055384Y072653D01*
X055380Y072599D01*
X055372Y072545D01*
X055360Y072492D01*
X055345Y072441D01*
X055326Y072390D01*
X055303Y072341D01*
X055277Y072293D01*
X055247Y072248D01*
X055214Y072205D01*
X055178Y072164D01*
X055140Y072126D01*
X055099Y072091D01*
X055055Y072059D01*
X055009Y072030D01*
X054961Y072005D01*
X054912Y071983D01*
X054861Y071965D01*
X054808Y071951D01*
X054755Y071940D01*
X054702Y071933D01*
X054648Y071930D01*
X054593Y071931D01*
X054539Y071936D01*
X054486Y071945D01*
X054433Y071957D01*
X054382Y071974D01*
X054331Y071994D01*
X054283Y072017D01*
X054236Y072044D01*
X054191Y072075D01*
X054148Y072108D01*
X054108Y072145D01*
X054071Y072184D01*
X054037Y072226D01*
X054006Y072270D01*
X053978Y072317D01*
X053953Y072365D01*
X053932Y072415D01*
X053915Y072466D01*
X053902Y072519D01*
X053892Y072572D01*
X053886Y072626D01*
X053884Y072680D01*
X021884Y072680D02*
X021886Y072734D01*
X021892Y072788D01*
X021902Y072841D01*
X021915Y072894D01*
X021932Y072945D01*
X021953Y072995D01*
X021978Y073043D01*
X022006Y073090D01*
X022037Y073134D01*
X022071Y073176D01*
X022108Y073215D01*
X022148Y073252D01*
X022191Y073285D01*
X022236Y073316D01*
X022283Y073343D01*
X022331Y073366D01*
X022382Y073386D01*
X022433Y073403D01*
X022486Y073415D01*
X022539Y073424D01*
X022593Y073429D01*
X022648Y073430D01*
X022702Y073427D01*
X022755Y073420D01*
X022808Y073409D01*
X022861Y073395D01*
X022912Y073377D01*
X022961Y073355D01*
X023009Y073330D01*
X023055Y073301D01*
X023099Y073269D01*
X023140Y073234D01*
X023178Y073196D01*
X023214Y073155D01*
X023247Y073112D01*
X023277Y073067D01*
X023303Y073019D01*
X023326Y072970D01*
X023345Y072919D01*
X023360Y072868D01*
X023372Y072815D01*
X023380Y072761D01*
X023384Y072707D01*
X023384Y072653D01*
X023380Y072599D01*
X023372Y072545D01*
X023360Y072492D01*
X023345Y072441D01*
X023326Y072390D01*
X023303Y072341D01*
X023277Y072293D01*
X023247Y072248D01*
X023214Y072205D01*
X023178Y072164D01*
X023140Y072126D01*
X023099Y072091D01*
X023055Y072059D01*
X023009Y072030D01*
X022961Y072005D01*
X022912Y071983D01*
X022861Y071965D01*
X022808Y071951D01*
X022755Y071940D01*
X022702Y071933D01*
X022648Y071930D01*
X022593Y071931D01*
X022539Y071936D01*
X022486Y071945D01*
X022433Y071957D01*
X022382Y071974D01*
X022331Y071994D01*
X022283Y072017D01*
X022236Y072044D01*
X022191Y072075D01*
X022148Y072108D01*
X022108Y072145D01*
X022071Y072184D01*
X022037Y072226D01*
X022006Y072270D01*
X021978Y072317D01*
X021953Y072365D01*
X021932Y072415D01*
X021915Y072466D01*
X021902Y072519D01*
X021892Y072572D01*
X021886Y072626D01*
X021884Y072680D01*
D11*
X016091Y070609D02*
X015784Y070609D01*
X015937Y070609D02*
X015937Y071070D01*
X015784Y070916D01*
X015630Y070533D02*
X015323Y070533D01*
X015170Y070609D02*
X014863Y070609D01*
X014710Y070609D02*
X014556Y070763D01*
X014633Y070763D02*
X014403Y070763D01*
X014403Y070609D02*
X014403Y071070D01*
X014633Y071070D01*
X014710Y070993D01*
X014710Y070840D01*
X014633Y070763D01*
X014863Y070916D02*
X015016Y071070D01*
X015016Y070609D01*
X013704Y070679D02*
X013627Y070756D01*
X013704Y070679D02*
X013704Y070526D01*
X013627Y070449D01*
X013321Y070449D01*
X013244Y070526D01*
X013244Y070679D01*
X013321Y070756D01*
X013397Y070909D02*
X013244Y071063D01*
X013704Y071063D01*
X013704Y071216D02*
X013704Y070909D01*
X013781Y071370D02*
X013781Y071677D01*
X013704Y071830D02*
X013704Y072137D01*
X013704Y071984D02*
X013244Y071984D01*
X013397Y071830D01*
X011751Y073791D02*
X011444Y073791D01*
X011598Y073791D02*
X011598Y074251D01*
X011444Y074097D01*
X011291Y073714D02*
X010984Y073714D01*
X010830Y073791D02*
X010523Y073791D01*
X010830Y074097D01*
X010830Y074174D01*
X010754Y074251D01*
X010600Y074251D01*
X010523Y074174D01*
X010370Y074174D02*
X010293Y074251D01*
X010140Y074251D01*
X010063Y074174D01*
X010063Y073867D01*
X010140Y073791D01*
X010293Y073791D01*
X010370Y073867D01*
X008586Y073341D02*
X008586Y072881D01*
X008433Y072881D02*
X008740Y072881D01*
X008433Y073188D02*
X008586Y073341D01*
X008279Y073341D02*
X007973Y072881D01*
X008279Y072881D02*
X007973Y073341D01*
X007937Y072570D02*
X007937Y072109D01*
X007784Y072109D02*
X008091Y072109D01*
X007784Y072416D02*
X007937Y072570D01*
X007630Y072033D02*
X007323Y072033D01*
X007170Y072186D02*
X007093Y072109D01*
X006940Y072109D01*
X006863Y072186D01*
X006710Y072186D02*
X006633Y072109D01*
X006479Y072109D01*
X006403Y072186D01*
X006403Y072493D01*
X006479Y072570D01*
X006633Y072570D01*
X006710Y072493D01*
X006863Y072493D02*
X006940Y072570D01*
X007093Y072570D01*
X007170Y072493D01*
X007170Y072416D01*
X007093Y072340D01*
X007170Y072263D01*
X007170Y072186D01*
X007093Y072340D02*
X007016Y072340D01*
X004956Y072846D02*
X004956Y073153D01*
X004956Y073306D02*
X004956Y073613D01*
X004956Y073766D02*
X004956Y073997D01*
X004879Y074073D01*
X004572Y074073D01*
X004496Y073997D01*
X004496Y073766D01*
X004956Y073766D01*
X004726Y073460D02*
X004726Y073306D01*
X004496Y073306D02*
X004956Y073306D01*
X004496Y073306D02*
X004496Y073613D01*
X003956Y073613D02*
X003956Y073306D01*
X003496Y073306D01*
X003496Y073613D01*
X003496Y073766D02*
X003496Y073997D01*
X003572Y074073D01*
X003879Y074073D01*
X003956Y073997D01*
X003956Y073766D01*
X003496Y073766D01*
X003726Y073460D02*
X003726Y073306D01*
X003956Y073153D02*
X003956Y072846D01*
X003496Y072846D01*
X002956Y072846D02*
X002956Y073153D01*
X002956Y073306D02*
X002956Y073613D01*
X002956Y073766D02*
X002956Y073997D01*
X002879Y074073D01*
X002572Y074073D01*
X002496Y073997D01*
X002496Y073766D01*
X002956Y073766D01*
X002726Y073460D02*
X002726Y073306D01*
X002496Y073306D02*
X002956Y073306D01*
X002496Y073306D02*
X002496Y073613D01*
X002649Y074227D02*
X002496Y074380D01*
X002956Y074380D01*
X002956Y074227D02*
X002956Y074534D01*
X003496Y074457D02*
X003496Y074304D01*
X003572Y074227D01*
X003496Y074457D02*
X003572Y074534D01*
X003649Y074534D01*
X003956Y074227D01*
X003956Y074534D01*
X004496Y074457D02*
X004572Y074534D01*
X004649Y074534D01*
X004726Y074457D01*
X004803Y074534D01*
X004879Y074534D01*
X004956Y074457D01*
X004956Y074304D01*
X004879Y074227D01*
X004726Y074380D02*
X004726Y074457D01*
X004496Y074457D02*
X004496Y074304D01*
X004572Y074227D01*
X004496Y072846D02*
X004956Y072846D01*
X002956Y072846D02*
X002496Y072846D01*
X006640Y065751D02*
X006563Y065674D01*
X006563Y065367D01*
X006640Y065291D01*
X006793Y065291D01*
X006870Y065367D01*
X007023Y065521D02*
X007330Y065521D01*
X007254Y065751D02*
X007023Y065521D01*
X006870Y065674D02*
X006793Y065751D01*
X006640Y065751D01*
X007254Y065751D02*
X007254Y065291D01*
X007484Y065214D02*
X007791Y065214D01*
X007944Y065291D02*
X008251Y065291D01*
X008098Y065291D02*
X008098Y065751D01*
X007944Y065597D01*
X008479Y064070D02*
X008403Y063993D01*
X008403Y063686D01*
X008479Y063609D01*
X008633Y063609D01*
X008710Y063686D01*
X008863Y063686D02*
X008940Y063609D01*
X009093Y063609D01*
X009170Y063686D01*
X009170Y063840D01*
X009093Y063916D01*
X009016Y063916D01*
X008863Y063840D01*
X008863Y064070D01*
X009170Y064070D01*
X008710Y063993D02*
X008633Y064070D01*
X008479Y064070D01*
X009323Y063533D02*
X009630Y063533D01*
X009784Y063609D02*
X010091Y063609D01*
X009937Y063609D02*
X009937Y064070D01*
X009784Y063916D01*
X011563Y065367D02*
X011563Y065674D01*
X011640Y065751D01*
X011793Y065751D01*
X011870Y065674D01*
X011847Y065700D02*
X011847Y066160D01*
X011693Y066007D01*
X011540Y066084D02*
X011540Y065930D01*
X011463Y065853D01*
X011233Y065853D01*
X011233Y065700D02*
X011233Y066160D01*
X011463Y066160D01*
X011540Y066084D01*
X011693Y065700D02*
X012000Y065700D01*
X012023Y065751D02*
X012330Y065751D01*
X012330Y065674D01*
X012023Y065367D01*
X012023Y065291D01*
X011870Y065367D02*
X011793Y065291D01*
X011640Y065291D01*
X011563Y065367D01*
X012484Y065214D02*
X012791Y065214D01*
X012944Y065291D02*
X013251Y065291D01*
X013098Y065291D02*
X013098Y065751D01*
X012944Y065597D01*
X014063Y065444D02*
X014293Y065444D01*
X014370Y065521D01*
X014370Y065674D01*
X014293Y065751D01*
X014063Y065751D01*
X014063Y065291D01*
X014217Y065444D02*
X014370Y065291D01*
X014523Y065521D02*
X014754Y065751D01*
X014754Y065291D01*
X014830Y065521D02*
X014523Y065521D01*
X014984Y065214D02*
X015291Y065214D01*
X015444Y065291D02*
X015751Y065291D01*
X015598Y065291D02*
X015598Y065751D01*
X015444Y065597D01*
X015979Y064070D02*
X015903Y063993D01*
X015903Y063686D01*
X015979Y063609D01*
X016133Y063609D01*
X016210Y063686D01*
X016363Y063686D02*
X016440Y063609D01*
X016593Y063609D01*
X016670Y063686D01*
X016670Y063763D01*
X016593Y063840D01*
X016363Y063840D01*
X016363Y063686D01*
X016363Y063840D02*
X016516Y063993D01*
X016670Y064070D01*
X016210Y063993D02*
X016133Y064070D01*
X015979Y064070D01*
X016823Y063533D02*
X017130Y063533D01*
X017284Y063609D02*
X017591Y063609D01*
X017437Y063609D02*
X017437Y064070D01*
X017284Y063916D01*
X017523Y059258D02*
X017523Y058951D01*
X017523Y059104D02*
X017063Y059104D01*
X017216Y058951D01*
X017600Y058798D02*
X017600Y058491D01*
X017523Y058337D02*
X017523Y058030D01*
X017216Y058337D01*
X017139Y058337D01*
X017063Y058260D01*
X017063Y058107D01*
X017139Y058030D01*
X017063Y057723D02*
X017523Y057723D01*
X017523Y057570D02*
X017523Y057877D01*
X017216Y057570D02*
X017063Y057723D01*
X016781Y057677D02*
X016781Y057370D01*
X016704Y057216D02*
X016704Y056909D01*
X016704Y056756D02*
X016704Y056449D01*
X016704Y056602D02*
X016244Y056602D01*
X016397Y056449D01*
X016321Y056296D02*
X016244Y056219D01*
X016244Y056065D01*
X016321Y055989D01*
X016627Y055989D01*
X016704Y056065D01*
X016704Y056219D01*
X016627Y056296D01*
X016397Y056909D02*
X016244Y057063D01*
X016704Y057063D01*
X017063Y057186D02*
X017139Y057109D01*
X017446Y057109D01*
X017523Y057186D01*
X017523Y057340D01*
X017446Y057416D01*
X017139Y057416D02*
X017063Y057340D01*
X017063Y057186D01*
X016704Y057830D02*
X016704Y058137D01*
X016704Y057984D02*
X016244Y057984D01*
X016397Y057830D01*
X013100Y058491D02*
X013100Y058798D01*
X013023Y058951D02*
X013023Y059258D01*
X013023Y059104D02*
X012563Y059104D01*
X012716Y058951D01*
X012639Y058337D02*
X012946Y058030D01*
X013023Y058107D01*
X013023Y058260D01*
X012946Y058337D01*
X012639Y058337D01*
X012563Y058260D01*
X012563Y058107D01*
X012639Y058030D01*
X012946Y058030D01*
X013023Y057877D02*
X013023Y057570D01*
X013023Y057723D02*
X012563Y057723D01*
X012716Y057570D01*
X012639Y057416D02*
X012563Y057340D01*
X012563Y057186D01*
X012639Y057109D01*
X012946Y057109D01*
X013023Y057186D01*
X013023Y057340D01*
X012946Y057416D01*
X012000Y059200D02*
X011693Y059200D01*
X011540Y059200D02*
X011540Y059660D01*
X011693Y059507D02*
X011847Y059660D01*
X011847Y059200D01*
X011540Y059430D02*
X011233Y059430D01*
X011233Y059200D02*
X011233Y059660D01*
X009251Y058791D02*
X008944Y058791D01*
X009098Y058791D02*
X009098Y059251D01*
X008944Y059097D01*
X008791Y058714D02*
X008484Y058714D01*
X008330Y058867D02*
X008254Y058791D01*
X008100Y058791D01*
X008023Y058867D01*
X008023Y058944D01*
X008100Y059021D01*
X008254Y059021D01*
X008330Y058944D01*
X008330Y058867D01*
X008254Y059021D02*
X008330Y059097D01*
X008330Y059174D01*
X008254Y059251D01*
X008100Y059251D01*
X008023Y059174D01*
X008023Y059097D01*
X008100Y059021D01*
X007870Y059174D02*
X007793Y059251D01*
X007640Y059251D01*
X007563Y059174D01*
X007563Y058867D01*
X007640Y058791D01*
X007793Y058791D01*
X007870Y058867D01*
X008979Y057570D02*
X008903Y057493D01*
X008903Y057186D01*
X008979Y057109D01*
X009133Y057109D01*
X009210Y057186D01*
X009363Y057186D02*
X009440Y057109D01*
X009593Y057109D01*
X009670Y057186D01*
X009670Y057493D01*
X009593Y057570D01*
X009440Y057570D01*
X009363Y057493D01*
X009363Y057416D01*
X009440Y057340D01*
X009670Y057340D01*
X009823Y057033D02*
X010130Y057033D01*
X010284Y057109D02*
X010591Y057109D01*
X010437Y057109D02*
X010437Y057570D01*
X010284Y057416D01*
X009210Y057493D02*
X009133Y057570D01*
X008979Y057570D01*
X010140Y055751D02*
X010063Y055674D01*
X010063Y055367D01*
X010140Y055291D01*
X010293Y055291D01*
X010370Y055367D01*
X010523Y055291D02*
X010830Y055597D01*
X010830Y055674D01*
X010754Y055751D01*
X010600Y055751D01*
X010523Y055674D01*
X010370Y055674D02*
X010293Y055751D01*
X010140Y055751D01*
X010523Y055291D02*
X010830Y055291D01*
X010984Y055214D02*
X011291Y055214D01*
X011444Y055367D02*
X011521Y055291D01*
X011674Y055291D01*
X011751Y055367D01*
X011751Y055444D01*
X011674Y055521D01*
X011598Y055521D01*
X011674Y055521D02*
X011751Y055597D01*
X011751Y055674D01*
X011674Y055751D01*
X011521Y055751D01*
X011444Y055674D01*
X013321Y053637D02*
X013397Y053637D01*
X013474Y053560D01*
X013551Y053637D01*
X013627Y053637D01*
X013704Y053560D01*
X013704Y053407D01*
X013627Y053330D01*
X013474Y053484D02*
X013474Y053560D01*
X013321Y053637D02*
X013244Y053560D01*
X013244Y053407D01*
X013321Y053330D01*
X013781Y053177D02*
X013781Y052870D01*
X013704Y052716D02*
X013704Y052409D01*
X013704Y052563D02*
X013244Y052563D01*
X013397Y052409D01*
X013321Y052256D02*
X013244Y052179D01*
X013244Y052026D01*
X013321Y051949D01*
X013627Y051949D01*
X013704Y052026D01*
X013704Y052179D01*
X013627Y052256D01*
X014403Y052263D02*
X014633Y052263D01*
X014710Y052340D01*
X014710Y052493D01*
X014633Y052570D01*
X014403Y052570D01*
X014403Y052109D01*
X014556Y052263D02*
X014710Y052109D01*
X014863Y052109D02*
X015170Y052109D01*
X015016Y052109D02*
X015016Y052570D01*
X014863Y052416D01*
X015323Y052033D02*
X015630Y052033D01*
X015784Y052186D02*
X015861Y052109D01*
X016014Y052109D01*
X016091Y052186D01*
X016091Y052263D01*
X016014Y052340D01*
X015937Y052340D01*
X016014Y052340D02*
X016091Y052416D01*
X016091Y052493D01*
X016014Y052570D01*
X015861Y052570D01*
X015784Y052493D01*
X011923Y047660D02*
X012000Y047584D01*
X012000Y047507D01*
X011923Y047430D01*
X012000Y047353D01*
X012000Y047277D01*
X011923Y047200D01*
X011770Y047200D01*
X011693Y047277D01*
X011640Y047251D02*
X011563Y047174D01*
X011563Y046867D01*
X011640Y046791D01*
X011793Y046791D01*
X011870Y046867D01*
X012023Y046867D02*
X012023Y046791D01*
X012023Y046867D02*
X012330Y047174D01*
X012330Y047251D01*
X012023Y047251D01*
X011870Y047174D02*
X011793Y047251D01*
X011640Y047251D01*
X011463Y047353D02*
X011233Y047353D01*
X011233Y047200D02*
X011233Y047660D01*
X011463Y047660D01*
X011540Y047584D01*
X011540Y047430D01*
X011463Y047353D01*
X011693Y047584D02*
X011770Y047660D01*
X011923Y047660D01*
X011923Y047430D02*
X011847Y047430D01*
X012484Y046714D02*
X012791Y046714D01*
X012944Y046867D02*
X013021Y046791D01*
X013174Y046791D01*
X013251Y046867D01*
X013251Y046944D01*
X013174Y047021D01*
X013098Y047021D01*
X013174Y047021D02*
X013251Y047097D01*
X013251Y047174D01*
X013174Y047251D01*
X013021Y047251D01*
X012944Y047174D01*
X014063Y047251D02*
X014293Y047251D01*
X014370Y047174D01*
X014370Y047021D01*
X014293Y046944D01*
X014063Y046944D01*
X014063Y046791D02*
X014063Y047251D01*
X014217Y046944D02*
X014370Y046791D01*
X014523Y047021D02*
X014830Y047021D01*
X014754Y047251D02*
X014523Y047021D01*
X014754Y046791D02*
X014754Y047251D01*
X014984Y046714D02*
X015291Y046714D01*
X015444Y046867D02*
X015521Y046791D01*
X015674Y046791D01*
X015751Y046867D01*
X015751Y046944D01*
X015674Y047021D01*
X015598Y047021D01*
X015674Y047021D02*
X015751Y047097D01*
X015751Y047174D01*
X015674Y047251D01*
X015521Y047251D01*
X015444Y047174D01*
X015979Y045570D02*
X015903Y045493D01*
X015903Y045186D01*
X015979Y045109D01*
X016133Y045109D01*
X016210Y045186D01*
X016363Y045186D02*
X016440Y045109D01*
X016593Y045109D01*
X016670Y045186D01*
X016670Y045263D01*
X016593Y045340D01*
X016363Y045340D01*
X016363Y045186D01*
X016363Y045340D02*
X016516Y045493D01*
X016670Y045570D01*
X016210Y045493D02*
X016133Y045570D01*
X015979Y045570D01*
X016823Y045033D02*
X017130Y045033D01*
X017284Y045186D02*
X017361Y045109D01*
X017514Y045109D01*
X017591Y045186D01*
X017591Y045263D01*
X017514Y045340D01*
X017437Y045340D01*
X017514Y045340D02*
X017591Y045416D01*
X017591Y045493D01*
X017514Y045570D01*
X017361Y045570D01*
X017284Y045493D01*
X016946Y040758D02*
X017023Y040681D01*
X017023Y040528D01*
X016946Y040451D01*
X016793Y040604D02*
X016793Y040681D01*
X016870Y040758D01*
X016946Y040758D01*
X016793Y040681D02*
X016716Y040758D01*
X016639Y040758D01*
X016563Y040681D01*
X016563Y040528D01*
X016639Y040451D01*
X017100Y040298D02*
X017100Y039991D01*
X017023Y039837D02*
X017023Y039530D01*
X016716Y039837D01*
X016639Y039837D01*
X016563Y039760D01*
X016563Y039607D01*
X016639Y039530D01*
X016704Y039560D02*
X016627Y039637D01*
X016551Y039637D01*
X016474Y039560D01*
X016474Y039484D01*
X016474Y039560D02*
X016397Y039637D01*
X016321Y039637D01*
X016244Y039560D01*
X016244Y039407D01*
X016321Y039330D01*
X016563Y039223D02*
X017023Y039223D01*
X017023Y039070D02*
X017023Y039377D01*
X016781Y039177D02*
X016781Y038870D01*
X016639Y038916D02*
X016563Y038840D01*
X016563Y038686D01*
X016639Y038609D01*
X016946Y038609D01*
X017023Y038686D01*
X017023Y038840D01*
X016946Y038916D01*
X016716Y039070D02*
X016563Y039223D01*
X016627Y039330D02*
X016704Y039407D01*
X016704Y039560D01*
X016704Y038716D02*
X016704Y038409D01*
X016704Y038256D02*
X016704Y037949D01*
X016704Y038102D02*
X016244Y038102D01*
X016397Y037949D01*
X016321Y037796D02*
X016244Y037719D01*
X016244Y037565D01*
X016321Y037489D01*
X016627Y037489D01*
X016704Y037565D01*
X016704Y037719D01*
X016627Y037796D01*
X016397Y038409D02*
X016244Y038563D01*
X016704Y038563D01*
X013023Y038686D02*
X013023Y038840D01*
X012946Y038916D01*
X013023Y039070D02*
X013023Y039377D01*
X013023Y039223D02*
X012563Y039223D01*
X012716Y039070D01*
X012639Y038916D02*
X012563Y038840D01*
X012563Y038686D01*
X012639Y038609D01*
X012946Y038609D01*
X013023Y038686D01*
X012946Y039530D02*
X012639Y039837D01*
X012946Y039837D01*
X013023Y039760D01*
X013023Y039607D01*
X012946Y039530D01*
X012639Y039530D01*
X012563Y039607D01*
X012563Y039760D01*
X012639Y039837D01*
X013100Y039991D02*
X013100Y040298D01*
X012946Y040451D02*
X013023Y040528D01*
X013023Y040681D01*
X012946Y040758D01*
X012870Y040758D01*
X012793Y040681D01*
X012793Y040604D01*
X012793Y040681D02*
X012716Y040758D01*
X012639Y040758D01*
X012563Y040681D01*
X012563Y040528D01*
X012639Y040451D01*
X012000Y040777D02*
X011923Y040700D01*
X011770Y040700D01*
X011693Y040777D01*
X011540Y040700D02*
X011540Y041160D01*
X011693Y041084D02*
X011770Y041160D01*
X011923Y041160D01*
X012000Y041084D01*
X012000Y041007D01*
X011923Y040930D01*
X012000Y040853D01*
X012000Y040777D01*
X011923Y040930D02*
X011847Y040930D01*
X011540Y040930D02*
X011233Y040930D01*
X011233Y040700D02*
X011233Y041160D01*
X009751Y040674D02*
X009751Y040597D01*
X009674Y040521D01*
X009751Y040444D01*
X009751Y040367D01*
X009674Y040291D01*
X009521Y040291D01*
X009444Y040367D01*
X009291Y040214D02*
X008984Y040214D01*
X008830Y040367D02*
X008754Y040291D01*
X008600Y040291D01*
X008523Y040367D01*
X008523Y040444D01*
X008600Y040521D01*
X008754Y040521D01*
X008830Y040444D01*
X008830Y040367D01*
X008754Y040521D02*
X008830Y040597D01*
X008830Y040674D01*
X008754Y040751D01*
X008600Y040751D01*
X008523Y040674D01*
X008523Y040597D01*
X008600Y040521D01*
X008370Y040674D02*
X008293Y040751D01*
X008140Y040751D01*
X008063Y040674D01*
X008063Y040367D01*
X008140Y040291D01*
X008293Y040291D01*
X008370Y040367D01*
X009444Y040674D02*
X009521Y040751D01*
X009674Y040751D01*
X009751Y040674D01*
X009674Y040521D02*
X009598Y040521D01*
X009633Y039070D02*
X009479Y039070D01*
X009403Y038993D01*
X009403Y038686D01*
X009479Y038609D01*
X009633Y038609D01*
X009710Y038686D01*
X009863Y038686D02*
X009940Y038609D01*
X010093Y038609D01*
X010170Y038686D01*
X010170Y038993D01*
X010093Y039070D01*
X009940Y039070D01*
X009863Y038993D01*
X009863Y038916D01*
X009940Y038840D01*
X010170Y038840D01*
X010323Y038533D02*
X010630Y038533D01*
X010784Y038686D02*
X010861Y038609D01*
X011014Y038609D01*
X011091Y038686D01*
X011091Y038763D01*
X011014Y038840D01*
X010937Y038840D01*
X011014Y038840D02*
X011091Y038916D01*
X011091Y038993D01*
X011014Y039070D01*
X010861Y039070D01*
X010784Y038993D01*
X009710Y038993D02*
X009633Y039070D01*
X010140Y036251D02*
X010063Y036174D01*
X010063Y035867D01*
X010140Y035791D01*
X010293Y035791D01*
X010370Y035867D01*
X010523Y035791D02*
X010830Y036097D01*
X010830Y036174D01*
X010754Y036251D01*
X010600Y036251D01*
X010523Y036174D01*
X010370Y036174D02*
X010293Y036251D01*
X010140Y036251D01*
X010523Y035791D02*
X010830Y035791D01*
X010984Y035714D02*
X011291Y035714D01*
X011444Y035791D02*
X011751Y036097D01*
X011751Y036174D01*
X011674Y036251D01*
X011521Y036251D01*
X011444Y036174D01*
X011444Y035791D02*
X011751Y035791D01*
X012821Y034137D02*
X012744Y034060D01*
X012744Y033907D01*
X012821Y033830D01*
X012821Y034137D02*
X012897Y034137D01*
X013204Y033830D01*
X013204Y034137D01*
X013281Y033677D02*
X013281Y033370D01*
X013204Y033216D02*
X013204Y032909D01*
X013204Y033063D02*
X012744Y033063D01*
X012897Y032909D01*
X012821Y032756D02*
X012744Y032679D01*
X012744Y032526D01*
X012821Y032449D01*
X013127Y032449D01*
X013204Y032526D01*
X013204Y032679D01*
X013127Y032756D01*
X013903Y032570D02*
X013903Y032109D01*
X013903Y032263D02*
X014133Y032263D01*
X014210Y032340D01*
X014210Y032493D01*
X014133Y032570D01*
X013903Y032570D01*
X014056Y032263D02*
X014210Y032109D01*
X014363Y032109D02*
X014670Y032109D01*
X014516Y032109D02*
X014516Y032570D01*
X014363Y032416D01*
X014823Y032033D02*
X015130Y032033D01*
X015284Y032109D02*
X015591Y032416D01*
X015591Y032493D01*
X015514Y032570D01*
X015361Y032570D01*
X015284Y032493D01*
X015284Y032109D02*
X015591Y032109D01*
X011923Y028160D02*
X011770Y028160D01*
X011693Y028084D01*
X011540Y028084D02*
X011540Y027930D01*
X011463Y027853D01*
X011233Y027853D01*
X011233Y027700D02*
X011233Y028160D01*
X011463Y028160D01*
X011540Y028084D01*
X011923Y028160D02*
X012000Y028084D01*
X012000Y028007D01*
X011693Y027700D01*
X012000Y027700D01*
X012023Y027251D02*
X012330Y027251D01*
X012330Y027174D01*
X012023Y026867D01*
X012023Y026791D01*
X011870Y026867D02*
X011793Y026791D01*
X011640Y026791D01*
X011563Y026867D01*
X011563Y027174D01*
X011640Y027251D01*
X011793Y027251D01*
X011870Y027174D01*
X012484Y026714D02*
X012791Y026714D01*
X012944Y026791D02*
X013251Y027097D01*
X013251Y027174D01*
X013174Y027251D01*
X013021Y027251D01*
X012944Y027174D01*
X012944Y026791D02*
X013251Y026791D01*
X014063Y026791D02*
X014063Y027251D01*
X014293Y027251D01*
X014370Y027174D01*
X014370Y027021D01*
X014293Y026944D01*
X014063Y026944D01*
X014217Y026944D02*
X014370Y026791D01*
X014523Y027021D02*
X014754Y027251D01*
X014754Y026791D01*
X014830Y027021D02*
X014523Y027021D01*
X014984Y026714D02*
X015291Y026714D01*
X015444Y026791D02*
X015751Y027097D01*
X015751Y027174D01*
X015674Y027251D01*
X015521Y027251D01*
X015444Y027174D01*
X015444Y026791D02*
X015751Y026791D01*
X015979Y025570D02*
X015903Y025493D01*
X015903Y025186D01*
X015979Y025109D01*
X016133Y025109D01*
X016210Y025186D01*
X016363Y025186D02*
X016440Y025109D01*
X016593Y025109D01*
X016670Y025186D01*
X016670Y025263D01*
X016593Y025340D01*
X016363Y025340D01*
X016363Y025186D01*
X016363Y025340D02*
X016516Y025493D01*
X016670Y025570D01*
X016210Y025493D02*
X016133Y025570D01*
X015979Y025570D01*
X016823Y025033D02*
X017130Y025033D01*
X017284Y025109D02*
X017591Y025416D01*
X017591Y025493D01*
X017514Y025570D01*
X017361Y025570D01*
X017284Y025493D01*
X017284Y025109D02*
X017591Y025109D01*
X017023Y020758D02*
X017023Y020451D01*
X016716Y020758D01*
X016639Y020758D01*
X016563Y020681D01*
X016563Y020528D01*
X016639Y020451D01*
X017100Y020298D02*
X017100Y019991D01*
X017023Y019837D02*
X017023Y019530D01*
X016716Y019837D01*
X016639Y019837D01*
X016563Y019760D01*
X016563Y019607D01*
X016639Y019530D01*
X016704Y019637D02*
X016704Y019330D01*
X016397Y019637D01*
X016321Y019637D01*
X016244Y019560D01*
X016244Y019407D01*
X016321Y019330D01*
X016563Y019223D02*
X017023Y019223D01*
X017023Y019070D02*
X017023Y019377D01*
X016781Y019177D02*
X016781Y018870D01*
X016639Y018916D02*
X016563Y018840D01*
X016563Y018686D01*
X016639Y018609D01*
X016946Y018609D01*
X017023Y018686D01*
X017023Y018840D01*
X016946Y018916D01*
X016716Y019070D02*
X016563Y019223D01*
X016704Y018716D02*
X016704Y018409D01*
X016704Y018256D02*
X016704Y017949D01*
X016704Y018102D02*
X016244Y018102D01*
X016397Y017949D01*
X016321Y017796D02*
X016244Y017719D01*
X016244Y017565D01*
X016321Y017489D01*
X016627Y017489D01*
X016704Y017565D01*
X016704Y017719D01*
X016627Y017796D01*
X016397Y018409D02*
X016244Y018563D01*
X016704Y018563D01*
X013023Y018686D02*
X013023Y018840D01*
X012946Y018916D01*
X013023Y019070D02*
X013023Y019377D01*
X013023Y019223D02*
X012563Y019223D01*
X012716Y019070D01*
X012639Y018916D02*
X012563Y018840D01*
X012563Y018686D01*
X012639Y018609D01*
X012946Y018609D01*
X013023Y018686D01*
X012946Y019530D02*
X012639Y019530D01*
X012563Y019607D01*
X012563Y019760D01*
X012639Y019837D01*
X012946Y019530D01*
X013023Y019607D01*
X013023Y019760D01*
X012946Y019837D01*
X012639Y019837D01*
X013100Y019991D02*
X013100Y020298D01*
X013023Y020451D02*
X012716Y020758D01*
X012639Y020758D01*
X012563Y020681D01*
X012563Y020528D01*
X012639Y020451D01*
X013023Y020451D02*
X013023Y020758D01*
X012000Y020700D02*
X011693Y020700D01*
X012000Y021007D01*
X012000Y021084D01*
X011923Y021160D01*
X011770Y021160D01*
X011693Y021084D01*
X011540Y021160D02*
X011540Y020700D01*
X011540Y020930D02*
X011233Y020930D01*
X011233Y020700D02*
X011233Y021160D01*
X009751Y020174D02*
X009674Y020251D01*
X009521Y020251D01*
X009444Y020174D01*
X009751Y020174D02*
X009751Y020097D01*
X009444Y019791D01*
X009751Y019791D01*
X009291Y019714D02*
X008984Y019714D01*
X008830Y019867D02*
X008754Y019791D01*
X008600Y019791D01*
X008523Y019867D01*
X008523Y019944D01*
X008600Y020021D01*
X008754Y020021D01*
X008830Y019944D01*
X008830Y019867D01*
X008754Y020021D02*
X008830Y020097D01*
X008830Y020174D01*
X008754Y020251D01*
X008600Y020251D01*
X008523Y020174D01*
X008523Y020097D01*
X008600Y020021D01*
X008370Y020174D02*
X008293Y020251D01*
X008140Y020251D01*
X008063Y020174D01*
X008063Y019867D01*
X008140Y019791D01*
X008293Y019791D01*
X008370Y019867D01*
X009479Y018570D02*
X009403Y018493D01*
X009403Y018186D01*
X009479Y018109D01*
X009633Y018109D01*
X009710Y018186D01*
X009863Y018186D02*
X009940Y018109D01*
X010093Y018109D01*
X010170Y018186D01*
X010170Y018493D01*
X010093Y018570D01*
X009940Y018570D01*
X009863Y018493D01*
X009863Y018416D01*
X009940Y018340D01*
X010170Y018340D01*
X010323Y018033D02*
X010630Y018033D01*
X010784Y018109D02*
X011091Y018416D01*
X011091Y018493D01*
X011014Y018570D01*
X010861Y018570D01*
X010784Y018493D01*
X010784Y018109D02*
X011091Y018109D01*
X009710Y018493D02*
X009633Y018570D01*
X009479Y018570D01*
X011063Y014054D02*
X011293Y014054D01*
X011370Y013977D01*
X011370Y013824D01*
X011293Y013747D01*
X011063Y013747D01*
X011063Y013594D02*
X011063Y014054D01*
X011217Y013747D02*
X011370Y013594D01*
X011523Y013670D02*
X011600Y013594D01*
X011754Y013594D01*
X011830Y013670D01*
X011830Y013977D01*
X011754Y014054D01*
X011600Y014054D01*
X011523Y013977D01*
X011523Y013901D01*
X011600Y013824D01*
X011830Y013824D01*
X011984Y013517D02*
X012291Y013517D01*
X012444Y013670D02*
X012521Y013594D01*
X012674Y013594D01*
X012751Y013670D01*
X012751Y013747D01*
X012674Y013824D01*
X012598Y013824D01*
X012674Y013824D02*
X012751Y013901D01*
X012751Y013977D01*
X012674Y014054D01*
X012521Y014054D01*
X012444Y013977D01*
X012403Y012767D02*
X012633Y012767D01*
X012710Y012690D01*
X012710Y012536D01*
X012633Y012460D01*
X012403Y012460D01*
X012556Y012460D02*
X012710Y012306D01*
X012863Y012383D02*
X012863Y012460D01*
X012940Y012536D01*
X013093Y012536D01*
X013170Y012460D01*
X013170Y012383D01*
X013093Y012306D01*
X012940Y012306D01*
X012863Y012383D01*
X012940Y012536D02*
X012863Y012613D01*
X012863Y012690D01*
X012940Y012767D01*
X013093Y012767D01*
X013170Y012690D01*
X013170Y012613D01*
X013093Y012536D01*
X013323Y012230D02*
X013630Y012230D01*
X013784Y012383D02*
X013861Y012306D01*
X014014Y012306D01*
X014091Y012383D01*
X014091Y012460D01*
X014014Y012536D01*
X013937Y012536D01*
X014014Y012536D02*
X014091Y012613D01*
X014091Y012690D01*
X014014Y012767D01*
X013861Y012767D01*
X013784Y012690D01*
X012403Y012767D02*
X012403Y012306D01*
X014233Y009160D02*
X014233Y008700D01*
X014540Y008700D01*
X014693Y008777D02*
X014770Y008700D01*
X014923Y008700D01*
X015000Y008777D01*
X015000Y008853D01*
X014923Y008930D01*
X014847Y008930D01*
X014923Y008930D02*
X015000Y009007D01*
X015000Y009084D01*
X014923Y009160D01*
X014770Y009160D01*
X014693Y009084D01*
X014540Y009160D02*
X014233Y009160D01*
X014233Y008930D02*
X014386Y008930D01*
X018903Y012306D02*
X018903Y012767D01*
X019133Y012767D01*
X019210Y012690D01*
X019210Y012536D01*
X019133Y012460D01*
X018903Y012460D01*
X019056Y012460D02*
X019210Y012306D01*
X019363Y012383D02*
X019363Y012460D01*
X019440Y012536D01*
X019593Y012536D01*
X019670Y012460D01*
X019670Y012383D01*
X019593Y012306D01*
X019440Y012306D01*
X019363Y012383D01*
X019440Y012536D02*
X019363Y012613D01*
X019363Y012690D01*
X019440Y012767D01*
X019593Y012767D01*
X019670Y012690D01*
X019670Y012613D01*
X019593Y012536D01*
X019823Y012230D02*
X020130Y012230D01*
X020284Y012306D02*
X020591Y012306D01*
X020437Y012306D02*
X020437Y012767D01*
X020284Y012613D01*
X019251Y013594D02*
X018944Y013594D01*
X019098Y013594D02*
X019098Y014054D01*
X018944Y013901D01*
X018791Y013517D02*
X018484Y013517D01*
X018330Y013670D02*
X018330Y013977D01*
X018254Y014054D01*
X018100Y014054D01*
X018023Y013977D01*
X018023Y013901D01*
X018100Y013824D01*
X018330Y013824D01*
X018330Y013670D02*
X018254Y013594D01*
X018100Y013594D01*
X018023Y013670D01*
X017870Y013594D02*
X017717Y013747D01*
X017793Y013747D02*
X017563Y013747D01*
X017563Y013594D02*
X017563Y014054D01*
X017793Y014054D01*
X017870Y013977D01*
X017870Y013824D01*
X017793Y013747D01*
X020733Y009160D02*
X020733Y008700D01*
X021040Y008700D01*
X021193Y008700D02*
X021500Y008700D01*
X021347Y008700D02*
X021347Y009160D01*
X021193Y009007D01*
X021040Y009160D02*
X020733Y009160D01*
X020733Y008930D02*
X020886Y008930D01*
X008500Y009007D02*
X008500Y009084D01*
X008423Y009160D01*
X008270Y009160D01*
X008193Y009084D01*
X008040Y009160D02*
X007733Y009160D01*
X007733Y008700D01*
X008040Y008700D01*
X008193Y008700D02*
X008500Y009007D01*
X008500Y008700D02*
X008193Y008700D01*
X007886Y008930D02*
X007733Y008930D01*
X007130Y012230D02*
X006823Y012230D01*
X006670Y012383D02*
X006593Y012306D01*
X006440Y012306D01*
X006363Y012383D01*
X006363Y012460D01*
X006440Y012536D01*
X006593Y012536D01*
X006670Y012460D01*
X006670Y012383D01*
X006593Y012536D02*
X006670Y012613D01*
X006670Y012690D01*
X006593Y012767D01*
X006440Y012767D01*
X006363Y012690D01*
X006363Y012613D01*
X006440Y012536D01*
X006210Y012536D02*
X006133Y012460D01*
X005903Y012460D01*
X006056Y012460D02*
X006210Y012306D01*
X006210Y012536D02*
X006210Y012690D01*
X006133Y012767D01*
X005903Y012767D01*
X005903Y012306D01*
X005791Y013517D02*
X005484Y013517D01*
X005330Y013670D02*
X005254Y013594D01*
X005100Y013594D01*
X005023Y013670D01*
X004870Y013594D02*
X004717Y013747D01*
X004793Y013747D02*
X004563Y013747D01*
X004563Y013594D02*
X004563Y014054D01*
X004793Y014054D01*
X004870Y013977D01*
X004870Y013824D01*
X004793Y013747D01*
X005023Y013901D02*
X005100Y013824D01*
X005330Y013824D01*
X005330Y013977D02*
X005254Y014054D01*
X005100Y014054D01*
X005023Y013977D01*
X005023Y013901D01*
X005330Y013977D02*
X005330Y013670D01*
X005944Y013594D02*
X006251Y013901D01*
X006251Y013977D01*
X006174Y014054D01*
X006021Y014054D01*
X005944Y013977D01*
X005944Y013594D02*
X006251Y013594D01*
X007284Y012690D02*
X007361Y012767D01*
X007514Y012767D01*
X007591Y012690D01*
X007591Y012613D01*
X007284Y012306D01*
X007591Y012306D01*
X003826Y018716D02*
X003366Y018716D01*
X003366Y018946D01*
X003443Y019023D01*
X003596Y019023D01*
X003673Y018946D01*
X003673Y018716D01*
X003673Y018869D02*
X003826Y019023D01*
X003826Y019176D02*
X003749Y019176D01*
X003443Y019483D01*
X003366Y019483D01*
X003366Y019176D01*
X003903Y019637D02*
X003903Y019943D01*
X003826Y020097D02*
X003519Y020404D01*
X003443Y020404D01*
X003366Y020327D01*
X003366Y020174D01*
X003443Y020097D01*
X003826Y020097D02*
X003826Y020404D01*
X004744Y021449D02*
X004744Y021679D01*
X004821Y021756D01*
X004974Y021756D01*
X005051Y021679D01*
X005051Y021449D01*
X005204Y021449D02*
X004744Y021449D01*
X005051Y021602D02*
X005204Y021756D01*
X005127Y021909D02*
X005204Y021986D01*
X005204Y022140D01*
X005127Y022216D01*
X005051Y022216D01*
X004974Y022140D01*
X004974Y021909D01*
X005127Y021909D01*
X004974Y021909D02*
X004821Y022063D01*
X004744Y022216D01*
X005281Y022370D02*
X005281Y022677D01*
X005204Y022830D02*
X004897Y023137D01*
X004821Y023137D01*
X004744Y023060D01*
X004744Y022907D01*
X004821Y022830D01*
X005204Y022830D02*
X005204Y023137D01*
X003523Y025109D02*
X003063Y025109D01*
X003063Y025340D01*
X003139Y025416D01*
X003293Y025416D01*
X003370Y025340D01*
X003370Y025109D01*
X003370Y025263D02*
X003523Y025416D01*
X003446Y025570D02*
X003523Y025647D01*
X003523Y025800D01*
X003446Y025877D01*
X003293Y025877D01*
X003216Y025800D01*
X003216Y025723D01*
X003293Y025570D01*
X003063Y025570D01*
X003063Y025877D01*
X003600Y026030D02*
X003600Y026337D01*
X003523Y026491D02*
X003216Y026798D01*
X003139Y026798D01*
X003063Y026721D01*
X003063Y026567D01*
X003139Y026491D01*
X003523Y026491D02*
X003523Y026798D01*
X006563Y026867D02*
X006640Y026791D01*
X006793Y026791D01*
X006870Y026867D01*
X007023Y027021D02*
X007330Y027021D01*
X007254Y027251D02*
X007023Y027021D01*
X006870Y027174D02*
X006793Y027251D01*
X006640Y027251D01*
X006563Y027174D01*
X006563Y026867D01*
X007254Y026791D02*
X007254Y027251D01*
X007484Y026714D02*
X007791Y026714D01*
X007944Y026791D02*
X008251Y027097D01*
X008251Y027174D01*
X008174Y027251D01*
X008021Y027251D01*
X007944Y027174D01*
X007944Y026791D02*
X008251Y026791D01*
X008479Y025570D02*
X008403Y025493D01*
X008403Y025186D01*
X008479Y025109D01*
X008633Y025109D01*
X008710Y025186D01*
X008863Y025186D02*
X008940Y025109D01*
X009093Y025109D01*
X009170Y025186D01*
X009170Y025340D01*
X009093Y025416D01*
X009016Y025416D01*
X008863Y025340D01*
X008863Y025570D01*
X009170Y025570D01*
X008710Y025493D02*
X008633Y025570D01*
X008479Y025570D01*
X009323Y025033D02*
X009630Y025033D01*
X009784Y025109D02*
X010091Y025416D01*
X010091Y025493D01*
X010014Y025570D01*
X009861Y025570D01*
X009784Y025493D01*
X009784Y025109D02*
X010091Y025109D01*
X008091Y034109D02*
X007784Y034109D01*
X008091Y034416D01*
X008091Y034493D01*
X008014Y034570D01*
X007861Y034570D01*
X007784Y034493D01*
X007973Y034881D02*
X008279Y035341D01*
X008433Y035265D02*
X008510Y035341D01*
X008663Y035341D01*
X008740Y035265D01*
X008740Y035188D01*
X008433Y034881D01*
X008740Y034881D01*
X008279Y034881D02*
X007973Y035341D01*
X007170Y034493D02*
X007170Y034416D01*
X007093Y034340D01*
X007170Y034263D01*
X007170Y034186D01*
X007093Y034109D01*
X006940Y034109D01*
X006863Y034186D01*
X006710Y034186D02*
X006633Y034109D01*
X006479Y034109D01*
X006403Y034186D01*
X006403Y034493D01*
X006479Y034570D01*
X006633Y034570D01*
X006710Y034493D01*
X006863Y034493D02*
X006940Y034570D01*
X007093Y034570D01*
X007170Y034493D01*
X007093Y034340D02*
X007016Y034340D01*
X007323Y034033D02*
X007630Y034033D01*
X004956Y034846D02*
X004956Y035153D01*
X004956Y035306D02*
X004956Y035613D01*
X004956Y035766D02*
X004956Y035997D01*
X004879Y036073D01*
X004572Y036073D01*
X004496Y035997D01*
X004496Y035766D01*
X004956Y035766D01*
X004726Y035460D02*
X004726Y035306D01*
X004496Y035306D02*
X004956Y035306D01*
X004496Y035306D02*
X004496Y035613D01*
X003956Y035613D02*
X003956Y035306D01*
X003496Y035306D01*
X003496Y035613D01*
X003496Y035766D02*
X003496Y035997D01*
X003572Y036073D01*
X003879Y036073D01*
X003956Y035997D01*
X003956Y035766D01*
X003496Y035766D01*
X003726Y035460D02*
X003726Y035306D01*
X003956Y035153D02*
X003956Y034846D01*
X003496Y034846D01*
X002956Y034846D02*
X002956Y035153D01*
X002956Y035306D02*
X002956Y035613D01*
X002956Y035766D02*
X002956Y035997D01*
X002879Y036073D01*
X002572Y036073D01*
X002496Y035997D01*
X002496Y035766D01*
X002956Y035766D01*
X002726Y035460D02*
X002726Y035306D01*
X002496Y035306D02*
X002956Y035306D01*
X002496Y035306D02*
X002496Y035613D01*
X002726Y036227D02*
X002726Y036534D01*
X002956Y036457D02*
X002496Y036457D01*
X002726Y036227D01*
X003496Y036227D02*
X003726Y036227D01*
X003649Y036380D01*
X003649Y036457D01*
X003726Y036534D01*
X003879Y036534D01*
X003956Y036457D01*
X003956Y036304D01*
X003879Y036227D01*
X003496Y036227D02*
X003496Y036534D01*
X004496Y036534D02*
X004572Y036380D01*
X004726Y036227D01*
X004726Y036457D01*
X004803Y036534D01*
X004879Y036534D01*
X004956Y036457D01*
X004956Y036304D01*
X004879Y036227D01*
X004726Y036227D01*
X004496Y034846D02*
X004956Y034846D01*
X002956Y034846D02*
X002496Y034846D01*
X003366Y038716D02*
X003366Y038946D01*
X003443Y039023D01*
X003596Y039023D01*
X003673Y038946D01*
X003673Y038716D01*
X003673Y038869D02*
X003826Y039023D01*
X003826Y039176D02*
X003749Y039176D01*
X003443Y039483D01*
X003366Y039483D01*
X003366Y039176D01*
X003366Y038716D02*
X003826Y038716D01*
X003903Y039637D02*
X003903Y039943D01*
X003749Y040097D02*
X003826Y040174D01*
X003826Y040327D01*
X003749Y040404D01*
X003673Y040404D01*
X003596Y040327D01*
X003596Y040250D01*
X003596Y040327D02*
X003519Y040404D01*
X003443Y040404D01*
X003366Y040327D01*
X003366Y040174D01*
X003443Y040097D01*
X004744Y041449D02*
X004744Y041679D01*
X004821Y041756D01*
X004974Y041756D01*
X005051Y041679D01*
X005051Y041449D01*
X005204Y041449D02*
X004744Y041449D01*
X005051Y041602D02*
X005204Y041756D01*
X005127Y041909D02*
X005204Y041986D01*
X005204Y042140D01*
X005127Y042216D01*
X005051Y042216D01*
X004974Y042140D01*
X004974Y041909D01*
X005127Y041909D01*
X004974Y041909D02*
X004821Y042063D01*
X004744Y042216D01*
X005281Y042370D02*
X005281Y042677D01*
X005127Y042830D02*
X005204Y042907D01*
X005204Y043060D01*
X005127Y043137D01*
X005051Y043137D01*
X004974Y043060D01*
X004974Y042984D01*
X004974Y043060D02*
X004897Y043137D01*
X004821Y043137D01*
X004744Y043060D01*
X004744Y042907D01*
X004821Y042830D01*
X003523Y045109D02*
X003063Y045109D01*
X003063Y045340D01*
X003139Y045416D01*
X003293Y045416D01*
X003370Y045340D01*
X003370Y045109D01*
X003370Y045263D02*
X003523Y045416D01*
X003446Y045570D02*
X003523Y045647D01*
X003523Y045800D01*
X003446Y045877D01*
X003293Y045877D01*
X003216Y045800D01*
X003216Y045723D01*
X003293Y045570D01*
X003063Y045570D01*
X003063Y045877D01*
X003600Y046030D02*
X003600Y046337D01*
X003446Y046491D02*
X003523Y046567D01*
X003523Y046721D01*
X003446Y046798D01*
X003370Y046798D01*
X003293Y046721D01*
X003293Y046644D01*
X003293Y046721D02*
X003216Y046798D01*
X003139Y046798D01*
X003063Y046721D01*
X003063Y046567D01*
X003139Y046491D01*
X006563Y046867D02*
X006640Y046791D01*
X006793Y046791D01*
X006870Y046867D01*
X007023Y047021D02*
X007330Y047021D01*
X007254Y047251D02*
X007023Y047021D01*
X006870Y047174D02*
X006793Y047251D01*
X006640Y047251D01*
X006563Y047174D01*
X006563Y046867D01*
X007254Y046791D02*
X007254Y047251D01*
X007484Y046714D02*
X007791Y046714D01*
X007944Y046867D02*
X008021Y046791D01*
X008174Y046791D01*
X008251Y046867D01*
X008251Y046944D01*
X008174Y047021D01*
X008098Y047021D01*
X008174Y047021D02*
X008251Y047097D01*
X008251Y047174D01*
X008174Y047251D01*
X008021Y047251D01*
X007944Y047174D01*
X008479Y045570D02*
X008403Y045493D01*
X008403Y045186D01*
X008479Y045109D01*
X008633Y045109D01*
X008710Y045186D01*
X008863Y045186D02*
X008940Y045109D01*
X009093Y045109D01*
X009170Y045186D01*
X009170Y045340D01*
X009093Y045416D01*
X009016Y045416D01*
X008863Y045340D01*
X008863Y045570D01*
X009170Y045570D01*
X008710Y045493D02*
X008633Y045570D01*
X008479Y045570D01*
X009323Y045033D02*
X009630Y045033D01*
X009784Y045186D02*
X009861Y045109D01*
X010014Y045109D01*
X010091Y045186D01*
X010091Y045263D01*
X010014Y045340D01*
X009937Y045340D01*
X010014Y045340D02*
X010091Y045416D01*
X010091Y045493D01*
X010014Y045570D01*
X009861Y045570D01*
X009784Y045493D01*
X008014Y053609D02*
X007861Y053609D01*
X007784Y053686D01*
X007937Y053840D02*
X008014Y053840D01*
X008091Y053763D01*
X008091Y053686D01*
X008014Y053609D01*
X008014Y053840D02*
X008091Y053916D01*
X008091Y053993D01*
X008014Y054070D01*
X007861Y054070D01*
X007784Y053993D01*
X007973Y054381D02*
X008279Y054841D01*
X008433Y054765D02*
X008510Y054841D01*
X008663Y054841D01*
X008740Y054765D01*
X008740Y054688D01*
X008663Y054611D01*
X008740Y054535D01*
X008740Y054458D01*
X008663Y054381D01*
X008510Y054381D01*
X008433Y054458D01*
X008279Y054381D02*
X007973Y054841D01*
X008586Y054611D02*
X008663Y054611D01*
X007630Y053533D02*
X007323Y053533D01*
X007170Y053686D02*
X007093Y053609D01*
X006940Y053609D01*
X006863Y053686D01*
X006710Y053686D02*
X006633Y053609D01*
X006479Y053609D01*
X006403Y053686D01*
X006403Y053993D01*
X006479Y054070D01*
X006633Y054070D01*
X006710Y053993D01*
X006863Y053993D02*
X006940Y054070D01*
X007093Y054070D01*
X007170Y053993D01*
X007170Y053916D01*
X007093Y053840D01*
X007170Y053763D01*
X007170Y053686D01*
X007093Y053840D02*
X007016Y053840D01*
X004956Y054346D02*
X004956Y054653D01*
X004956Y054806D02*
X004956Y055113D01*
X004956Y055266D02*
X004956Y055497D01*
X004879Y055573D01*
X004572Y055573D01*
X004496Y055497D01*
X004496Y055266D01*
X004956Y055266D01*
X004726Y054960D02*
X004726Y054806D01*
X004496Y054806D02*
X004956Y054806D01*
X004496Y054806D02*
X004496Y055113D01*
X003956Y055113D02*
X003956Y054806D01*
X003496Y054806D01*
X003496Y055113D01*
X003496Y055266D02*
X003496Y055497D01*
X003572Y055573D01*
X003879Y055573D01*
X003956Y055497D01*
X003956Y055266D01*
X003496Y055266D01*
X003726Y054960D02*
X003726Y054806D01*
X003956Y054653D02*
X003956Y054346D01*
X003496Y054346D01*
X002956Y054346D02*
X002956Y054653D01*
X002956Y054806D02*
X002956Y055113D01*
X002956Y055266D02*
X002956Y055497D01*
X002879Y055573D01*
X002572Y055573D01*
X002496Y055497D01*
X002496Y055266D01*
X002956Y055266D01*
X002726Y054960D02*
X002726Y054806D01*
X002496Y054806D02*
X002956Y054806D01*
X002496Y054806D02*
X002496Y055113D01*
X002496Y055727D02*
X002496Y056034D01*
X002572Y056034D01*
X002879Y055727D01*
X002956Y055727D01*
X003496Y055804D02*
X003496Y055957D01*
X003572Y056034D01*
X003649Y056034D01*
X003726Y055957D01*
X003726Y055804D01*
X003649Y055727D01*
X003572Y055727D01*
X003496Y055804D01*
X003726Y055804D02*
X003803Y055727D01*
X003879Y055727D01*
X003956Y055804D01*
X003956Y055957D01*
X003879Y056034D01*
X003803Y056034D01*
X003726Y055957D01*
X004496Y055957D02*
X004496Y055804D01*
X004572Y055727D01*
X004649Y055727D01*
X004726Y055804D01*
X004726Y056034D01*
X004879Y056034D02*
X004572Y056034D01*
X004496Y055957D01*
X004879Y056034D02*
X004956Y055957D01*
X004956Y055804D01*
X004879Y055727D01*
X004956Y054346D02*
X004496Y054346D01*
X002956Y054346D02*
X002496Y054346D01*
X003366Y057716D02*
X003366Y057946D01*
X003443Y058023D01*
X003596Y058023D01*
X003673Y057946D01*
X003673Y057716D01*
X003673Y057869D02*
X003826Y058023D01*
X003826Y058176D02*
X003749Y058176D01*
X003443Y058483D01*
X003366Y058483D01*
X003366Y058176D01*
X003366Y057716D02*
X003826Y057716D01*
X003903Y058637D02*
X003903Y058943D01*
X003826Y059097D02*
X003826Y059404D01*
X003826Y059250D02*
X003366Y059250D01*
X003519Y059097D01*
X004744Y060449D02*
X004744Y060679D01*
X004821Y060756D01*
X004974Y060756D01*
X005051Y060679D01*
X005051Y060449D01*
X005204Y060449D02*
X004744Y060449D01*
X005051Y060602D02*
X005204Y060756D01*
X005127Y060909D02*
X005204Y060986D01*
X005204Y061140D01*
X005127Y061216D01*
X005051Y061216D01*
X004974Y061140D01*
X004974Y060909D01*
X005127Y060909D01*
X004974Y060909D02*
X004821Y061063D01*
X004744Y061216D01*
X005281Y061370D02*
X005281Y061677D01*
X005204Y061830D02*
X005204Y062137D01*
X005204Y061984D02*
X004744Y061984D01*
X004897Y061830D01*
X003523Y063609D02*
X003063Y063609D01*
X003063Y063840D01*
X003139Y063916D01*
X003293Y063916D01*
X003370Y063840D01*
X003370Y063609D01*
X003370Y063763D02*
X003523Y063916D01*
X003446Y064070D02*
X003523Y064147D01*
X003523Y064300D01*
X003446Y064377D01*
X003293Y064377D01*
X003216Y064300D01*
X003216Y064223D01*
X003293Y064070D01*
X003063Y064070D01*
X003063Y064377D01*
X003600Y064530D02*
X003600Y064837D01*
X003523Y064991D02*
X003523Y065298D01*
X003523Y065144D02*
X003063Y065144D01*
X003216Y064991D01*
X031654Y045584D02*
X031730Y045660D01*
X031884Y045660D01*
X031961Y045584D01*
X031961Y045277D01*
X031884Y045200D01*
X031730Y045200D01*
X031654Y045277D01*
X031654Y045584D01*
X031807Y045353D02*
X031961Y045200D01*
X032114Y045277D02*
X032191Y045200D01*
X032344Y045200D01*
X032421Y045277D01*
X032421Y045353D01*
X032344Y045430D01*
X032267Y045430D01*
X032344Y045430D02*
X032421Y045507D01*
X032421Y045584D01*
X032344Y045660D01*
X032191Y045660D01*
X032114Y045584D01*
X038563Y048686D02*
X038639Y048609D01*
X038946Y048609D01*
X039023Y048686D01*
X039023Y048840D01*
X038946Y048916D01*
X038870Y049070D02*
X038563Y049070D01*
X038639Y048916D02*
X038563Y048840D01*
X038563Y048686D01*
X038870Y049070D02*
X039023Y049223D01*
X038870Y049377D01*
X038563Y049377D01*
X038639Y049530D02*
X038563Y049607D01*
X038563Y049760D01*
X038639Y049837D01*
X038716Y049837D01*
X038793Y049760D01*
X038870Y049837D01*
X038946Y049837D01*
X039023Y049760D01*
X039023Y049607D01*
X038946Y049530D01*
X038793Y049684D02*
X038793Y049760D01*
X040654Y050777D02*
X040730Y050700D01*
X040884Y050700D01*
X040961Y050777D01*
X040961Y051084D01*
X040884Y051160D01*
X040730Y051160D01*
X040654Y051084D01*
X040654Y050777D01*
X040807Y050853D02*
X040961Y050700D01*
X041114Y050777D02*
X041191Y050700D01*
X041344Y050700D01*
X041421Y050777D01*
X041421Y050930D01*
X041344Y051007D01*
X041267Y051007D01*
X041114Y050930D01*
X041114Y051160D01*
X041421Y051160D01*
X044563Y049760D02*
X044793Y049530D01*
X044793Y049837D01*
X045023Y049760D02*
X044563Y049760D01*
X044563Y049377D02*
X044870Y049377D01*
X045023Y049223D01*
X044870Y049070D01*
X044563Y049070D01*
X044639Y048916D02*
X044563Y048840D01*
X044563Y048686D01*
X044639Y048609D01*
X044946Y048609D01*
X045023Y048686D01*
X045023Y048840D01*
X044946Y048916D01*
X038844Y041160D02*
X038614Y041160D01*
X038614Y040700D01*
X038461Y040700D02*
X038461Y041160D01*
X038307Y041007D01*
X038154Y041160D01*
X038154Y040700D01*
X038614Y040853D02*
X038844Y040853D01*
X038921Y040930D01*
X038921Y041084D01*
X038844Y041160D01*
X037523Y035798D02*
X037063Y035798D01*
X037216Y035644D01*
X037063Y035491D01*
X037523Y035491D01*
X037600Y035337D02*
X037600Y035030D01*
X037598Y035097D02*
X037751Y035251D01*
X037751Y034791D01*
X037523Y034723D02*
X037063Y034723D01*
X037216Y034570D01*
X037091Y034609D02*
X037091Y035070D01*
X036937Y034916D01*
X036784Y035070D01*
X036784Y034609D01*
X036630Y034533D02*
X036323Y034533D01*
X036170Y034686D02*
X036093Y034609D01*
X035940Y034609D01*
X035863Y034686D01*
X035710Y034686D02*
X035633Y034609D01*
X035479Y034609D01*
X035403Y034686D01*
X035403Y034993D01*
X035479Y035070D01*
X035633Y035070D01*
X035710Y034993D01*
X035863Y035070D02*
X035863Y034840D01*
X036016Y034916D01*
X036093Y034916D01*
X036170Y034840D01*
X036170Y034686D01*
X036063Y034791D02*
X036063Y035251D01*
X036293Y035251D01*
X036370Y035174D01*
X036370Y035021D01*
X036293Y034944D01*
X036063Y034944D01*
X036217Y034944D02*
X036370Y034791D01*
X036523Y034791D02*
X036830Y034791D01*
X036677Y034791D02*
X036677Y035251D01*
X036523Y035097D01*
X036170Y035070D02*
X035863Y035070D01*
X036984Y034714D02*
X037291Y034714D01*
X037444Y034791D02*
X037444Y035251D01*
X037598Y035097D01*
X037523Y034877D02*
X037523Y034570D01*
X037446Y034416D02*
X037523Y034340D01*
X037523Y034186D01*
X037446Y034109D01*
X037139Y034109D01*
X037063Y034186D01*
X037063Y034340D01*
X037139Y034416D01*
X039063Y033674D02*
X039063Y033367D01*
X039140Y033291D01*
X039293Y033291D01*
X039370Y033367D01*
X039523Y033291D02*
X039830Y033597D01*
X039830Y033674D01*
X039754Y033751D01*
X039600Y033751D01*
X039523Y033674D01*
X039370Y033674D02*
X039293Y033751D01*
X039140Y033751D01*
X039063Y033674D01*
X039523Y033291D02*
X039830Y033291D01*
X039984Y033214D02*
X040291Y033214D01*
X040444Y033291D02*
X040444Y033751D01*
X040598Y033597D01*
X040751Y033751D01*
X040751Y033291D01*
X041414Y033479D02*
X041414Y033019D01*
X041721Y033019D02*
X041721Y033479D01*
X041567Y033326D01*
X041414Y033479D01*
X041874Y033479D02*
X042181Y033019D01*
X041874Y033019D02*
X042181Y033479D01*
X042093Y032070D02*
X042170Y031993D01*
X042170Y031916D01*
X042093Y031840D01*
X042170Y031763D01*
X042170Y031686D01*
X042093Y031609D01*
X041940Y031609D01*
X041863Y031686D01*
X041710Y031686D02*
X041633Y031609D01*
X041479Y031609D01*
X041403Y031686D01*
X041403Y031993D01*
X041479Y032070D01*
X041633Y032070D01*
X041710Y031993D01*
X041863Y031993D02*
X041940Y032070D01*
X042093Y032070D01*
X042093Y031840D02*
X042016Y031840D01*
X042323Y031533D02*
X042630Y031533D01*
X042784Y031609D02*
X042784Y032070D01*
X042937Y031916D01*
X043091Y032070D01*
X043091Y031609D01*
X044821Y033449D02*
X045127Y033449D01*
X045204Y033526D01*
X045204Y033679D01*
X045127Y033756D01*
X044974Y033909D02*
X044974Y034216D01*
X045204Y034140D02*
X044744Y034140D01*
X044974Y033909D01*
X044821Y033756D02*
X044744Y033679D01*
X044744Y033526D01*
X044821Y033449D01*
X045281Y034370D02*
X045281Y034677D01*
X045204Y034830D02*
X044744Y034830D01*
X044897Y034984D01*
X044744Y035137D01*
X045204Y035137D01*
X049653Y032391D02*
X049883Y032160D01*
X049883Y032467D01*
X049653Y032391D02*
X050114Y032391D01*
X050114Y032007D02*
X050114Y031700D01*
X049653Y031700D01*
X049653Y032007D01*
X049883Y031853D02*
X049883Y031700D01*
X052760Y032609D02*
X052760Y032840D01*
X052836Y032916D01*
X052990Y032916D01*
X053066Y032840D01*
X053066Y032609D01*
X053066Y032763D02*
X053220Y032916D01*
X053143Y033070D02*
X053066Y033070D01*
X052990Y033147D01*
X052990Y033300D01*
X053066Y033377D01*
X053143Y033377D01*
X053220Y033300D01*
X053220Y033147D01*
X053143Y033070D01*
X052990Y033147D02*
X052913Y033070D01*
X052836Y033070D01*
X052760Y033147D01*
X052760Y033300D01*
X052836Y033377D01*
X052913Y033377D01*
X052990Y033300D01*
X053297Y033530D02*
X053297Y033837D01*
X052990Y033991D02*
X052990Y034298D01*
X053220Y034221D02*
X052760Y034221D01*
X052990Y033991D01*
X054047Y033949D02*
X054047Y034179D01*
X054124Y034256D01*
X054277Y034256D01*
X054354Y034179D01*
X054354Y033949D01*
X054507Y033949D02*
X054047Y033949D01*
X054354Y034102D02*
X054507Y034256D01*
X054431Y034409D02*
X054507Y034486D01*
X054507Y034640D01*
X054431Y034716D01*
X054124Y034716D01*
X054047Y034640D01*
X054047Y034486D01*
X054124Y034409D01*
X054200Y034409D01*
X054277Y034486D01*
X054277Y034716D01*
X054584Y034870D02*
X054584Y035177D01*
X054277Y035330D02*
X054277Y035637D01*
X054047Y035560D02*
X054277Y035330D01*
X054507Y035560D02*
X054047Y035560D01*
X053220Y032609D02*
X052760Y032609D01*
X057366Y031327D02*
X057596Y031097D01*
X057596Y031404D01*
X057826Y031327D02*
X057366Y031327D01*
X057903Y030943D02*
X057903Y030637D01*
X057826Y030176D02*
X057749Y030176D01*
X057443Y030483D01*
X057366Y030483D01*
X057366Y030176D01*
X057443Y030023D02*
X057596Y030023D01*
X057673Y029946D01*
X057673Y029716D01*
X057673Y029869D02*
X057826Y030023D01*
X057826Y029716D02*
X057366Y029716D01*
X057366Y029946D01*
X057443Y030023D01*
X057129Y027994D02*
X057206Y027917D01*
X057206Y027764D01*
X057129Y027687D01*
X057206Y027534D02*
X057206Y027227D01*
X057206Y027380D02*
X056746Y027380D01*
X056899Y027227D01*
X056822Y027073D02*
X056746Y026997D01*
X056746Y026766D01*
X057206Y026766D01*
X057206Y026997D01*
X057129Y027073D01*
X056822Y027073D01*
X056746Y026613D02*
X056746Y026306D01*
X057206Y026306D01*
X057206Y026613D01*
X056976Y026460D02*
X056976Y026306D01*
X057206Y026153D02*
X057206Y025846D01*
X056746Y025846D01*
X057746Y025846D02*
X058206Y025846D01*
X058206Y026153D01*
X058206Y026306D02*
X058206Y026613D01*
X058206Y026766D02*
X058206Y026997D01*
X058129Y027073D01*
X057822Y027073D01*
X057746Y026997D01*
X057746Y026766D01*
X058206Y026766D01*
X057976Y026460D02*
X057976Y026306D01*
X057746Y026306D02*
X058206Y026306D01*
X057746Y026306D02*
X057746Y026613D01*
X057899Y027227D02*
X057746Y027380D01*
X058206Y027380D01*
X058206Y027227D02*
X058206Y027534D01*
X057976Y027687D02*
X057976Y027994D01*
X058206Y027917D02*
X057746Y027917D01*
X057976Y027687D01*
X058746Y027687D02*
X058746Y027994D01*
X058899Y027917D02*
X058976Y027994D01*
X059129Y027994D01*
X059206Y027917D01*
X059206Y027764D01*
X059129Y027687D01*
X058976Y027687D02*
X058899Y027841D01*
X058899Y027917D01*
X058976Y027687D02*
X058746Y027687D01*
X058746Y027380D02*
X059206Y027380D01*
X059206Y027227D02*
X059206Y027534D01*
X058899Y027227D02*
X058746Y027380D01*
X058822Y027073D02*
X058746Y026997D01*
X058746Y026766D01*
X059206Y026766D01*
X059206Y026997D01*
X059129Y027073D01*
X058822Y027073D01*
X058746Y026613D02*
X058746Y026306D01*
X059206Y026306D01*
X059206Y026613D01*
X058976Y026460D02*
X058976Y026306D01*
X059206Y026153D02*
X059206Y025846D01*
X058746Y025846D01*
X060403Y025993D02*
X060403Y025686D01*
X060479Y025609D01*
X060633Y025609D01*
X060710Y025686D01*
X060863Y025686D02*
X060940Y025609D01*
X061093Y025609D01*
X061170Y025686D01*
X061170Y025763D01*
X061093Y025840D01*
X061016Y025840D01*
X061093Y025840D02*
X061170Y025916D01*
X061170Y025993D01*
X061093Y026070D01*
X060940Y026070D01*
X060863Y025993D01*
X060710Y025993D02*
X060633Y026070D01*
X060479Y026070D01*
X060403Y025993D01*
X061323Y025533D02*
X061630Y025533D01*
X061784Y025686D02*
X061861Y025609D01*
X062014Y025609D01*
X062091Y025686D01*
X062091Y025840D01*
X062014Y025916D01*
X061937Y025916D01*
X061784Y025840D01*
X061784Y026070D01*
X062091Y026070D01*
X061973Y025881D02*
X062279Y026341D01*
X062433Y026341D02*
X062433Y026111D01*
X062586Y026188D01*
X062663Y026188D01*
X062740Y026111D01*
X062740Y025958D01*
X062663Y025881D01*
X062510Y025881D01*
X062433Y025958D01*
X062279Y025881D02*
X061973Y026341D01*
X062433Y026341D02*
X062740Y026341D01*
X064063Y027367D02*
X064140Y027291D01*
X064293Y027291D01*
X064370Y027367D01*
X064523Y027291D02*
X064830Y027597D01*
X064830Y027674D01*
X064754Y027751D01*
X064600Y027751D01*
X064523Y027674D01*
X064370Y027674D02*
X064293Y027751D01*
X064140Y027751D01*
X064063Y027674D01*
X064063Y027367D01*
X064523Y027291D02*
X064830Y027291D01*
X064984Y027214D02*
X065291Y027214D01*
X065444Y027367D02*
X065521Y027291D01*
X065674Y027291D01*
X065751Y027367D01*
X065751Y027521D01*
X065674Y027597D01*
X065598Y027597D01*
X065444Y027521D01*
X065444Y027751D01*
X065751Y027751D01*
X065514Y029109D02*
X065514Y029570D01*
X065284Y029340D01*
X065591Y029340D01*
X065130Y029033D02*
X064823Y029033D01*
X064670Y029186D02*
X064670Y029493D01*
X064593Y029570D01*
X064440Y029570D01*
X064363Y029493D01*
X064363Y029416D01*
X064440Y029340D01*
X064670Y029340D01*
X064670Y029186D02*
X064593Y029109D01*
X064440Y029109D01*
X064363Y029186D01*
X064210Y029186D02*
X064133Y029109D01*
X063979Y029109D01*
X063903Y029186D01*
X063903Y029493D01*
X063979Y029570D01*
X064133Y029570D01*
X064210Y029493D01*
X063674Y030791D02*
X063674Y031251D01*
X063444Y031021D01*
X063751Y031021D01*
X063291Y030714D02*
X062984Y030714D01*
X062830Y030867D02*
X062830Y030944D01*
X062754Y031021D01*
X062600Y031021D01*
X062523Y031097D01*
X062523Y031174D01*
X062600Y031251D01*
X062754Y031251D01*
X062830Y031174D01*
X062830Y031097D01*
X062754Y031021D01*
X062600Y031021D02*
X062523Y030944D01*
X062523Y030867D01*
X062600Y030791D01*
X062754Y030791D01*
X062830Y030867D01*
X062370Y030867D02*
X062293Y030791D01*
X062140Y030791D01*
X062063Y030867D01*
X062063Y031174D01*
X062140Y031251D01*
X062293Y031251D01*
X062370Y031174D01*
X065233Y031700D02*
X065233Y032160D01*
X065233Y031930D02*
X065540Y031930D01*
X065693Y031930D02*
X066000Y031930D01*
X065923Y031700D02*
X065923Y032160D01*
X065693Y031930D01*
X065540Y032160D02*
X065540Y031700D01*
X066563Y031681D02*
X066793Y031451D01*
X066793Y031758D01*
X067023Y031681D02*
X066563Y031681D01*
X067100Y031298D02*
X067100Y030991D01*
X066946Y030837D02*
X066639Y030837D01*
X066946Y030530D01*
X067023Y030607D01*
X067023Y030760D01*
X066946Y030837D01*
X066639Y030837D02*
X066563Y030760D01*
X066563Y030607D01*
X066639Y030530D01*
X066946Y030530D01*
X067023Y030377D02*
X067023Y030070D01*
X067023Y030223D02*
X066563Y030223D01*
X066716Y030070D01*
X066639Y029916D02*
X066563Y029840D01*
X066563Y029686D01*
X066639Y029609D01*
X066946Y029609D01*
X067023Y029686D01*
X067023Y029840D01*
X066946Y029916D01*
X070244Y029563D02*
X070704Y029563D01*
X070639Y029609D02*
X070946Y029609D01*
X071023Y029686D01*
X071023Y029840D01*
X070946Y029916D01*
X070781Y029870D02*
X070781Y030177D01*
X070716Y030070D02*
X070563Y030223D01*
X071023Y030223D01*
X071023Y030070D02*
X071023Y030377D01*
X071023Y030530D02*
X070716Y030837D01*
X070639Y030837D01*
X070563Y030760D01*
X070563Y030607D01*
X070639Y030530D01*
X070704Y030560D02*
X070244Y030560D01*
X070474Y030330D01*
X070474Y030637D01*
X071023Y030530D02*
X071023Y030837D01*
X071100Y030991D02*
X071100Y031298D01*
X070793Y031451D02*
X070793Y031758D01*
X071023Y031681D02*
X070563Y031681D01*
X070793Y031451D01*
X070639Y029916D02*
X070563Y029840D01*
X070563Y029686D01*
X070639Y029609D01*
X070704Y029716D02*
X070704Y029409D01*
X070704Y029256D02*
X070704Y028949D01*
X070704Y029102D02*
X070244Y029102D01*
X070397Y028949D01*
X070321Y028796D02*
X070244Y028719D01*
X070244Y028565D01*
X070321Y028489D01*
X070627Y028489D01*
X070704Y028565D01*
X070704Y028719D01*
X070627Y028796D01*
X070397Y029409D02*
X070244Y029563D01*
X067127Y025137D02*
X067204Y025060D01*
X067204Y024907D01*
X067127Y024830D01*
X066974Y024830D02*
X066897Y024984D01*
X066897Y025060D01*
X066974Y025137D01*
X067127Y025137D01*
X066974Y024830D02*
X066744Y024830D01*
X066744Y025137D01*
X067281Y024677D02*
X067281Y024370D01*
X067204Y024216D02*
X067204Y023909D01*
X067204Y024063D02*
X066744Y024063D01*
X066897Y023909D01*
X066821Y023756D02*
X066744Y023679D01*
X066744Y023526D01*
X066821Y023449D01*
X067127Y023449D01*
X067204Y023526D01*
X067204Y023679D01*
X067127Y023756D01*
X067903Y023570D02*
X067903Y023109D01*
X067903Y023263D02*
X068133Y023263D01*
X068210Y023340D01*
X068210Y023493D01*
X068133Y023570D01*
X067903Y023570D01*
X068056Y023263D02*
X068210Y023109D01*
X068363Y023109D02*
X068670Y023109D01*
X068516Y023109D02*
X068516Y023570D01*
X068363Y023416D01*
X068823Y023033D02*
X069130Y023033D01*
X069284Y023186D02*
X069361Y023109D01*
X069514Y023109D01*
X069591Y023186D01*
X069591Y023340D01*
X069514Y023416D01*
X069437Y023416D01*
X069284Y023340D01*
X069284Y023570D01*
X069591Y023570D01*
X066000Y019160D02*
X065693Y019160D01*
X065693Y018930D01*
X065847Y019007D01*
X065923Y019007D01*
X066000Y018930D01*
X066000Y018777D01*
X065923Y018700D01*
X065770Y018700D01*
X065693Y018777D01*
X065640Y018751D02*
X065563Y018674D01*
X065563Y018367D01*
X065640Y018291D01*
X065793Y018291D01*
X065870Y018367D01*
X066023Y018367D02*
X066023Y018291D01*
X066023Y018367D02*
X066330Y018674D01*
X066330Y018751D01*
X066023Y018751D01*
X065870Y018674D02*
X065793Y018751D01*
X065640Y018751D01*
X065463Y018853D02*
X065233Y018853D01*
X065233Y018700D02*
X065233Y019160D01*
X065463Y019160D01*
X065540Y019084D01*
X065540Y018930D01*
X065463Y018853D01*
X066484Y018214D02*
X066791Y018214D01*
X066944Y018367D02*
X067021Y018291D01*
X067174Y018291D01*
X067251Y018367D01*
X067251Y018521D01*
X067174Y018597D01*
X067098Y018597D01*
X066944Y018521D01*
X066944Y018751D01*
X067251Y018751D01*
X068063Y018751D02*
X068293Y018751D01*
X068370Y018674D01*
X068370Y018521D01*
X068293Y018444D01*
X068063Y018444D01*
X068063Y018291D02*
X068063Y018751D01*
X068217Y018444D02*
X068370Y018291D01*
X068523Y018521D02*
X068830Y018521D01*
X068754Y018751D02*
X068523Y018521D01*
X068754Y018291D02*
X068754Y018751D01*
X068984Y018214D02*
X069291Y018214D01*
X069444Y018367D02*
X069521Y018291D01*
X069674Y018291D01*
X069751Y018367D01*
X069751Y018521D01*
X069674Y018597D01*
X069598Y018597D01*
X069444Y018521D01*
X069444Y018751D01*
X069751Y018751D01*
X069979Y017070D02*
X069903Y016993D01*
X069903Y016686D01*
X069979Y016609D01*
X070133Y016609D01*
X070210Y016686D01*
X070363Y016686D02*
X070440Y016609D01*
X070593Y016609D01*
X070670Y016686D01*
X070670Y016763D01*
X070593Y016840D01*
X070363Y016840D01*
X070363Y016686D01*
X070363Y016840D02*
X070516Y016993D01*
X070670Y017070D01*
X070210Y016993D02*
X070133Y017070D01*
X069979Y017070D01*
X070823Y016533D02*
X071130Y016533D01*
X071284Y016686D02*
X071361Y016609D01*
X071514Y016609D01*
X071591Y016686D01*
X071591Y016840D01*
X071514Y016916D01*
X071437Y016916D01*
X071284Y016840D01*
X071284Y017070D01*
X071591Y017070D01*
X070946Y011758D02*
X071023Y011681D01*
X071023Y011528D01*
X070946Y011451D01*
X070793Y011451D02*
X070716Y011604D01*
X070716Y011681D01*
X070793Y011758D01*
X070946Y011758D01*
X070793Y011451D02*
X070563Y011451D01*
X070563Y011758D01*
X071100Y011298D02*
X071100Y010991D01*
X071023Y010837D02*
X071023Y010530D01*
X070716Y010837D01*
X070639Y010837D01*
X070563Y010760D01*
X070563Y010607D01*
X070639Y010530D01*
X070704Y010560D02*
X070704Y010407D01*
X070627Y010330D01*
X070563Y010223D02*
X071023Y010223D01*
X071023Y010070D02*
X071023Y010377D01*
X070781Y010177D02*
X070781Y009870D01*
X070639Y009916D02*
X070563Y009840D01*
X070563Y009686D01*
X070639Y009609D01*
X070946Y009609D01*
X071023Y009686D01*
X071023Y009840D01*
X070946Y009916D01*
X070716Y010070D02*
X070563Y010223D01*
X070474Y010330D02*
X070397Y010484D01*
X070397Y010560D01*
X070474Y010637D01*
X070627Y010637D01*
X070704Y010560D01*
X070474Y010330D02*
X070244Y010330D01*
X070244Y010637D01*
X070704Y009716D02*
X070704Y009409D01*
X070704Y009256D02*
X070704Y008949D01*
X070704Y009102D02*
X070244Y009102D01*
X070397Y008949D01*
X070330Y008977D02*
X070254Y009054D01*
X070100Y009054D01*
X070023Y008977D01*
X070023Y008901D01*
X070100Y008824D01*
X070330Y008824D01*
X070321Y008796D02*
X070244Y008719D01*
X070244Y008565D01*
X070321Y008489D01*
X070627Y008489D01*
X070704Y008565D01*
X070704Y008719D01*
X070627Y008796D01*
X070484Y008517D02*
X070791Y008517D01*
X070944Y008670D02*
X071021Y008594D01*
X071174Y008594D01*
X071251Y008670D01*
X071251Y008824D01*
X071174Y008901D01*
X071098Y008901D01*
X070944Y008824D01*
X070944Y009054D01*
X071251Y009054D01*
X070704Y009563D02*
X070244Y009563D01*
X070397Y009409D01*
X070330Y008977D02*
X070330Y008670D01*
X070254Y008594D01*
X070100Y008594D01*
X070023Y008670D01*
X069870Y008594D02*
X069717Y008747D01*
X069793Y008747D02*
X069563Y008747D01*
X069563Y008594D02*
X069563Y009054D01*
X069793Y009054D01*
X069870Y008977D01*
X069870Y008824D01*
X069793Y008747D01*
X070903Y007767D02*
X071133Y007767D01*
X071210Y007690D01*
X071210Y007536D01*
X071133Y007460D01*
X070903Y007460D01*
X071056Y007460D02*
X071210Y007306D01*
X071363Y007383D02*
X071363Y007460D01*
X071440Y007536D01*
X071593Y007536D01*
X071670Y007460D01*
X071670Y007383D01*
X071593Y007306D01*
X071440Y007306D01*
X071363Y007383D01*
X071440Y007536D02*
X071363Y007613D01*
X071363Y007690D01*
X071440Y007767D01*
X071593Y007767D01*
X071670Y007690D01*
X071670Y007613D01*
X071593Y007536D01*
X071823Y007230D02*
X072130Y007230D01*
X072284Y007383D02*
X072361Y007306D01*
X072514Y007306D01*
X072591Y007383D01*
X072591Y007536D01*
X072514Y007613D01*
X072437Y007613D01*
X072284Y007536D01*
X072284Y007767D01*
X072591Y007767D01*
X070903Y007767D02*
X070903Y007306D01*
X072733Y004160D02*
X072733Y003700D01*
X073040Y003700D01*
X073193Y003777D02*
X073270Y003700D01*
X073423Y003700D01*
X073500Y003777D01*
X073500Y003930D01*
X073423Y004007D01*
X073347Y004007D01*
X073193Y003930D01*
X073193Y004160D01*
X073500Y004160D01*
X073040Y004160D02*
X072733Y004160D01*
X072733Y003930D02*
X072886Y003930D01*
X067023Y009686D02*
X067023Y009840D01*
X066946Y009916D01*
X067023Y010070D02*
X067023Y010377D01*
X067023Y010223D02*
X066563Y010223D01*
X066716Y010070D01*
X066639Y009916D02*
X066563Y009840D01*
X066563Y009686D01*
X066639Y009609D01*
X066946Y009609D01*
X067023Y009686D01*
X066946Y010530D02*
X066639Y010530D01*
X066563Y010607D01*
X066563Y010760D01*
X066639Y010837D01*
X066946Y010530D01*
X067023Y010607D01*
X067023Y010760D01*
X066946Y010837D01*
X066639Y010837D01*
X067100Y010991D02*
X067100Y011298D01*
X066946Y011451D02*
X067023Y011528D01*
X067023Y011681D01*
X066946Y011758D01*
X066793Y011758D01*
X066716Y011681D01*
X066716Y011604D01*
X066793Y011451D01*
X066563Y011451D01*
X066563Y011758D01*
X066000Y011777D02*
X065923Y011700D01*
X065770Y011700D01*
X065693Y011777D01*
X065693Y011930D02*
X065847Y012007D01*
X065923Y012007D01*
X066000Y011930D01*
X066000Y011777D01*
X065693Y011930D02*
X065693Y012160D01*
X066000Y012160D01*
X065540Y012160D02*
X065540Y011700D01*
X065540Y011930D02*
X065233Y011930D01*
X065233Y011700D02*
X065233Y012160D01*
X063251Y011251D02*
X062944Y011251D01*
X062944Y011021D01*
X063098Y011097D01*
X063174Y011097D01*
X063251Y011021D01*
X063251Y010867D01*
X063174Y010791D01*
X063021Y010791D01*
X062944Y010867D01*
X062791Y010714D02*
X062484Y010714D01*
X062330Y010867D02*
X062254Y010791D01*
X062100Y010791D01*
X062023Y010867D01*
X062023Y010944D01*
X062100Y011021D01*
X062254Y011021D01*
X062330Y010944D01*
X062330Y010867D01*
X062254Y011021D02*
X062330Y011097D01*
X062330Y011174D01*
X062254Y011251D01*
X062100Y011251D01*
X062023Y011174D01*
X062023Y011097D01*
X062100Y011021D01*
X061870Y011174D02*
X061793Y011251D01*
X061640Y011251D01*
X061563Y011174D01*
X061563Y010867D01*
X061640Y010791D01*
X061793Y010791D01*
X061870Y010867D01*
X062979Y009570D02*
X062903Y009493D01*
X062903Y009186D01*
X062979Y009109D01*
X063133Y009109D01*
X063210Y009186D01*
X063363Y009186D02*
X063440Y009109D01*
X063593Y009109D01*
X063670Y009186D01*
X063670Y009493D01*
X063593Y009570D01*
X063440Y009570D01*
X063363Y009493D01*
X063363Y009416D01*
X063440Y009340D01*
X063670Y009340D01*
X063823Y009033D02*
X064130Y009033D01*
X064284Y009186D02*
X064361Y009109D01*
X064514Y009109D01*
X064591Y009186D01*
X064591Y009340D01*
X064514Y009416D01*
X064437Y009416D01*
X064284Y009340D01*
X064284Y009570D01*
X064591Y009570D01*
X063210Y009493D02*
X063133Y009570D01*
X062979Y009570D01*
X059204Y012449D02*
X058744Y012449D01*
X058744Y012679D01*
X058821Y012756D01*
X058974Y012756D01*
X059051Y012679D01*
X059051Y012449D01*
X059051Y012602D02*
X059204Y012756D01*
X059127Y012909D02*
X058974Y012909D01*
X058974Y013140D01*
X059051Y013216D01*
X059127Y013216D01*
X059204Y013140D01*
X059204Y012986D01*
X059127Y012909D01*
X058974Y012909D02*
X058821Y013063D01*
X058744Y013216D01*
X059281Y013370D02*
X059281Y013677D01*
X059127Y013830D02*
X059204Y013907D01*
X059204Y014060D01*
X059127Y014137D01*
X058974Y014137D01*
X058897Y014060D01*
X058897Y013984D01*
X058974Y013830D01*
X058744Y013830D01*
X058744Y014137D01*
X057749Y011404D02*
X057826Y011327D01*
X057826Y011174D01*
X057749Y011097D01*
X057596Y011097D02*
X057519Y011250D01*
X057519Y011327D01*
X057596Y011404D01*
X057749Y011404D01*
X057596Y011097D02*
X057366Y011097D01*
X057366Y011404D01*
X057903Y010943D02*
X057903Y010637D01*
X057826Y010176D02*
X057749Y010176D01*
X057443Y010483D01*
X057366Y010483D01*
X057366Y010176D01*
X057443Y010023D02*
X057596Y010023D01*
X057673Y009946D01*
X057673Y009716D01*
X057673Y009869D02*
X057826Y010023D01*
X057826Y009716D02*
X057366Y009716D01*
X057366Y009946D01*
X057443Y010023D01*
X063323Y016533D02*
X063630Y016533D01*
X063784Y016686D02*
X063861Y016609D01*
X064014Y016609D01*
X064091Y016686D01*
X064091Y016840D01*
X064014Y016916D01*
X063937Y016916D01*
X063784Y016840D01*
X063784Y017070D01*
X064091Y017070D01*
X063170Y017070D02*
X062863Y017070D01*
X062863Y016840D01*
X063016Y016916D01*
X063093Y016916D01*
X063170Y016840D01*
X063170Y016686D01*
X063093Y016609D01*
X062940Y016609D01*
X062863Y016686D01*
X062710Y016686D02*
X062633Y016609D01*
X062479Y016609D01*
X062403Y016686D01*
X062403Y016993D01*
X062479Y017070D01*
X062633Y017070D01*
X062710Y016993D01*
X062174Y018291D02*
X062021Y018291D01*
X061944Y018367D01*
X061944Y018521D02*
X062098Y018597D01*
X062174Y018597D01*
X062251Y018521D01*
X062251Y018367D01*
X062174Y018291D01*
X061944Y018521D02*
X061944Y018751D01*
X062251Y018751D01*
X061791Y018214D02*
X061484Y018214D01*
X061254Y018291D02*
X061254Y018751D01*
X061023Y018521D01*
X061330Y018521D01*
X060870Y018674D02*
X060793Y018751D01*
X060640Y018751D01*
X060563Y018674D01*
X060563Y018367D01*
X060640Y018291D01*
X060793Y018291D01*
X060870Y018367D01*
X057600Y017837D02*
X057600Y017530D01*
X057446Y017377D02*
X057523Y017300D01*
X057523Y017147D01*
X057446Y017070D01*
X057293Y017070D02*
X057216Y017223D01*
X057216Y017300D01*
X057293Y017377D01*
X057446Y017377D01*
X057293Y017070D02*
X057063Y017070D01*
X057063Y017377D01*
X057139Y016916D02*
X057293Y016916D01*
X057370Y016840D01*
X057370Y016609D01*
X057523Y016609D02*
X057063Y016609D01*
X057063Y016840D01*
X057139Y016916D01*
X057370Y016763D02*
X057523Y016916D01*
X057446Y017991D02*
X057523Y018067D01*
X057523Y018221D01*
X057446Y018298D01*
X057293Y018298D01*
X057216Y018221D01*
X057216Y018144D01*
X057293Y017991D01*
X057063Y017991D01*
X057063Y018298D01*
X056822Y027687D02*
X056746Y027764D01*
X056746Y027917D01*
X056822Y027994D01*
X056899Y027994D01*
X056976Y027917D01*
X057053Y027994D01*
X057129Y027994D01*
X056976Y027917D02*
X056976Y027841D01*
X058744Y032449D02*
X058744Y032679D01*
X058821Y032756D01*
X058974Y032756D01*
X059051Y032679D01*
X059051Y032449D01*
X059204Y032449D02*
X058744Y032449D01*
X059051Y032602D02*
X059204Y032756D01*
X059127Y032909D02*
X059204Y032986D01*
X059204Y033140D01*
X059127Y033216D01*
X059051Y033216D01*
X058974Y033140D01*
X058974Y032909D01*
X059127Y032909D01*
X058974Y032909D02*
X058821Y033063D01*
X058744Y033216D01*
X059281Y033370D02*
X059281Y033677D01*
X058974Y033830D02*
X058974Y034137D01*
X059204Y034060D02*
X058744Y034060D01*
X058974Y033830D01*
X057523Y036109D02*
X057063Y036109D01*
X057063Y036340D01*
X057139Y036416D01*
X057293Y036416D01*
X057370Y036340D01*
X057370Y036109D01*
X057370Y036263D02*
X057523Y036416D01*
X057446Y036570D02*
X057523Y036647D01*
X057523Y036800D01*
X057446Y036877D01*
X057293Y036877D01*
X057216Y036800D01*
X057216Y036723D01*
X057293Y036570D01*
X057063Y036570D01*
X057063Y036877D01*
X057600Y037030D02*
X057600Y037337D01*
X057293Y037491D02*
X057293Y037798D01*
X057523Y037721D02*
X057063Y037721D01*
X057293Y037491D01*
X060063Y038367D02*
X060140Y038291D01*
X060293Y038291D01*
X060370Y038367D01*
X060523Y038521D02*
X060830Y038521D01*
X060754Y038751D02*
X060523Y038521D01*
X060370Y038674D02*
X060293Y038751D01*
X060140Y038751D01*
X060063Y038674D01*
X060063Y038367D01*
X060754Y038291D02*
X060754Y038751D01*
X060984Y038214D02*
X061291Y038214D01*
X061444Y038521D02*
X061751Y038521D01*
X061674Y038751D02*
X061444Y038521D01*
X061674Y038291D02*
X061674Y038751D01*
X061979Y037070D02*
X061903Y036993D01*
X061903Y036686D01*
X061979Y036609D01*
X062133Y036609D01*
X062210Y036686D01*
X062363Y036686D02*
X062440Y036609D01*
X062593Y036609D01*
X062670Y036686D01*
X062670Y036840D01*
X062593Y036916D01*
X062516Y036916D01*
X062363Y036840D01*
X062363Y037070D01*
X062670Y037070D01*
X062210Y036993D02*
X062133Y037070D01*
X061979Y037070D01*
X062823Y036533D02*
X063130Y036533D01*
X063284Y036840D02*
X063591Y036840D01*
X063514Y037070D02*
X063284Y036840D01*
X063514Y036609D02*
X063514Y037070D01*
X064403Y036993D02*
X064403Y036686D01*
X064479Y036609D01*
X064633Y036609D01*
X064710Y036686D01*
X064863Y036686D02*
X064863Y036609D01*
X064863Y036686D02*
X065170Y036993D01*
X065170Y037070D01*
X064863Y037070D01*
X064710Y036993D02*
X064633Y037070D01*
X064479Y037070D01*
X064403Y036993D01*
X065323Y036533D02*
X065630Y036533D01*
X065784Y036840D02*
X066091Y036840D01*
X066014Y037070D02*
X066014Y036609D01*
X065784Y036840D02*
X066014Y037070D01*
X065923Y038700D02*
X065923Y039160D01*
X065693Y038930D01*
X066000Y038930D01*
X065540Y038930D02*
X065463Y038853D01*
X065233Y038853D01*
X065233Y038700D02*
X065233Y039160D01*
X065463Y039160D01*
X065540Y039084D01*
X065540Y038930D01*
X067563Y038751D02*
X067563Y038291D01*
X067563Y038444D02*
X067793Y038444D01*
X067870Y038521D01*
X067870Y038674D01*
X067793Y038751D01*
X067563Y038751D01*
X067717Y038444D02*
X067870Y038291D01*
X068023Y038521D02*
X068330Y038521D01*
X068254Y038751D02*
X068023Y038521D01*
X068254Y038291D02*
X068254Y038751D01*
X068484Y038214D02*
X068791Y038214D01*
X068944Y038521D02*
X069251Y038521D01*
X069174Y038751D02*
X068944Y038521D01*
X069174Y038291D02*
X069174Y038751D01*
X069979Y037070D02*
X069903Y036993D01*
X069903Y036686D01*
X069979Y036609D01*
X070133Y036609D01*
X070210Y036686D01*
X070363Y036686D02*
X070440Y036609D01*
X070593Y036609D01*
X070670Y036686D01*
X070670Y036763D01*
X070593Y036840D01*
X070363Y036840D01*
X070363Y036686D01*
X070363Y036840D02*
X070516Y036993D01*
X070670Y037070D01*
X070210Y036993D02*
X070133Y037070D01*
X069979Y037070D01*
X070823Y036533D02*
X071130Y036533D01*
X071284Y036840D02*
X071514Y037070D01*
X071514Y036609D01*
X071591Y036840D02*
X071284Y036840D01*
X070130Y043033D02*
X069823Y043033D01*
X069670Y043109D02*
X069363Y043109D01*
X069210Y043109D02*
X069056Y043263D01*
X069133Y043263D02*
X068903Y043263D01*
X068903Y043109D02*
X068903Y043570D01*
X069133Y043570D01*
X069210Y043493D01*
X069210Y043340D01*
X069133Y043263D01*
X069363Y043416D02*
X069516Y043570D01*
X069516Y043109D01*
X070284Y043340D02*
X070591Y043340D01*
X070514Y043570D02*
X070284Y043340D01*
X070514Y043109D02*
X070514Y043570D01*
X067704Y043526D02*
X067704Y043679D01*
X067627Y043756D01*
X067704Y043909D02*
X067704Y044216D01*
X067704Y044063D02*
X067244Y044063D01*
X067397Y043909D01*
X067321Y043756D02*
X067244Y043679D01*
X067244Y043526D01*
X067321Y043449D01*
X067627Y043449D01*
X067704Y043526D01*
X067781Y044370D02*
X067781Y044677D01*
X067474Y044830D02*
X067474Y045137D01*
X067704Y045060D02*
X067244Y045060D01*
X067474Y044830D01*
X065674Y047291D02*
X065674Y047751D01*
X065444Y047521D01*
X065751Y047521D01*
X065291Y047214D02*
X064984Y047214D01*
X064830Y047291D02*
X064523Y047291D01*
X064830Y047597D01*
X064830Y047674D01*
X064754Y047751D01*
X064600Y047751D01*
X064523Y047674D01*
X064370Y047674D02*
X064293Y047751D01*
X064140Y047751D01*
X064063Y047674D01*
X064063Y047367D01*
X064140Y047291D01*
X064293Y047291D01*
X064370Y047367D01*
X062663Y046341D02*
X062663Y045881D01*
X062740Y046111D02*
X062433Y046111D01*
X062663Y046341D01*
X062279Y046341D02*
X061973Y045881D01*
X062091Y045840D02*
X061784Y045840D01*
X062014Y046070D01*
X062014Y045609D01*
X062279Y045881D02*
X061973Y046341D01*
X061170Y045993D02*
X061170Y045916D01*
X061093Y045840D01*
X061170Y045763D01*
X061170Y045686D01*
X061093Y045609D01*
X060940Y045609D01*
X060863Y045686D01*
X060710Y045686D02*
X060633Y045609D01*
X060479Y045609D01*
X060403Y045686D01*
X060403Y045993D01*
X060479Y046070D01*
X060633Y046070D01*
X060710Y045993D01*
X060863Y045993D02*
X060940Y046070D01*
X061093Y046070D01*
X061170Y045993D01*
X061093Y045840D02*
X061016Y045840D01*
X061323Y045533D02*
X061630Y045533D01*
X059456Y045846D02*
X059456Y046153D01*
X059456Y046306D02*
X059456Y046613D01*
X059456Y046766D02*
X058996Y046766D01*
X058996Y046997D01*
X059072Y047073D01*
X059379Y047073D01*
X059456Y046997D01*
X059456Y046766D01*
X059226Y046460D02*
X059226Y046306D01*
X058996Y046306D02*
X059456Y046306D01*
X058996Y046306D02*
X058996Y046613D01*
X058456Y046613D02*
X058456Y046306D01*
X057996Y046306D01*
X057996Y046613D01*
X057996Y046766D02*
X057996Y046997D01*
X058072Y047073D01*
X058379Y047073D01*
X058456Y046997D01*
X058456Y046766D01*
X057996Y046766D01*
X058226Y046460D02*
X058226Y046306D01*
X058456Y046153D02*
X058456Y045846D01*
X057996Y045846D01*
X057456Y045846D02*
X057456Y046153D01*
X057456Y046306D02*
X057456Y046613D01*
X057456Y046766D02*
X057456Y046997D01*
X057379Y047073D01*
X057072Y047073D01*
X056996Y046997D01*
X056996Y046766D01*
X057456Y046766D01*
X057226Y046460D02*
X057226Y046306D01*
X056996Y046306D02*
X057456Y046306D01*
X056996Y046306D02*
X056996Y046613D01*
X057149Y047227D02*
X056996Y047380D01*
X057456Y047380D01*
X057456Y047227D02*
X057456Y047534D01*
X057379Y047687D02*
X057072Y047994D01*
X057379Y047994D01*
X057456Y047917D01*
X057456Y047764D01*
X057379Y047687D01*
X057072Y047687D01*
X056996Y047764D01*
X056996Y047917D01*
X057072Y047994D01*
X057996Y047841D02*
X058456Y047841D01*
X058456Y047994D02*
X058456Y047687D01*
X058456Y047534D02*
X058456Y047227D01*
X058456Y047380D02*
X057996Y047380D01*
X058149Y047227D01*
X058149Y047687D02*
X057996Y047841D01*
X058996Y047917D02*
X058996Y047764D01*
X059072Y047687D01*
X058996Y047917D02*
X059072Y047994D01*
X059149Y047994D01*
X059456Y047687D01*
X059456Y047994D01*
X059456Y047534D02*
X059456Y047227D01*
X059456Y047380D02*
X058996Y047380D01*
X059149Y047227D01*
X058996Y045846D02*
X059456Y045846D01*
X057456Y045846D02*
X056996Y045846D01*
X066775Y058700D02*
X066775Y059007D01*
X066928Y059160D01*
X067082Y059007D01*
X067082Y058700D01*
X067235Y058700D02*
X067389Y058700D01*
X067312Y058700D02*
X067312Y059160D01*
X067235Y059160D01*
X067082Y058930D02*
X066775Y058930D01*
X066737Y059450D02*
X066660Y059527D01*
X066660Y059834D01*
X066583Y059757D02*
X066737Y059757D01*
X066890Y059680D02*
X066967Y059757D01*
X067120Y059757D01*
X067197Y059680D01*
X067197Y059603D01*
X066890Y059603D01*
X066890Y059527D02*
X066890Y059680D01*
X066890Y059527D02*
X066967Y059450D01*
X067120Y059450D01*
X067350Y059450D02*
X067350Y059757D01*
X067350Y059603D02*
X067504Y059757D01*
X067581Y059757D01*
X067734Y059910D02*
X067811Y059910D01*
X067811Y059450D01*
X067734Y059450D02*
X067888Y059450D01*
X068041Y059450D02*
X068194Y059450D01*
X068118Y059450D02*
X068118Y059757D01*
X068041Y059757D01*
X068118Y059910D02*
X068118Y059987D01*
X068194Y060200D02*
X068118Y060277D01*
X068118Y060430D01*
X068194Y060507D01*
X068425Y060507D01*
X068425Y060200D02*
X068194Y060200D01*
X067964Y060200D02*
X067811Y060200D01*
X067888Y060200D02*
X067888Y060507D01*
X067811Y060507D01*
X067657Y060507D02*
X067581Y060507D01*
X067427Y060353D01*
X067427Y060200D02*
X067427Y060507D01*
X067274Y060660D02*
X066967Y060660D01*
X066967Y060200D01*
X067274Y060200D01*
X067120Y060430D02*
X066967Y060430D01*
X067312Y060950D02*
X067619Y061257D01*
X067619Y061334D01*
X067542Y061410D01*
X067389Y061410D01*
X067312Y061334D01*
X067312Y060950D02*
X067619Y060950D01*
X067772Y061027D02*
X068079Y061334D01*
X068079Y061027D01*
X068003Y060950D01*
X067849Y060950D01*
X067772Y061027D01*
X067772Y061334D01*
X067849Y061410D01*
X068003Y061410D01*
X068079Y061334D01*
X068233Y061257D02*
X068386Y061410D01*
X068386Y060950D01*
X068233Y060950D02*
X068540Y060950D01*
X068693Y061180D02*
X069000Y061180D01*
X069154Y061027D02*
X069461Y061334D01*
X069461Y061027D01*
X069384Y060950D01*
X069230Y060950D01*
X069154Y061027D01*
X069154Y061334D01*
X069230Y061410D01*
X069384Y061410D01*
X069461Y061334D01*
X069614Y061180D02*
X069921Y061180D01*
X070074Y061334D02*
X070151Y061410D01*
X070305Y061410D01*
X070381Y061334D01*
X070381Y061257D01*
X070074Y060950D01*
X070381Y060950D01*
X070535Y061027D02*
X070612Y060950D01*
X070765Y060950D01*
X070842Y061027D01*
X070842Y061103D01*
X070765Y061180D01*
X070688Y061180D01*
X070765Y061180D02*
X070842Y061257D01*
X070842Y061334D01*
X070765Y061410D01*
X070612Y061410D01*
X070535Y061334D01*
X070650Y060737D02*
X070650Y060660D01*
X070650Y060507D02*
X070650Y060200D01*
X070573Y060200D02*
X070727Y060200D01*
X070880Y060200D02*
X071110Y060200D01*
X071187Y060277D01*
X071110Y060353D01*
X070957Y060353D01*
X070880Y060430D01*
X070957Y060507D01*
X071187Y060507D01*
X070650Y060507D02*
X070573Y060507D01*
X070343Y060660D02*
X070343Y060200D01*
X070266Y060200D02*
X070420Y060200D01*
X070113Y060200D02*
X069959Y060200D01*
X070036Y060200D02*
X070036Y060660D01*
X069959Y060660D01*
X069806Y060507D02*
X069806Y060200D01*
X069576Y060200D01*
X069499Y060277D01*
X069499Y060507D01*
X069345Y060660D02*
X069345Y060200D01*
X069039Y060200D02*
X069039Y060660D01*
X069192Y060507D01*
X069345Y060660D01*
X068923Y060950D02*
X068923Y061410D01*
X068693Y061180D01*
X068847Y061700D02*
X069000Y062007D01*
X068693Y062007D02*
X068847Y061700D01*
X068540Y061853D02*
X068233Y061853D01*
X068233Y061777D02*
X068233Y061930D01*
X068310Y062007D01*
X068463Y062007D01*
X068540Y061930D01*
X068540Y061853D01*
X068463Y061700D02*
X068310Y061700D01*
X068233Y061777D01*
X068079Y061700D02*
X067926Y061853D01*
X068003Y061853D02*
X067772Y061853D01*
X067772Y061700D02*
X067772Y062160D01*
X068003Y062160D01*
X068079Y062084D01*
X068079Y061930D01*
X068003Y061853D01*
X068003Y062450D02*
X068003Y062757D01*
X068079Y062757D01*
X068156Y062680D01*
X068233Y062757D01*
X068310Y062680D01*
X068310Y062450D01*
X068156Y062450D02*
X068156Y062680D01*
X067849Y062757D02*
X067772Y062757D01*
X067619Y062603D01*
X067619Y062450D02*
X067619Y062757D01*
X067466Y062757D02*
X067466Y062450D01*
X067466Y062680D02*
X067159Y062680D01*
X067159Y062757D02*
X067312Y062910D01*
X067466Y062757D01*
X067159Y062757D02*
X067159Y062450D01*
X067082Y063200D02*
X067159Y063277D01*
X067082Y063353D01*
X066928Y063353D01*
X066852Y063430D01*
X066928Y063507D01*
X067159Y063507D01*
X067082Y063200D02*
X066852Y063200D01*
X066698Y063507D02*
X066621Y063507D01*
X066468Y063353D01*
X066468Y063200D02*
X066468Y063507D01*
X066315Y063430D02*
X066315Y063200D01*
X066084Y063200D01*
X066008Y063277D01*
X066084Y063353D01*
X066315Y063353D01*
X066315Y063430D02*
X066238Y063507D01*
X066084Y063507D01*
X065854Y063660D02*
X065854Y063200D01*
X065547Y063200D02*
X065547Y063660D01*
X065701Y063507D01*
X065854Y063660D01*
X065923Y064700D02*
X065770Y064700D01*
X065693Y064777D01*
X065693Y064930D01*
X065923Y064930D01*
X066000Y064853D01*
X066000Y064777D01*
X065923Y064700D01*
X065984Y064714D02*
X066291Y064714D01*
X066444Y064867D02*
X066521Y064791D01*
X066674Y064791D01*
X066751Y064867D01*
X066751Y064944D01*
X066674Y065021D01*
X066444Y065021D01*
X066444Y064867D01*
X066444Y065021D02*
X066598Y065174D01*
X066751Y065251D01*
X066000Y065160D02*
X065847Y065084D01*
X065693Y064930D01*
X065677Y064791D02*
X065677Y065251D01*
X065523Y065097D01*
X065540Y065084D02*
X065540Y064930D01*
X065463Y064853D01*
X065233Y064853D01*
X065293Y064791D02*
X065370Y064867D01*
X065293Y064791D02*
X065140Y064791D01*
X065063Y064867D01*
X065063Y065174D01*
X065140Y065251D01*
X065293Y065251D01*
X065370Y065174D01*
X065463Y065160D02*
X065540Y065084D01*
X065463Y065160D02*
X065233Y065160D01*
X065233Y064700D01*
X065523Y064791D02*
X065830Y064791D01*
X067772Y063660D02*
X067772Y063200D01*
X067772Y063353D02*
X068003Y063353D01*
X068079Y063430D01*
X068079Y063584D01*
X068003Y063660D01*
X067772Y063660D01*
X067926Y063353D02*
X068079Y063200D01*
X068233Y063277D02*
X068233Y063430D01*
X068310Y063507D01*
X068463Y063507D01*
X068540Y063430D01*
X068540Y063277D01*
X068463Y063200D01*
X068310Y063200D01*
X068233Y063277D01*
X068693Y063507D02*
X068847Y063200D01*
X069000Y063507D01*
X069154Y063430D02*
X069230Y063507D01*
X069384Y063507D01*
X069461Y063430D01*
X069461Y063353D01*
X069154Y063353D01*
X069154Y063277D02*
X069154Y063430D01*
X069154Y063277D02*
X069230Y063200D01*
X069384Y063200D01*
X069614Y063200D02*
X069614Y063507D01*
X069767Y063507D02*
X069614Y063353D01*
X069767Y063507D02*
X069844Y063507D01*
X070458Y063584D02*
X070535Y063660D01*
X070688Y063660D01*
X070765Y063584D01*
X070765Y063507D01*
X070458Y063200D01*
X070765Y063200D01*
X070918Y063277D02*
X071225Y063584D01*
X071225Y063277D01*
X071149Y063200D01*
X070995Y063200D01*
X070918Y063277D01*
X070918Y063584D01*
X070995Y063660D01*
X071149Y063660D01*
X071225Y063584D01*
X071379Y063507D02*
X071532Y063660D01*
X071532Y063200D01*
X071379Y063200D02*
X071686Y063200D01*
X071839Y063430D02*
X072146Y063430D01*
X072069Y063200D02*
X072069Y063660D01*
X071839Y063430D01*
X070995Y062910D02*
X070995Y062450D01*
X070765Y062450D01*
X070688Y062527D01*
X070688Y062680D01*
X070765Y062757D01*
X070995Y062757D01*
X070535Y062757D02*
X070458Y062757D01*
X070305Y062603D01*
X070305Y062450D02*
X070305Y062757D01*
X070151Y062680D02*
X070151Y062450D01*
X069921Y062450D01*
X069844Y062527D01*
X069921Y062603D01*
X070151Y062603D01*
X070151Y062680D02*
X070074Y062757D01*
X069921Y062757D01*
X069691Y062680D02*
X069691Y062527D01*
X069614Y062450D01*
X069461Y062450D01*
X069384Y062527D01*
X069384Y062680D01*
X069461Y062757D01*
X069614Y062757D01*
X069691Y062680D01*
X069230Y062603D02*
X069230Y062527D01*
X069154Y062450D01*
X068923Y062450D01*
X068923Y062910D01*
X069154Y062910D01*
X069230Y062834D01*
X069230Y062757D01*
X069154Y062680D01*
X068923Y062680D01*
X069154Y062680D02*
X069230Y062603D01*
X069767Y062160D02*
X069614Y062007D01*
X069614Y061700D01*
X069614Y061930D02*
X069921Y061930D01*
X069921Y062007D02*
X069921Y061700D01*
X069844Y061410D02*
X069614Y061180D01*
X069844Y060950D02*
X069844Y061410D01*
X069921Y062007D02*
X069767Y062160D01*
X070266Y060660D02*
X070343Y060660D01*
X069959Y059910D02*
X069806Y059910D01*
X069729Y059834D01*
X069729Y059527D01*
X069806Y059450D01*
X069959Y059450D01*
X070036Y059527D01*
X070190Y059527D02*
X070266Y059450D01*
X070420Y059450D01*
X070496Y059527D01*
X070496Y059680D01*
X070420Y059757D01*
X070266Y059757D01*
X070190Y059680D01*
X070190Y059527D01*
X070036Y059834D02*
X069959Y059910D01*
X070650Y059680D02*
X070803Y059680D01*
X070957Y059680D02*
X071110Y059680D01*
X071264Y059680D02*
X071264Y059527D01*
X071340Y059450D01*
X071494Y059450D01*
X071571Y059603D02*
X071264Y059603D01*
X071264Y059680D02*
X071340Y059757D01*
X071494Y059757D01*
X071571Y059680D01*
X071571Y059603D01*
X071724Y059527D02*
X071724Y059757D01*
X071724Y059527D02*
X071801Y059450D01*
X072031Y059450D01*
X072031Y059373D02*
X071954Y059297D01*
X071878Y059297D01*
X072031Y059373D02*
X072031Y059757D01*
X071379Y059160D02*
X071302Y059084D01*
X071302Y058700D01*
X071225Y058930D02*
X071379Y058930D01*
X071072Y058930D02*
X070918Y058930D01*
X070995Y059084D02*
X071072Y059160D01*
X070995Y059084D02*
X070995Y058700D01*
X070765Y058700D02*
X070612Y058700D01*
X070688Y058700D02*
X070688Y059007D01*
X070612Y059007D01*
X070688Y059160D02*
X070688Y059237D01*
X070727Y059450D02*
X070727Y059834D01*
X070803Y059910D01*
X071034Y059834D02*
X071110Y059910D01*
X071034Y059834D02*
X071034Y059450D01*
X070381Y059160D02*
X070381Y058700D01*
X070305Y058700D02*
X070458Y058700D01*
X070151Y058700D02*
X069921Y058700D01*
X069844Y058777D01*
X069844Y059007D01*
X069691Y058930D02*
X069691Y058700D01*
X069461Y058700D01*
X069384Y058777D01*
X069461Y058853D01*
X069691Y058853D01*
X069691Y058930D02*
X069614Y059007D01*
X069461Y059007D01*
X069230Y059007D02*
X069154Y058930D01*
X068923Y058930D01*
X068923Y058700D02*
X068923Y059160D01*
X069154Y059160D01*
X069230Y059084D01*
X069230Y059007D01*
X069154Y058930D02*
X069230Y058853D01*
X069230Y058777D01*
X069154Y058700D01*
X068923Y058700D01*
X068962Y059297D02*
X069039Y059297D01*
X069115Y059373D01*
X069115Y059757D01*
X068885Y059757D01*
X068808Y059680D01*
X068808Y059527D01*
X068885Y059450D01*
X069115Y059450D01*
X068655Y059450D02*
X068655Y059680D01*
X068578Y059757D01*
X068348Y059757D01*
X068348Y059450D01*
X068310Y059007D02*
X068079Y059007D01*
X068003Y058930D01*
X068003Y058777D01*
X068079Y058700D01*
X068310Y058700D01*
X067849Y058853D02*
X067542Y058853D01*
X067542Y058777D02*
X067542Y058930D01*
X067619Y059007D01*
X067772Y059007D01*
X067849Y058930D01*
X067849Y058853D01*
X067772Y058700D02*
X067619Y058700D01*
X067542Y058777D01*
X066430Y059527D02*
X066430Y059603D01*
X066353Y059680D01*
X066199Y059680D01*
X066123Y059757D01*
X066123Y059834D01*
X066199Y059910D01*
X066353Y059910D01*
X066430Y059834D01*
X066430Y059527D02*
X066353Y059450D01*
X066199Y059450D01*
X066123Y059527D01*
X067888Y060660D02*
X067888Y060737D01*
X070151Y059007D02*
X070151Y058623D01*
X070074Y058547D01*
X069998Y058547D01*
X070305Y059160D02*
X070381Y059160D01*
X071244Y069949D02*
X071244Y070179D01*
X071321Y070256D01*
X071474Y070256D01*
X071551Y070179D01*
X071551Y069949D01*
X071704Y069949D02*
X071244Y069949D01*
X071551Y070102D02*
X071704Y070256D01*
X071704Y070409D02*
X071704Y070716D01*
X071704Y070563D02*
X071244Y070563D01*
X071397Y070409D01*
X071781Y070870D02*
X071781Y071177D01*
X071627Y071330D02*
X071704Y071407D01*
X071704Y071560D01*
X071627Y071637D01*
X071551Y071637D01*
X071474Y071560D01*
X071474Y071330D01*
X071627Y071330D01*
X071474Y071330D02*
X071321Y071484D01*
X071244Y071637D01*
X068100Y071530D02*
X068100Y071837D01*
X067946Y071991D02*
X068023Y072067D01*
X068023Y072221D01*
X067946Y072298D01*
X067870Y072298D01*
X067793Y072221D01*
X067793Y071991D01*
X067946Y071991D01*
X067793Y071991D02*
X067639Y072144D01*
X067563Y072298D01*
X067563Y071377D02*
X067563Y071070D01*
X067793Y071070D01*
X067716Y071223D01*
X067716Y071300D01*
X067793Y071377D01*
X067946Y071377D01*
X068023Y071300D01*
X068023Y071147D01*
X067946Y071070D01*
X067946Y070916D02*
X068023Y070840D01*
X068023Y070686D01*
X067946Y070609D01*
X067639Y070609D01*
X067563Y070686D01*
X067563Y070840D01*
X067639Y070916D01*
X066023Y070840D02*
X066023Y070686D01*
X065946Y070609D01*
X065639Y070609D01*
X065563Y070686D01*
X065563Y070840D01*
X065639Y070916D01*
X065793Y071070D02*
X065793Y071377D01*
X066023Y071300D02*
X065563Y071300D01*
X065793Y071070D01*
X065946Y070916D02*
X066023Y070840D01*
X066100Y071530D02*
X066100Y071837D01*
X065946Y071991D02*
X066023Y072067D01*
X066023Y072221D01*
X065946Y072298D01*
X065870Y072298D01*
X065793Y072221D01*
X065793Y071991D01*
X065946Y071991D01*
X065793Y071991D02*
X065639Y072144D01*
X065563Y072298D01*
X064591Y072263D02*
X064514Y072340D01*
X064284Y072340D01*
X064284Y072186D01*
X064361Y072109D01*
X064514Y072109D01*
X064591Y072186D01*
X064591Y072263D01*
X064437Y072493D02*
X064284Y072340D01*
X064437Y072493D02*
X064591Y072570D01*
X064130Y072033D02*
X063823Y072033D01*
X063670Y072109D02*
X063363Y072109D01*
X063670Y072416D01*
X063670Y072493D01*
X063593Y072570D01*
X063440Y072570D01*
X063363Y072493D01*
X063210Y072493D02*
X063133Y072570D01*
X062979Y072570D01*
X062903Y072493D01*
X062903Y072186D01*
X062979Y072109D01*
X063133Y072109D01*
X063210Y072186D01*
X062740Y072458D02*
X062740Y072535D01*
X062663Y072611D01*
X062433Y072611D01*
X062433Y072458D01*
X062510Y072381D01*
X062663Y072381D01*
X062740Y072458D01*
X062586Y072765D02*
X062433Y072611D01*
X062586Y072765D02*
X062740Y072841D01*
X062279Y072841D02*
X061973Y072381D01*
X062279Y072381D02*
X061973Y072841D01*
X062100Y073791D02*
X062023Y073867D01*
X062100Y073791D02*
X062254Y073791D01*
X062330Y073867D01*
X062330Y073944D01*
X062254Y074021D01*
X062177Y074021D01*
X062254Y074021D02*
X062330Y074097D01*
X062330Y074174D01*
X062254Y074251D01*
X062100Y074251D01*
X062023Y074174D01*
X061870Y074174D02*
X061793Y074251D01*
X061640Y074251D01*
X061563Y074174D01*
X061563Y073867D01*
X061640Y073791D01*
X061793Y073791D01*
X061870Y073867D01*
X062484Y073714D02*
X062791Y073714D01*
X062944Y073867D02*
X063021Y073791D01*
X063174Y073791D01*
X063251Y073867D01*
X063251Y073944D01*
X063174Y074021D01*
X062944Y074021D01*
X062944Y073867D01*
X062944Y074021D02*
X063098Y074174D01*
X063251Y074251D01*
X059206Y073917D02*
X059206Y073764D01*
X059129Y073687D01*
X059053Y073687D01*
X058976Y073764D01*
X058976Y073917D01*
X059053Y073994D01*
X059129Y073994D01*
X059206Y073917D01*
X058976Y073917D02*
X058899Y073994D01*
X058822Y073994D01*
X058746Y073917D01*
X058746Y073764D01*
X058822Y073687D01*
X058899Y073687D01*
X058976Y073764D01*
X059206Y073534D02*
X059206Y073227D01*
X059206Y073380D02*
X058746Y073380D01*
X058899Y073227D01*
X058822Y073073D02*
X058746Y072997D01*
X058746Y072766D01*
X059206Y072766D01*
X059206Y072997D01*
X059129Y073073D01*
X058822Y073073D01*
X058746Y072613D02*
X058746Y072306D01*
X059206Y072306D01*
X059206Y072613D01*
X058976Y072460D02*
X058976Y072306D01*
X059206Y072153D02*
X059206Y071846D01*
X058746Y071846D01*
X058206Y071846D02*
X058206Y072153D01*
X058206Y072306D02*
X058206Y072613D01*
X058206Y072766D02*
X058206Y072997D01*
X058129Y073073D01*
X057822Y073073D01*
X057746Y072997D01*
X057746Y072766D01*
X058206Y072766D01*
X057976Y072460D02*
X057976Y072306D01*
X057746Y072306D02*
X058206Y072306D01*
X057746Y072306D02*
X057746Y072613D01*
X057206Y072613D02*
X057206Y072306D01*
X056746Y072306D01*
X056746Y072613D01*
X056746Y072766D02*
X056746Y072997D01*
X056822Y073073D01*
X057129Y073073D01*
X057206Y072997D01*
X057206Y072766D01*
X056746Y072766D01*
X056976Y072460D02*
X056976Y072306D01*
X057206Y072153D02*
X057206Y071846D01*
X056746Y071846D01*
X057746Y071846D02*
X058206Y071846D01*
X058206Y073227D02*
X058206Y073534D01*
X058206Y073687D02*
X058129Y073687D01*
X057822Y073994D01*
X057746Y073994D01*
X057746Y073687D01*
X057746Y073380D02*
X058206Y073380D01*
X057899Y073227D02*
X057746Y073380D01*
X057206Y073380D02*
X056746Y073380D01*
X056899Y073227D01*
X057206Y073227D02*
X057206Y073534D01*
X057129Y073687D02*
X057206Y073764D01*
X057206Y073917D01*
X057129Y073994D01*
X057053Y073994D01*
X056976Y073917D01*
X056976Y073687D01*
X057129Y073687D01*
X056976Y073687D02*
X056822Y073841D01*
X056746Y073994D01*
X032844Y037160D02*
X032614Y037160D01*
X032614Y036700D01*
X032844Y036700D01*
X032921Y036777D01*
X032921Y037084D01*
X032844Y037160D01*
X032461Y037160D02*
X032461Y036700D01*
X032154Y036700D02*
X032154Y037160D01*
X032307Y037007D01*
X032461Y037160D01*
X030706Y036994D02*
X030706Y036687D01*
X030706Y036534D02*
X030706Y036227D01*
X030399Y036534D01*
X030322Y036534D01*
X030246Y036457D01*
X030246Y036304D01*
X030322Y036227D01*
X030322Y036073D02*
X030246Y035997D01*
X030246Y035766D01*
X030706Y035766D01*
X030706Y035997D01*
X030629Y036073D01*
X030322Y036073D01*
X030246Y035613D02*
X030246Y035306D01*
X030706Y035306D01*
X030706Y035613D01*
X030476Y035460D02*
X030476Y035306D01*
X030706Y035153D02*
X030706Y034846D01*
X030246Y034846D01*
X030399Y036687D02*
X030246Y036841D01*
X030706Y036841D01*
D12*
X032134Y037380D02*
X032134Y038180D01*
X032178Y038182D01*
X032221Y038188D01*
X032263Y038197D01*
X032305Y038210D01*
X032345Y038227D01*
X032384Y038247D01*
X032421Y038270D01*
X032455Y038297D01*
X032488Y038326D01*
X032517Y038359D01*
X032544Y038393D01*
X032567Y038430D01*
X032587Y038469D01*
X032604Y038509D01*
X032617Y038551D01*
X032626Y038593D01*
X032632Y038636D01*
X032634Y038680D01*
X032632Y038724D01*
X032626Y038767D01*
X032617Y038809D01*
X032604Y038851D01*
X032587Y038891D01*
X032567Y038930D01*
X032544Y038967D01*
X032517Y039001D01*
X032488Y039034D01*
X032455Y039063D01*
X032421Y039090D01*
X032384Y039113D01*
X032345Y039133D01*
X032305Y039150D01*
X032263Y039163D01*
X032221Y039172D01*
X032178Y039178D01*
X032134Y039180D01*
X032134Y039980D01*
X046134Y039980D01*
X046134Y037380D01*
X032134Y037380D01*
X031634Y041880D02*
X031634Y042680D01*
X031678Y042682D01*
X031721Y042688D01*
X031763Y042697D01*
X031805Y042710D01*
X031845Y042727D01*
X031884Y042747D01*
X031921Y042770D01*
X031955Y042797D01*
X031988Y042826D01*
X032017Y042859D01*
X032044Y042893D01*
X032067Y042930D01*
X032087Y042969D01*
X032104Y043009D01*
X032117Y043051D01*
X032126Y043093D01*
X032132Y043136D01*
X032134Y043180D01*
X032132Y043224D01*
X032126Y043267D01*
X032117Y043309D01*
X032104Y043351D01*
X032087Y043391D01*
X032067Y043430D01*
X032044Y043467D01*
X032017Y043501D01*
X031988Y043534D01*
X031955Y043563D01*
X031921Y043590D01*
X031884Y043613D01*
X031845Y043633D01*
X031805Y043650D01*
X031763Y043663D01*
X031721Y043672D01*
X031678Y043678D01*
X031634Y043680D01*
X031634Y044480D01*
X035634Y044480D01*
X035634Y041880D01*
X031634Y041880D01*
X040564Y048280D02*
X040534Y050180D01*
X044734Y050180D01*
X044704Y048280D01*
X040564Y048280D01*
X040534Y049780D02*
X044734Y049780D01*
X058134Y042480D02*
X058134Y039880D01*
X072134Y039880D01*
X072134Y040680D01*
X072090Y040682D01*
X072047Y040688D01*
X072005Y040697D01*
X071963Y040710D01*
X071923Y040727D01*
X071884Y040747D01*
X071847Y040770D01*
X071813Y040797D01*
X071780Y040826D01*
X071751Y040859D01*
X071724Y040893D01*
X071701Y040930D01*
X071681Y040969D01*
X071664Y041009D01*
X071651Y041051D01*
X071642Y041093D01*
X071636Y041136D01*
X071634Y041180D01*
X071636Y041224D01*
X071642Y041267D01*
X071651Y041309D01*
X071664Y041351D01*
X071681Y041391D01*
X071701Y041430D01*
X071724Y041467D01*
X071751Y041501D01*
X071780Y041534D01*
X071813Y041563D01*
X071847Y041590D01*
X071884Y041613D01*
X071923Y041633D01*
X071963Y041650D01*
X072005Y041663D01*
X072047Y041672D01*
X072090Y041678D01*
X072134Y041680D01*
X072134Y042480D01*
X058134Y042480D01*
X060134Y035480D02*
X072134Y035480D01*
X072134Y034680D01*
X072090Y034678D01*
X072047Y034672D01*
X072005Y034663D01*
X071963Y034650D01*
X071923Y034633D01*
X071884Y034613D01*
X071847Y034590D01*
X071813Y034563D01*
X071780Y034534D01*
X071751Y034501D01*
X071724Y034467D01*
X071701Y034430D01*
X071681Y034391D01*
X071664Y034351D01*
X071651Y034309D01*
X071642Y034267D01*
X071636Y034224D01*
X071634Y034180D01*
X071636Y034136D01*
X071642Y034093D01*
X071651Y034051D01*
X071664Y034009D01*
X071681Y033969D01*
X071701Y033930D01*
X071724Y033893D01*
X071751Y033859D01*
X071780Y033826D01*
X071813Y033797D01*
X071847Y033770D01*
X071884Y033747D01*
X071923Y033727D01*
X071963Y033710D01*
X072005Y033697D01*
X072047Y033688D01*
X072090Y033682D01*
X072134Y033680D01*
X072134Y032880D01*
X060134Y032880D01*
X060134Y035480D01*
X058134Y022480D02*
X072134Y022480D01*
X072134Y021680D01*
X072090Y021678D01*
X072047Y021672D01*
X072005Y021663D01*
X071963Y021650D01*
X071923Y021633D01*
X071884Y021613D01*
X071847Y021590D01*
X071813Y021563D01*
X071780Y021534D01*
X071751Y021501D01*
X071724Y021467D01*
X071701Y021430D01*
X071681Y021391D01*
X071664Y021351D01*
X071651Y021309D01*
X071642Y021267D01*
X071636Y021224D01*
X071634Y021180D01*
X071636Y021136D01*
X071642Y021093D01*
X071651Y021051D01*
X071664Y021009D01*
X071681Y020969D01*
X071701Y020930D01*
X071724Y020893D01*
X071751Y020859D01*
X071780Y020826D01*
X071813Y020797D01*
X071847Y020770D01*
X071884Y020747D01*
X071923Y020727D01*
X071963Y020710D01*
X072005Y020697D01*
X072047Y020688D01*
X072090Y020682D01*
X072134Y020680D01*
X072134Y019880D01*
X058134Y019880D01*
X058134Y022480D01*
X060134Y015480D02*
X072134Y015480D01*
X072134Y014680D01*
X072090Y014678D01*
X072047Y014672D01*
X072005Y014663D01*
X071963Y014650D01*
X071923Y014633D01*
X071884Y014613D01*
X071847Y014590D01*
X071813Y014563D01*
X071780Y014534D01*
X071751Y014501D01*
X071724Y014467D01*
X071701Y014430D01*
X071681Y014391D01*
X071664Y014351D01*
X071651Y014309D01*
X071642Y014267D01*
X071636Y014224D01*
X071634Y014180D01*
X071636Y014136D01*
X071642Y014093D01*
X071651Y014051D01*
X071664Y014009D01*
X071681Y013969D01*
X071701Y013930D01*
X071724Y013893D01*
X071751Y013859D01*
X071780Y013826D01*
X071813Y013797D01*
X071847Y013770D01*
X071884Y013747D01*
X071923Y013727D01*
X071963Y013710D01*
X072005Y013697D01*
X072047Y013688D01*
X072090Y013682D01*
X072134Y013680D01*
X072134Y012880D01*
X060134Y012880D01*
X060134Y015480D01*
X018134Y021880D02*
X006134Y021880D01*
X006134Y024480D01*
X018134Y024480D01*
X018134Y023680D01*
X018090Y023678D01*
X018047Y023672D01*
X018005Y023663D01*
X017963Y023650D01*
X017923Y023633D01*
X017884Y023613D01*
X017847Y023590D01*
X017813Y023563D01*
X017780Y023534D01*
X017751Y023501D01*
X017724Y023467D01*
X017701Y023430D01*
X017681Y023391D01*
X017664Y023351D01*
X017651Y023309D01*
X017642Y023267D01*
X017636Y023224D01*
X017634Y023180D01*
X017636Y023136D01*
X017642Y023093D01*
X017651Y023051D01*
X017664Y023009D01*
X017681Y022969D01*
X017701Y022930D01*
X017724Y022893D01*
X017751Y022859D01*
X017780Y022826D01*
X017813Y022797D01*
X017847Y022770D01*
X017884Y022747D01*
X017923Y022727D01*
X017963Y022710D01*
X018005Y022697D01*
X018047Y022688D01*
X018090Y022682D01*
X018134Y022680D01*
X018134Y021880D01*
X018134Y028880D02*
X004134Y028880D01*
X004134Y031480D01*
X018134Y031480D01*
X018134Y030680D01*
X018090Y030678D01*
X018047Y030672D01*
X018005Y030663D01*
X017963Y030650D01*
X017923Y030633D01*
X017884Y030613D01*
X017847Y030590D01*
X017813Y030563D01*
X017780Y030534D01*
X017751Y030501D01*
X017724Y030467D01*
X017701Y030430D01*
X017681Y030391D01*
X017664Y030351D01*
X017651Y030309D01*
X017642Y030267D01*
X017636Y030224D01*
X017634Y030180D01*
X017636Y030136D01*
X017642Y030093D01*
X017651Y030051D01*
X017664Y030009D01*
X017681Y029969D01*
X017701Y029930D01*
X017724Y029893D01*
X017751Y029859D01*
X017780Y029826D01*
X017813Y029797D01*
X017847Y029770D01*
X017884Y029747D01*
X017923Y029727D01*
X017963Y029710D01*
X018005Y029697D01*
X018047Y029688D01*
X018090Y029682D01*
X018134Y029680D01*
X018134Y028880D01*
X018134Y041880D02*
X006134Y041880D01*
X006134Y044480D01*
X018134Y044480D01*
X018134Y043680D01*
X018090Y043678D01*
X018047Y043672D01*
X018005Y043663D01*
X017963Y043650D01*
X017923Y043633D01*
X017884Y043613D01*
X017847Y043590D01*
X017813Y043563D01*
X017780Y043534D01*
X017751Y043501D01*
X017724Y043467D01*
X017701Y043430D01*
X017681Y043391D01*
X017664Y043351D01*
X017651Y043309D01*
X017642Y043267D01*
X017636Y043224D01*
X017634Y043180D01*
X017636Y043136D01*
X017642Y043093D01*
X017651Y043051D01*
X017664Y043009D01*
X017681Y042969D01*
X017701Y042930D01*
X017724Y042893D01*
X017751Y042859D01*
X017780Y042826D01*
X017813Y042797D01*
X017847Y042770D01*
X017884Y042747D01*
X017923Y042727D01*
X017963Y042710D01*
X018005Y042697D01*
X018047Y042688D01*
X018090Y042682D01*
X018134Y042680D01*
X018134Y041880D01*
X018134Y048380D02*
X004134Y048380D01*
X004134Y050980D01*
X018134Y050980D01*
X018134Y050180D01*
X018090Y050178D01*
X018047Y050172D01*
X018005Y050163D01*
X017963Y050150D01*
X017923Y050133D01*
X017884Y050113D01*
X017847Y050090D01*
X017813Y050063D01*
X017780Y050034D01*
X017751Y050001D01*
X017724Y049967D01*
X017701Y049930D01*
X017681Y049891D01*
X017664Y049851D01*
X017651Y049809D01*
X017642Y049767D01*
X017636Y049724D01*
X017634Y049680D01*
X017636Y049636D01*
X017642Y049593D01*
X017651Y049551D01*
X017664Y049509D01*
X017681Y049469D01*
X017701Y049430D01*
X017724Y049393D01*
X017751Y049359D01*
X017780Y049326D01*
X017813Y049297D01*
X017847Y049270D01*
X017884Y049247D01*
X017923Y049227D01*
X017963Y049210D01*
X018005Y049197D01*
X018047Y049188D01*
X018090Y049182D01*
X018134Y049180D01*
X018134Y048380D01*
X018134Y060380D02*
X006134Y060380D01*
X006134Y062980D01*
X018134Y062980D01*
X018134Y062180D01*
X018090Y062178D01*
X018047Y062172D01*
X018005Y062163D01*
X017963Y062150D01*
X017923Y062133D01*
X017884Y062113D01*
X017847Y062090D01*
X017813Y062063D01*
X017780Y062034D01*
X017751Y062001D01*
X017724Y061967D01*
X017701Y061930D01*
X017681Y061891D01*
X017664Y061851D01*
X017651Y061809D01*
X017642Y061767D01*
X017636Y061724D01*
X017634Y061680D01*
X017636Y061636D01*
X017642Y061593D01*
X017651Y061551D01*
X017664Y061509D01*
X017681Y061469D01*
X017701Y061430D01*
X017724Y061393D01*
X017751Y061359D01*
X017780Y061326D01*
X017813Y061297D01*
X017847Y061270D01*
X017884Y061247D01*
X017923Y061227D01*
X017963Y061210D01*
X018005Y061197D01*
X018047Y061188D01*
X018090Y061182D01*
X018134Y061180D01*
X018134Y060380D01*
X018134Y066880D02*
X004134Y066880D01*
X004134Y069480D01*
X018134Y069480D01*
X018134Y068680D01*
X018090Y068678D01*
X018047Y068672D01*
X018005Y068663D01*
X017963Y068650D01*
X017923Y068633D01*
X017884Y068613D01*
X017847Y068590D01*
X017813Y068563D01*
X017780Y068534D01*
X017751Y068501D01*
X017724Y068467D01*
X017701Y068430D01*
X017681Y068391D01*
X017664Y068351D01*
X017651Y068309D01*
X017642Y068267D01*
X017636Y068224D01*
X017634Y068180D01*
X017636Y068136D01*
X017642Y068093D01*
X017651Y068051D01*
X017664Y068009D01*
X017681Y067969D01*
X017701Y067930D01*
X017724Y067893D01*
X017751Y067859D01*
X017780Y067826D01*
X017813Y067797D01*
X017847Y067770D01*
X017884Y067747D01*
X017923Y067727D01*
X017963Y067710D01*
X018005Y067697D01*
X018047Y067688D01*
X018090Y067682D01*
X018134Y067680D01*
X018134Y066880D01*
X058134Y065880D02*
X058134Y068480D01*
X072134Y068480D01*
X072134Y067680D01*
X072090Y067678D01*
X072047Y067672D01*
X072005Y067663D01*
X071963Y067650D01*
X071923Y067633D01*
X071884Y067613D01*
X071847Y067590D01*
X071813Y067563D01*
X071780Y067534D01*
X071751Y067501D01*
X071724Y067467D01*
X071701Y067430D01*
X071681Y067391D01*
X071664Y067351D01*
X071651Y067309D01*
X071642Y067267D01*
X071636Y067224D01*
X071634Y067180D01*
X071636Y067136D01*
X071642Y067093D01*
X071651Y067051D01*
X071664Y067009D01*
X071681Y066969D01*
X071701Y066930D01*
X071724Y066893D01*
X071751Y066859D01*
X071780Y066826D01*
X071813Y066797D01*
X071847Y066770D01*
X071884Y066747D01*
X071923Y066727D01*
X071963Y066710D01*
X072005Y066697D01*
X072047Y066688D01*
X072090Y066682D01*
X072134Y066680D01*
X072134Y065880D01*
X058134Y065880D01*
D13*
X061908Y064045D02*
X061983Y063895D01*
X062133Y063745D01*
X062133Y063970D01*
X062209Y064045D01*
X062284Y064045D01*
X062359Y063970D01*
X062359Y063820D01*
X062284Y063745D01*
X062133Y063745D01*
X062058Y063584D02*
X062359Y063284D01*
X062359Y063584D01*
X062058Y063584D02*
X061983Y063584D01*
X061908Y063509D01*
X061908Y063359D01*
X061983Y063284D01*
X061983Y063124D02*
X061908Y063049D01*
X061908Y062899D01*
X061983Y062824D01*
X062058Y062824D01*
X062133Y062899D01*
X062133Y063049D01*
X062209Y063124D01*
X062284Y063124D01*
X062359Y063049D01*
X062359Y062899D01*
X062284Y062824D01*
X062284Y062664D02*
X061908Y062664D01*
X061908Y062363D02*
X062284Y062363D01*
X062359Y062438D01*
X062359Y062589D01*
X062284Y062664D01*
X062434Y062974D02*
X061833Y062974D01*
X064934Y063814D02*
X064934Y064546D01*
X066333Y064546D01*
X066333Y063814D01*
X064934Y063814D01*
X066779Y058375D02*
X066929Y058375D01*
X066854Y058375D02*
X066854Y058000D01*
X066779Y057925D01*
X066704Y057925D01*
X066629Y058000D01*
X067089Y057925D02*
X067089Y058375D01*
X067314Y058375D01*
X067389Y058300D01*
X067389Y058150D01*
X067314Y058075D01*
X067089Y058075D01*
X067549Y058000D02*
X067624Y057925D01*
X067775Y057925D01*
X067850Y058000D01*
X067850Y058300D01*
X067775Y058375D01*
X067624Y058375D01*
X067549Y058300D01*
X067549Y058225D01*
X067624Y058150D01*
X067850Y058150D01*
X067700Y056375D02*
X067700Y055925D01*
X067850Y055925D02*
X067549Y055925D01*
X067389Y056150D02*
X067314Y056075D01*
X067089Y056075D01*
X067089Y055925D02*
X067089Y056375D01*
X067314Y056375D01*
X067389Y056300D01*
X067389Y056150D01*
X067549Y056225D02*
X067700Y056375D01*
X068010Y056300D02*
X068085Y056375D01*
X068235Y056375D01*
X068310Y056300D01*
X068010Y056000D01*
X068085Y055925D01*
X068235Y055925D01*
X068310Y056000D01*
X068310Y056300D01*
X068010Y056300D02*
X068010Y056000D01*
X066929Y056375D02*
X066779Y056375D01*
X066854Y056375D02*
X066854Y056000D01*
X066779Y055925D01*
X066704Y055925D01*
X066629Y056000D01*
X066779Y054375D02*
X066929Y054375D01*
X066854Y054375D02*
X066854Y054000D01*
X066779Y053925D01*
X066704Y053925D01*
X066629Y054000D01*
X067089Y053925D02*
X067089Y054375D01*
X067314Y054375D01*
X067389Y054300D01*
X067389Y054150D01*
X067314Y054075D01*
X067089Y054075D01*
X067549Y053925D02*
X067850Y053925D01*
X067700Y053925D02*
X067700Y054375D01*
X067549Y054225D01*
X068010Y054225D02*
X068160Y054375D01*
X068160Y053925D01*
X068010Y053925D02*
X068310Y053925D01*
X068235Y052375D02*
X068085Y052375D01*
X068010Y052300D01*
X068235Y052375D02*
X068310Y052300D01*
X068310Y052225D01*
X068010Y051925D01*
X068310Y051925D01*
X067850Y051925D02*
X067549Y051925D01*
X067700Y051925D02*
X067700Y052375D01*
X067549Y052225D01*
X067389Y052150D02*
X067314Y052075D01*
X067089Y052075D01*
X067089Y051925D02*
X067089Y052375D01*
X067314Y052375D01*
X067389Y052300D01*
X067389Y052150D01*
X066929Y052375D02*
X066779Y052375D01*
X066854Y052375D02*
X066854Y052000D01*
X066779Y051925D01*
X066704Y051925D01*
X066629Y052000D01*
X066779Y050375D02*
X066929Y050375D01*
X066854Y050375D02*
X066854Y050000D01*
X066779Y049925D01*
X066704Y049925D01*
X066629Y050000D01*
X067089Y049925D02*
X067089Y050375D01*
X067314Y050375D01*
X067389Y050300D01*
X067389Y050150D01*
X067314Y050075D01*
X067089Y050075D01*
X067549Y049925D02*
X067850Y049925D01*
X067700Y049925D02*
X067700Y050375D01*
X067549Y050225D01*
X068010Y050300D02*
X068085Y050375D01*
X068235Y050375D01*
X068310Y050300D01*
X068310Y050225D01*
X068235Y050150D01*
X068310Y050075D01*
X068310Y050000D01*
X068235Y049925D01*
X068085Y049925D01*
X068010Y050000D01*
X068160Y050150D02*
X068235Y050150D01*
X068953Y046869D02*
X068953Y046180D01*
X069740Y046180D01*
X070527Y046377D01*
X070527Y046180D02*
X071315Y046180D01*
X071315Y046869D01*
X068953Y046869D01*
X068953Y046180D02*
X068953Y045491D01*
X071315Y045491D01*
X071315Y046180D01*
X070833Y044540D02*
X070833Y043818D01*
X069434Y043818D01*
X069434Y044540D01*
X070833Y044540D01*
X067000Y043981D02*
X067000Y045379D01*
X066268Y045379D01*
X066268Y043981D01*
X067000Y043981D01*
X065397Y043696D02*
X065397Y045664D01*
X060870Y045664D01*
X060870Y043696D01*
X065397Y043696D01*
X065333Y046314D02*
X063934Y046314D01*
X063934Y047046D01*
X065333Y047046D01*
X065333Y046314D01*
X062333Y046314D02*
X060934Y046314D01*
X060934Y047046D01*
X062333Y047046D01*
X062333Y046314D01*
X061754Y053354D02*
X061829Y053429D01*
X061829Y053504D01*
X061754Y053579D01*
X061378Y053579D01*
X061378Y053504D02*
X061378Y053654D01*
X061378Y053814D02*
X061378Y054039D01*
X061453Y054114D01*
X061603Y054114D01*
X061679Y054039D01*
X061679Y053814D01*
X061829Y053814D02*
X061378Y053814D01*
X061453Y054275D02*
X061528Y054275D01*
X061603Y054350D01*
X061603Y054500D01*
X061679Y054575D01*
X061754Y054575D01*
X061829Y054500D01*
X061829Y054350D01*
X061754Y054275D01*
X061679Y054275D01*
X061603Y054350D01*
X061603Y054500D02*
X061528Y054575D01*
X061453Y054575D01*
X061378Y054500D01*
X061378Y054350D01*
X061453Y054275D01*
X063878Y054275D02*
X063878Y054575D01*
X063953Y054575D01*
X064254Y054275D01*
X064329Y054275D01*
X064103Y054114D02*
X064179Y054039D01*
X064179Y053814D01*
X064329Y053814D02*
X063878Y053814D01*
X063878Y054039D01*
X063953Y054114D01*
X064103Y054114D01*
X063878Y053654D02*
X063878Y053504D01*
X063878Y053579D02*
X064254Y053579D01*
X064329Y053504D01*
X064329Y053429D01*
X064254Y053354D01*
X053259Y052366D02*
X053259Y052065D01*
X052958Y052366D01*
X052883Y052366D01*
X052808Y052291D01*
X052808Y052140D01*
X052883Y052065D01*
X052883Y051905D02*
X053184Y051905D01*
X053259Y051830D01*
X053259Y051680D01*
X053184Y051605D01*
X052883Y051605D01*
X052808Y051680D01*
X052808Y051830D01*
X052883Y051905D01*
X053109Y051755D02*
X053259Y051905D01*
X053033Y047866D02*
X053033Y047565D01*
X052808Y047791D01*
X053259Y047791D01*
X053259Y047405D02*
X053109Y047255D01*
X053259Y047180D02*
X053184Y047105D01*
X052883Y047105D01*
X052808Y047180D01*
X052808Y047330D01*
X052883Y047405D01*
X053184Y047405D01*
X053259Y047330D01*
X053259Y047180D01*
X046000Y048481D02*
X045268Y048481D01*
X045268Y049879D01*
X046000Y049879D01*
X046000Y048481D01*
X040000Y048481D02*
X039268Y048481D01*
X039268Y049879D01*
X040000Y049879D01*
X040000Y048481D01*
X030823Y039861D02*
X030134Y039861D01*
X030134Y039074D01*
X030330Y038286D01*
X030134Y038286D02*
X030134Y037499D01*
X030823Y037499D01*
X030823Y039861D01*
X030134Y039861D02*
X029445Y039861D01*
X029445Y037499D01*
X030134Y037499D01*
X032134Y036310D02*
X032134Y035705D01*
X035134Y035705D01*
X035134Y033810D01*
X032134Y033810D01*
X032134Y035705D01*
X032134Y036310D02*
X035134Y036310D01*
X035134Y035705D01*
X035934Y036046D02*
X035934Y035314D01*
X037333Y035314D01*
X037333Y036046D01*
X035934Y036046D01*
X035934Y034542D02*
X037333Y034542D01*
X037333Y033820D01*
X035934Y033820D01*
X035934Y034542D01*
X037768Y033981D02*
X037768Y035379D01*
X038500Y035379D01*
X038500Y033981D01*
X037768Y033981D01*
X038870Y033696D02*
X038870Y035664D01*
X043397Y035664D01*
X043397Y033696D01*
X038870Y033696D01*
X038934Y033046D02*
X040333Y033046D01*
X040333Y032314D01*
X038934Y032314D01*
X038934Y033046D01*
X041934Y033046D02*
X041934Y032314D01*
X043333Y032314D01*
X043333Y033046D01*
X041934Y033046D01*
X043768Y033981D02*
X043768Y035379D01*
X044500Y035379D01*
X044500Y033981D01*
X043768Y033981D01*
X047347Y033060D02*
X047422Y032985D01*
X047497Y032985D01*
X047572Y033060D01*
X047572Y033435D01*
X047497Y033435D02*
X047647Y033435D01*
X047807Y033435D02*
X047807Y032985D01*
X047807Y033135D02*
X048033Y033135D01*
X048108Y033210D01*
X048108Y033360D01*
X048033Y033435D01*
X047807Y033435D01*
X048268Y033285D02*
X048418Y033435D01*
X048418Y032985D01*
X048268Y032985D02*
X048568Y032985D01*
X048728Y033210D02*
X049028Y033210D01*
X048953Y032985D02*
X048953Y033435D01*
X048728Y033210D01*
X048728Y031935D02*
X048728Y031710D01*
X048878Y031785D01*
X048953Y031785D01*
X049028Y031710D01*
X049028Y031560D01*
X048953Y031485D01*
X048803Y031485D01*
X048728Y031560D01*
X048568Y031485D02*
X048268Y031485D01*
X048418Y031485D02*
X048418Y031935D01*
X048268Y031785D01*
X048108Y031710D02*
X048033Y031635D01*
X047807Y031635D01*
X047807Y031485D02*
X047807Y031935D01*
X048033Y031935D01*
X048108Y031860D01*
X048108Y031710D01*
X047647Y031935D02*
X047497Y031935D01*
X047572Y031935D02*
X047572Y031560D01*
X047497Y031485D01*
X047422Y031485D01*
X047347Y031560D01*
X048728Y031935D02*
X049028Y031935D01*
X050504Y031680D02*
X051109Y031680D01*
X051109Y036680D01*
X053004Y036680D01*
X053004Y031680D01*
X051109Y031680D01*
X050504Y031680D02*
X050504Y036680D01*
X051109Y036680D01*
X053367Y035796D02*
X053367Y034564D01*
X053900Y034564D01*
X053900Y035796D01*
X053367Y035796D01*
X053367Y033796D02*
X053900Y033796D01*
X053900Y032564D01*
X053367Y032564D01*
X053367Y033796D01*
X057774Y034379D02*
X057774Y032981D01*
X058496Y032981D01*
X058496Y034379D01*
X057774Y034379D01*
X057772Y035981D02*
X057772Y037379D01*
X058494Y037379D01*
X058494Y035981D01*
X057772Y035981D01*
X059934Y037314D02*
X059934Y038046D01*
X061333Y038046D01*
X061333Y037314D01*
X059934Y037314D01*
X062434Y037314D02*
X063833Y037314D01*
X063833Y038046D01*
X062434Y038046D01*
X062434Y037314D01*
X064934Y037314D02*
X066333Y037314D01*
X066333Y038046D01*
X064934Y038046D01*
X064934Y037314D01*
X067434Y037320D02*
X067434Y038042D01*
X068833Y038042D01*
X068833Y037320D01*
X067434Y037320D01*
X070434Y037314D02*
X071833Y037314D01*
X071833Y038046D01*
X070434Y038046D01*
X070434Y037314D01*
X070000Y030879D02*
X069268Y030879D01*
X069268Y029481D01*
X070000Y029481D01*
X070000Y030879D01*
X071268Y030879D02*
X071268Y029481D01*
X072000Y029481D01*
X072000Y030879D01*
X071268Y030879D01*
X068000Y030879D02*
X068000Y029481D01*
X067268Y029481D01*
X067268Y030879D01*
X068000Y030879D01*
X065833Y030546D02*
X065833Y029814D01*
X064434Y029814D01*
X064434Y030546D01*
X065833Y030546D01*
X063333Y030546D02*
X063333Y029814D01*
X061934Y029814D01*
X061934Y030546D01*
X063333Y030546D01*
X063934Y027046D02*
X065333Y027046D01*
X065333Y026314D01*
X063934Y026314D01*
X063934Y027046D01*
X062333Y027046D02*
X062333Y026314D01*
X060934Y026314D01*
X060934Y027046D01*
X062333Y027046D01*
X060870Y025664D02*
X060870Y023696D01*
X065397Y023696D01*
X065397Y025664D01*
X060870Y025664D01*
X059259Y029367D02*
X058009Y029367D01*
X058009Y031993D01*
X059259Y031993D01*
X059259Y029367D01*
X065768Y025379D02*
X065768Y023981D01*
X066500Y023981D01*
X066500Y025379D01*
X065768Y025379D01*
X067953Y025491D02*
X070315Y025491D01*
X070315Y026180D01*
X069527Y026180D01*
X069527Y026377D02*
X068740Y026180D01*
X067953Y026180D01*
X067953Y025491D01*
X067953Y026180D02*
X067953Y026869D01*
X070315Y026869D01*
X070315Y026180D01*
X069833Y024540D02*
X068434Y024540D01*
X068434Y023818D01*
X069833Y023818D01*
X069833Y024540D01*
X069333Y018042D02*
X067934Y018042D01*
X067934Y017320D01*
X069333Y017320D01*
X069333Y018042D01*
X070434Y018046D02*
X070434Y017314D01*
X071833Y017314D01*
X071833Y018046D01*
X070434Y018046D01*
X066833Y018046D02*
X066833Y017314D01*
X065434Y017314D01*
X065434Y018046D01*
X066833Y018046D01*
X064333Y018046D02*
X064333Y017314D01*
X062934Y017314D01*
X062934Y018046D01*
X064333Y018046D01*
X061833Y018046D02*
X061833Y017314D01*
X060434Y017314D01*
X060434Y018046D01*
X061833Y018046D01*
X058494Y017879D02*
X058494Y016481D01*
X057772Y016481D01*
X057772Y017879D01*
X058494Y017879D01*
X058496Y014379D02*
X057774Y014379D01*
X057774Y012981D01*
X058496Y012981D01*
X058496Y014379D01*
X058009Y011993D02*
X058009Y009367D01*
X059259Y009367D01*
X059259Y011993D01*
X058009Y011993D01*
X061434Y010546D02*
X062833Y010546D01*
X062833Y009814D01*
X061434Y009814D01*
X061434Y010546D01*
X063434Y010546D02*
X064833Y010546D01*
X064833Y009814D01*
X063434Y009814D01*
X063434Y010546D01*
X067268Y010879D02*
X067268Y009481D01*
X068000Y009481D01*
X068000Y010879D01*
X067268Y010879D01*
X069268Y010879D02*
X069268Y009481D01*
X070000Y009481D01*
X070000Y010879D01*
X069268Y010879D01*
X071268Y010879D02*
X071268Y009481D01*
X072000Y009481D01*
X072000Y010879D01*
X071268Y010879D01*
X071518Y008446D02*
X072749Y008446D01*
X072749Y007914D01*
X071518Y007914D01*
X071518Y008446D01*
X070749Y008446D02*
X070749Y007914D01*
X069518Y007914D01*
X069518Y008446D01*
X070749Y008446D01*
X068634Y007050D02*
X073634Y007050D01*
X073634Y005155D01*
X068634Y005155D01*
X068634Y007050D01*
X068634Y005155D02*
X068634Y004550D01*
X073634Y004550D01*
X073634Y005155D01*
X053184Y056105D02*
X052883Y056105D01*
X052808Y056180D01*
X052808Y056330D01*
X052883Y056405D01*
X053184Y056405D01*
X053259Y056330D01*
X053259Y056180D01*
X053184Y056105D01*
X053109Y056255D02*
X053259Y056405D01*
X053259Y056565D02*
X053259Y056866D01*
X053259Y056716D02*
X052808Y056716D01*
X052958Y056565D01*
X050564Y060675D02*
X050639Y060750D01*
X050639Y060900D01*
X050564Y060975D01*
X050263Y060975D01*
X050188Y060900D01*
X050188Y060750D01*
X050263Y060675D01*
X050564Y060675D01*
X050564Y061135D02*
X050639Y061210D01*
X050639Y061361D01*
X050564Y061436D01*
X050489Y061436D01*
X050413Y061361D01*
X050413Y061135D01*
X050564Y061135D01*
X050413Y061135D02*
X050263Y061286D01*
X050188Y061436D01*
X060870Y070196D02*
X060870Y072164D01*
X065397Y072164D01*
X065397Y070196D01*
X060870Y070196D01*
X061434Y072814D02*
X061434Y073546D01*
X062833Y073546D01*
X062833Y072814D01*
X061434Y072814D01*
X063434Y072814D02*
X064833Y072814D01*
X064833Y073546D01*
X063434Y073546D01*
X063434Y072814D01*
X066268Y071879D02*
X066268Y070481D01*
X067000Y070481D01*
X067000Y071879D01*
X066268Y071879D01*
X068268Y071879D02*
X068268Y070481D01*
X069000Y070481D01*
X069000Y071879D01*
X068268Y071879D01*
X068953Y072491D02*
X071315Y072491D01*
X071315Y073180D01*
X070527Y073180D01*
X070527Y073377D02*
X069740Y073180D01*
X068953Y073180D01*
X068953Y072491D01*
X068953Y073180D02*
X068953Y073869D01*
X071315Y073869D01*
X071315Y073180D01*
X070996Y071879D02*
X070274Y071879D01*
X070274Y070481D01*
X070996Y070481D01*
X070996Y071879D01*
X018500Y058379D02*
X018500Y056981D01*
X017768Y056981D01*
X017768Y058379D01*
X018500Y058379D01*
X016000Y058379D02*
X016000Y056981D01*
X015268Y056981D01*
X015268Y058379D01*
X016000Y058379D01*
X014000Y058379D02*
X014000Y056981D01*
X013268Y056981D01*
X013268Y058379D01*
X014000Y058379D01*
X014453Y055369D02*
X014453Y054680D01*
X015240Y054680D01*
X016027Y054877D01*
X016027Y054680D02*
X016815Y054680D01*
X016815Y055369D01*
X014453Y055369D01*
X014453Y054680D02*
X014453Y053991D01*
X016815Y053991D01*
X016815Y054680D01*
X016333Y053540D02*
X016333Y052818D01*
X014934Y052818D01*
X014934Y053540D01*
X016333Y053540D01*
X013000Y053879D02*
X013000Y052481D01*
X012268Y052481D01*
X012268Y053879D01*
X013000Y053879D01*
X011397Y054164D02*
X011397Y052196D01*
X006870Y052196D01*
X006870Y054164D01*
X011397Y054164D01*
X011333Y054314D02*
X009934Y054314D01*
X009934Y055046D01*
X011333Y055046D01*
X011333Y054314D01*
X008333Y054314D02*
X006934Y054314D01*
X006934Y055046D01*
X008333Y055046D01*
X008333Y054314D01*
X008833Y057814D02*
X007434Y057814D01*
X007434Y058546D01*
X008833Y058546D01*
X008833Y057814D01*
X009434Y057814D02*
X009434Y058546D01*
X010833Y058546D01*
X010833Y057814D01*
X009434Y057814D01*
X005259Y057367D02*
X005259Y059993D01*
X004009Y059993D01*
X004009Y057367D01*
X005259Y057367D01*
X004496Y060981D02*
X003774Y060981D01*
X003774Y062379D01*
X004496Y062379D01*
X004496Y060981D01*
X004494Y063481D02*
X003772Y063481D01*
X003772Y064879D01*
X004494Y064879D01*
X004494Y063481D01*
X006434Y064314D02*
X006434Y065046D01*
X007833Y065046D01*
X007833Y064314D01*
X006434Y064314D01*
X008934Y064314D02*
X010333Y064314D01*
X010333Y065046D01*
X008934Y065046D01*
X008934Y064314D01*
X011434Y064314D02*
X011434Y065046D01*
X012833Y065046D01*
X012833Y064314D01*
X011434Y064314D01*
X013934Y064320D02*
X013934Y065042D01*
X015333Y065042D01*
X015333Y064320D01*
X013934Y064320D01*
X016434Y064314D02*
X017833Y064314D01*
X017833Y065046D01*
X016434Y065046D01*
X016434Y064314D01*
X011397Y070696D02*
X011397Y072664D01*
X006870Y072664D01*
X006870Y070696D01*
X011397Y070696D01*
X012268Y070981D02*
X012268Y072379D01*
X013000Y072379D01*
X013000Y070981D01*
X012268Y070981D01*
X011333Y072814D02*
X009934Y072814D01*
X009934Y073546D01*
X011333Y073546D01*
X011333Y072814D01*
X008333Y072814D02*
X006934Y072814D01*
X006934Y073546D01*
X008333Y073546D01*
X008333Y072814D01*
X014453Y072491D02*
X016815Y072491D01*
X016815Y073180D01*
X016027Y073180D01*
X016027Y073377D02*
X015240Y073180D01*
X014453Y073180D01*
X014453Y072491D01*
X014934Y072040D02*
X016333Y072040D01*
X016333Y071318D01*
X014934Y071318D01*
X014934Y072040D01*
X014453Y073180D02*
X014453Y073869D01*
X016815Y073869D01*
X016815Y073180D01*
X016434Y046546D02*
X017833Y046546D01*
X017833Y045814D01*
X016434Y045814D01*
X016434Y046546D01*
X015333Y046542D02*
X015333Y045820D01*
X013934Y045820D01*
X013934Y046542D01*
X015333Y046542D01*
X012833Y046546D02*
X012833Y045814D01*
X011434Y045814D01*
X011434Y046546D01*
X012833Y046546D01*
X010333Y046546D02*
X010333Y045814D01*
X008934Y045814D01*
X008934Y046546D01*
X010333Y046546D01*
X007833Y046546D02*
X007833Y045814D01*
X006434Y045814D01*
X006434Y046546D01*
X007833Y046546D01*
X004494Y046379D02*
X004494Y044981D01*
X003772Y044981D01*
X003772Y046379D01*
X004494Y046379D01*
X004496Y043379D02*
X003774Y043379D01*
X003774Y041981D01*
X004496Y041981D01*
X004496Y043379D01*
X004009Y040993D02*
X004009Y038367D01*
X005259Y038367D01*
X005259Y040993D01*
X004009Y040993D01*
X007934Y040046D02*
X007934Y039314D01*
X009333Y039314D01*
X009333Y040046D01*
X007934Y040046D01*
X009934Y040046D02*
X009934Y039314D01*
X011333Y039314D01*
X011333Y040046D01*
X009934Y040046D01*
X013268Y039879D02*
X013268Y038481D01*
X014000Y038481D01*
X014000Y039879D01*
X013268Y039879D01*
X015268Y039879D02*
X015268Y038481D01*
X016000Y038481D01*
X016000Y039879D01*
X015268Y039879D01*
X017268Y039879D02*
X017268Y038481D01*
X018000Y038481D01*
X018000Y039879D01*
X017268Y039879D01*
X016315Y035869D02*
X013953Y035869D01*
X013953Y035180D01*
X014740Y035180D01*
X015527Y035377D01*
X015527Y035180D02*
X016315Y035180D01*
X016315Y035869D01*
X016315Y035180D02*
X016315Y034491D01*
X013953Y034491D01*
X013953Y035180D01*
X012500Y034379D02*
X012500Y032981D01*
X011768Y032981D01*
X011768Y034379D01*
X012500Y034379D01*
X011397Y034664D02*
X011397Y032696D01*
X006870Y032696D01*
X006870Y034664D01*
X011397Y034664D01*
X011333Y034814D02*
X009934Y034814D01*
X009934Y035546D01*
X011333Y035546D01*
X011333Y034814D01*
X008333Y034814D02*
X006934Y034814D01*
X006934Y035546D01*
X008333Y035546D01*
X008333Y034814D01*
X014434Y033540D02*
X014434Y032818D01*
X015833Y032818D01*
X015833Y033540D01*
X014434Y033540D01*
X013934Y026542D02*
X015333Y026542D01*
X015333Y025820D01*
X013934Y025820D01*
X013934Y026542D01*
X012833Y026546D02*
X012833Y025814D01*
X011434Y025814D01*
X011434Y026546D01*
X012833Y026546D01*
X010333Y026546D02*
X010333Y025814D01*
X008934Y025814D01*
X008934Y026546D01*
X010333Y026546D01*
X007833Y026546D02*
X007833Y025814D01*
X006434Y025814D01*
X006434Y026546D01*
X007833Y026546D01*
X004494Y026379D02*
X004494Y024981D01*
X003772Y024981D01*
X003772Y026379D01*
X004494Y026379D01*
X004496Y023379D02*
X003774Y023379D01*
X003774Y021981D01*
X004496Y021981D01*
X004496Y023379D01*
X004009Y020993D02*
X004009Y018367D01*
X005259Y018367D01*
X005259Y020993D01*
X004009Y020993D01*
X007934Y019546D02*
X007934Y018814D01*
X009333Y018814D01*
X009333Y019546D01*
X007934Y019546D01*
X009934Y019546D02*
X009934Y018814D01*
X011333Y018814D01*
X011333Y019546D01*
X009934Y019546D01*
X013268Y019879D02*
X013268Y018481D01*
X014000Y018481D01*
X014000Y019879D01*
X013268Y019879D01*
X015268Y019879D02*
X015268Y018481D01*
X016000Y018481D01*
X016000Y019879D01*
X015268Y019879D01*
X017268Y019879D02*
X017268Y018481D01*
X018000Y018481D01*
X018000Y019879D01*
X017268Y019879D01*
X017833Y025814D02*
X016434Y025814D01*
X016434Y026546D01*
X017833Y026546D01*
X017833Y025814D01*
X017518Y013446D02*
X017518Y012914D01*
X018749Y012914D01*
X018749Y013446D01*
X017518Y013446D01*
X016634Y012050D02*
X021634Y012050D01*
X021634Y010155D01*
X016634Y010155D01*
X016634Y012050D01*
X015134Y012050D02*
X015134Y010155D01*
X010134Y010155D01*
X010134Y012050D01*
X015134Y012050D01*
X014249Y012914D02*
X013018Y012914D01*
X013018Y013446D01*
X014249Y013446D01*
X014249Y012914D01*
X012249Y012914D02*
X011018Y012914D01*
X011018Y013446D01*
X012249Y013446D01*
X012249Y012914D01*
X010134Y010155D02*
X010134Y009550D01*
X015134Y009550D01*
X015134Y010155D01*
X016634Y010155D02*
X016634Y009550D01*
X021634Y009550D01*
X021634Y010155D01*
X020749Y012914D02*
X019518Y012914D01*
X019518Y013446D01*
X020749Y013446D01*
X020749Y012914D01*
X008634Y012050D02*
X008634Y010155D01*
X003634Y010155D01*
X003634Y012050D01*
X008634Y012050D01*
X007749Y012914D02*
X007749Y013446D01*
X006518Y013446D01*
X006518Y012914D01*
X007749Y012914D01*
X005749Y012914D02*
X004518Y012914D01*
X004518Y013446D01*
X005749Y013446D01*
X005749Y012914D01*
X003634Y010155D02*
X003634Y009550D01*
X008634Y009550D01*
X008634Y010155D01*
D14*
X028527Y033910D02*
X028413Y034023D01*
X028754Y034023D01*
X028754Y033910D02*
X028754Y034137D01*
X028754Y034278D02*
X028754Y034335D01*
X028697Y034335D01*
X028697Y034278D01*
X028754Y034278D01*
X028697Y034462D02*
X028754Y034519D01*
X028754Y034633D01*
X028697Y034689D01*
X028583Y034689D01*
X028527Y034633D01*
X028527Y034576D01*
X028583Y034462D01*
X028413Y034462D01*
X028413Y034689D01*
X028413Y034831D02*
X028754Y034831D01*
X028640Y034831D02*
X028413Y035058D01*
X028583Y034888D02*
X028754Y035058D01*
X028697Y035567D02*
X028754Y035624D01*
X028754Y035738D01*
X028697Y035794D01*
X028470Y035794D01*
X028413Y035738D01*
X028413Y035624D01*
X028470Y035567D01*
X028697Y035567D01*
X028754Y035936D02*
X028413Y035936D01*
X028527Y035992D02*
X028527Y036106D01*
X028583Y036163D01*
X028754Y036163D01*
X028754Y036304D02*
X028527Y036304D01*
X028527Y036361D01*
X028583Y036417D01*
X028527Y036474D01*
X028583Y036531D01*
X028754Y036531D01*
X028754Y036417D02*
X028583Y036417D01*
X028527Y035992D02*
X028583Y035936D01*
X029913Y035936D02*
X030254Y035936D01*
X030197Y035794D02*
X029970Y035794D01*
X029913Y035738D01*
X029913Y035624D01*
X029970Y035567D01*
X030197Y035567D01*
X030254Y035624D01*
X030254Y035738D01*
X030197Y035794D01*
X030083Y035936D02*
X030027Y035992D01*
X030027Y036106D01*
X030083Y036163D01*
X030254Y036163D01*
X030254Y036304D02*
X030027Y036304D01*
X030027Y036361D01*
X030083Y036417D01*
X030027Y036474D01*
X030083Y036531D01*
X030254Y036531D01*
X030254Y036417D02*
X030083Y036417D01*
X029913Y035058D02*
X030140Y034831D01*
X030083Y034888D02*
X030254Y035058D01*
X030254Y034831D02*
X029913Y034831D01*
X029913Y034689D02*
X029913Y034462D01*
X030083Y034462D01*
X030027Y034576D01*
X030027Y034633D01*
X030083Y034689D01*
X030197Y034689D01*
X030254Y034633D01*
X030254Y034519D01*
X030197Y034462D01*
X030197Y034335D02*
X030254Y034335D01*
X030254Y034278D01*
X030197Y034278D01*
X030197Y034335D01*
X030254Y034137D02*
X030254Y033910D01*
X030254Y034023D02*
X029913Y034023D01*
X030027Y033910D01*
X030864Y045560D02*
X031090Y045560D01*
X030977Y045560D02*
X030977Y045900D01*
X030864Y045787D01*
X031232Y045844D02*
X031289Y045900D01*
X031402Y045900D01*
X031459Y045844D01*
X031459Y045787D01*
X031232Y045560D01*
X031459Y045560D01*
X031600Y045617D02*
X031827Y045844D01*
X031827Y045617D01*
X031770Y045560D01*
X031657Y045560D01*
X031600Y045617D01*
X031600Y045844D01*
X031657Y045900D01*
X031770Y045900D01*
X031827Y045844D01*
X032337Y045844D02*
X032337Y045617D01*
X032394Y045560D01*
X032507Y045560D01*
X032564Y045617D01*
X032564Y045844D01*
X032507Y045900D01*
X032394Y045900D01*
X032337Y045844D01*
X032705Y045900D02*
X032705Y045560D01*
X032705Y045730D02*
X032762Y045787D01*
X032875Y045787D01*
X032932Y045730D01*
X032932Y045560D01*
X033074Y045560D02*
X033074Y045787D01*
X033130Y045787D01*
X033187Y045730D01*
X033244Y045787D01*
X033300Y045730D01*
X033300Y045560D01*
X033187Y045560D02*
X033187Y045730D01*
X034864Y045787D02*
X034977Y045900D01*
X034977Y045560D01*
X034864Y045560D02*
X035090Y045560D01*
X035232Y045560D02*
X035459Y045787D01*
X035459Y045844D01*
X035402Y045900D01*
X035289Y045900D01*
X035232Y045844D01*
X035232Y045560D02*
X035459Y045560D01*
X035600Y045617D02*
X035827Y045844D01*
X035827Y045617D01*
X035770Y045560D01*
X035657Y045560D01*
X035600Y045617D01*
X035600Y045844D01*
X035657Y045900D01*
X035770Y045900D01*
X035827Y045844D01*
X036337Y045844D02*
X036337Y045617D01*
X036394Y045560D01*
X036507Y045560D01*
X036564Y045617D01*
X036564Y045844D01*
X036507Y045900D01*
X036394Y045900D01*
X036337Y045844D01*
X036705Y045900D02*
X036705Y045560D01*
X036705Y045730D02*
X036762Y045787D01*
X036875Y045787D01*
X036932Y045730D01*
X036932Y045560D01*
X037074Y045560D02*
X037074Y045787D01*
X037130Y045787D01*
X037187Y045730D01*
X037244Y045787D01*
X037300Y045730D01*
X037300Y045560D01*
X037187Y045560D02*
X037187Y045730D01*
X053570Y062405D02*
X053513Y062462D01*
X053513Y062575D01*
X053570Y062632D01*
X053627Y062632D01*
X053854Y062405D01*
X053854Y062632D01*
X053854Y062773D02*
X053627Y063000D01*
X053570Y063000D01*
X053513Y062944D01*
X053513Y062830D01*
X053570Y062773D01*
X053854Y062773D02*
X053854Y063000D01*
X053797Y063142D02*
X053570Y063369D01*
X053797Y063369D01*
X053854Y063312D01*
X053854Y063198D01*
X053797Y063142D01*
X053570Y063142D01*
X053513Y063198D01*
X053513Y063312D01*
X053570Y063369D01*
X057634Y063680D02*
X057634Y061680D01*
X061634Y061680D01*
X061634Y060680D01*
X057634Y060680D01*
X057634Y061680D01*
X057634Y063680D02*
X057634Y064680D01*
X061634Y064680D01*
X061634Y063680D01*
X061634Y063080D01*
X061595Y063078D01*
X061556Y063072D01*
X061518Y063063D01*
X061481Y063050D01*
X061445Y063033D01*
X061412Y063013D01*
X061380Y062989D01*
X061351Y062963D01*
X061325Y062934D01*
X061301Y062902D01*
X061281Y062869D01*
X061264Y062833D01*
X061251Y062796D01*
X061242Y062758D01*
X061236Y062719D01*
X061234Y062680D01*
X061236Y062641D01*
X061242Y062602D01*
X061251Y062564D01*
X061264Y062527D01*
X061281Y062491D01*
X061301Y062458D01*
X061325Y062426D01*
X061351Y062397D01*
X061380Y062371D01*
X061412Y062347D01*
X061445Y062327D01*
X061481Y062310D01*
X061518Y062297D01*
X061556Y062288D01*
X061595Y062282D01*
X061634Y062280D01*
X061634Y063680D02*
X057634Y063680D01*
D15*
X053934Y063680D02*
X053934Y061680D01*
X053634Y061680D01*
X053634Y061580D01*
X053634Y061680D02*
X053334Y061680D01*
X053334Y063680D01*
X053634Y063680D01*
X053634Y063780D01*
X053634Y063680D02*
X053934Y063680D01*
X053834Y059180D02*
X053434Y059180D01*
X053434Y055180D01*
X053834Y055180D01*
X053834Y059180D01*
X054784Y059180D01*
X054818Y059179D01*
X054853Y059175D01*
X054886Y059167D01*
X054919Y059156D01*
X054950Y059141D01*
X054980Y059124D01*
X055008Y059103D01*
X055034Y059080D01*
X055057Y059054D01*
X055078Y059026D01*
X055095Y058996D01*
X055110Y058965D01*
X055121Y058932D01*
X055129Y058899D01*
X055133Y058864D01*
X055134Y058830D01*
X055134Y058680D01*
X055134Y055680D02*
X055134Y055530D01*
X055133Y055496D01*
X055129Y055461D01*
X055121Y055428D01*
X055110Y055395D01*
X055095Y055364D01*
X055078Y055334D01*
X055057Y055306D01*
X055034Y055280D01*
X055008Y055257D01*
X054980Y055236D01*
X054950Y055219D01*
X054919Y055204D01*
X054886Y055193D01*
X054853Y055185D01*
X054818Y055181D01*
X054784Y055180D01*
X053834Y055180D01*
X053834Y054680D02*
X053434Y054680D01*
X053434Y050680D01*
X053834Y050680D01*
X053834Y054680D01*
X054784Y054680D01*
X054818Y054679D01*
X054853Y054675D01*
X054886Y054667D01*
X054919Y054656D01*
X054950Y054641D01*
X054980Y054624D01*
X055008Y054603D01*
X055034Y054580D01*
X055057Y054554D01*
X055078Y054526D01*
X055095Y054496D01*
X055110Y054465D01*
X055121Y054432D01*
X055129Y054399D01*
X055133Y054364D01*
X055134Y054330D01*
X055134Y054180D01*
X055134Y051180D02*
X055134Y051030D01*
X055133Y050996D01*
X055129Y050961D01*
X055121Y050928D01*
X055110Y050895D01*
X055095Y050864D01*
X055078Y050834D01*
X055057Y050806D01*
X055034Y050780D01*
X055008Y050757D01*
X054980Y050736D01*
X054950Y050719D01*
X054919Y050704D01*
X054886Y050693D01*
X054853Y050685D01*
X054818Y050681D01*
X054784Y050680D01*
X053834Y050680D01*
X053834Y050180D02*
X053434Y050180D01*
X053434Y046180D01*
X053834Y046180D01*
X053834Y050180D01*
X054784Y050180D01*
X054818Y050179D01*
X054853Y050175D01*
X054886Y050167D01*
X054919Y050156D01*
X054950Y050141D01*
X054980Y050124D01*
X055008Y050103D01*
X055034Y050080D01*
X055057Y050054D01*
X055078Y050026D01*
X055095Y049996D01*
X055110Y049965D01*
X055121Y049932D01*
X055129Y049899D01*
X055133Y049864D01*
X055134Y049830D01*
X055134Y049680D01*
X055134Y046680D02*
X055134Y046530D01*
X055133Y046496D01*
X055129Y046461D01*
X055121Y046428D01*
X055110Y046395D01*
X055095Y046364D01*
X055078Y046334D01*
X055057Y046306D01*
X055034Y046280D01*
X055008Y046257D01*
X054980Y046236D01*
X054950Y046219D01*
X054919Y046204D01*
X054886Y046193D01*
X054853Y046185D01*
X054818Y046181D01*
X054784Y046180D01*
X053834Y046180D01*
X057858Y046798D02*
X058134Y046798D01*
X058370Y046562D01*
X057897Y046562D01*
X058134Y046798D01*
X058409Y046798D01*
X058858Y046798D02*
X059134Y046798D01*
X059370Y046562D01*
X058897Y046562D01*
X059134Y046798D01*
X059409Y046798D01*
X059858Y046798D02*
X060134Y046798D01*
X060370Y046562D01*
X059897Y046562D01*
X060134Y046798D01*
X060409Y046798D01*
X066634Y048930D02*
X066884Y048680D01*
X067384Y048680D01*
X067634Y048930D01*
X067884Y048680D01*
X068384Y048680D01*
X068634Y048930D01*
X068634Y049430D01*
X068384Y049680D01*
X067884Y049680D01*
X067634Y049430D01*
X067384Y049680D01*
X066884Y049680D01*
X066634Y049430D01*
X066634Y048930D01*
X066884Y050680D02*
X066634Y050930D01*
X066634Y051430D01*
X066884Y051680D01*
X067384Y051680D01*
X067634Y051430D01*
X067884Y051680D01*
X068384Y051680D01*
X068634Y051430D01*
X068634Y050930D01*
X068384Y050680D01*
X067884Y050680D01*
X067634Y050930D01*
X067384Y050680D01*
X066884Y050680D01*
X066884Y052680D02*
X067384Y052680D01*
X067634Y052930D01*
X067884Y052680D01*
X068384Y052680D01*
X068634Y052930D01*
X068634Y053430D01*
X068384Y053680D01*
X067884Y053680D01*
X067634Y053430D01*
X067384Y053680D01*
X066884Y053680D01*
X066634Y053430D01*
X066634Y052930D01*
X066884Y052680D01*
X066884Y054680D02*
X066634Y054930D01*
X066634Y055430D01*
X066884Y055680D01*
X067384Y055680D01*
X067634Y055430D01*
X067884Y055680D01*
X068384Y055680D01*
X068634Y055430D01*
X068634Y054930D01*
X068384Y054680D01*
X067884Y054680D01*
X067634Y054930D01*
X067384Y054680D01*
X066884Y054680D01*
X066884Y056680D02*
X066634Y056930D01*
X066634Y057430D01*
X066884Y057680D01*
X067384Y057680D01*
X067634Y057430D01*
X067884Y057680D01*
X068384Y057680D01*
X068634Y057430D01*
X068634Y056930D01*
X068384Y056680D01*
X067884Y056680D01*
X067634Y056930D01*
X067384Y056680D01*
X066884Y056680D01*
X070023Y056845D02*
X071244Y056845D01*
X071244Y057515D01*
X070023Y057515D01*
X070023Y056845D01*
X070023Y055515D02*
X070023Y054845D01*
X071244Y054845D01*
X071244Y055515D01*
X070023Y055515D01*
X070023Y053515D02*
X070023Y052845D01*
X071244Y052845D01*
X071244Y053515D01*
X070023Y053515D01*
X070023Y051515D02*
X070023Y050845D01*
X071244Y050845D01*
X071244Y051515D01*
X070023Y051515D01*
X070023Y049515D02*
X070023Y048845D01*
X071244Y048845D01*
X071244Y049515D01*
X070023Y049515D01*
X061634Y061680D02*
X061634Y062280D01*
X060120Y072562D02*
X059647Y072562D01*
X059884Y072798D01*
X060120Y072562D01*
X060159Y072798D02*
X059884Y072798D01*
X059608Y072798D01*
X059159Y072798D02*
X058884Y072798D01*
X059120Y072562D01*
X058647Y072562D01*
X058884Y072798D01*
X058608Y072798D01*
X058159Y072798D02*
X057884Y072798D01*
X058120Y072562D01*
X057647Y072562D01*
X057884Y072798D01*
X057608Y072798D01*
X037823Y050834D02*
X037823Y048274D01*
X033413Y048274D01*
X033413Y050834D01*
X037823Y050834D01*
X037823Y048274D02*
X037823Y047881D01*
X033413Y047881D01*
X033413Y048274D01*
X032634Y045980D02*
X032634Y045680D01*
X032734Y045680D01*
X032634Y045680D02*
X032634Y045380D01*
X030634Y045380D01*
X030634Y045680D01*
X030534Y045680D01*
X030634Y045680D02*
X030634Y045980D01*
X032634Y045980D01*
X034534Y045680D02*
X034634Y045680D01*
X034634Y045980D01*
X036634Y045980D01*
X036634Y045680D01*
X036734Y045680D01*
X036634Y045680D02*
X036634Y045380D01*
X034634Y045380D01*
X034634Y045680D01*
X040634Y046861D02*
X040634Y041743D01*
X046634Y041743D01*
X046634Y046861D01*
X040634Y046861D01*
X042309Y041580D02*
X042959Y041580D01*
X042976Y041578D01*
X042993Y041574D01*
X043009Y041567D01*
X043023Y041557D01*
X043036Y041544D01*
X043046Y041530D01*
X043053Y041514D01*
X043057Y041497D01*
X043059Y041480D01*
X043059Y040880D02*
X043057Y040863D01*
X043053Y040846D01*
X043046Y040830D01*
X043036Y040816D01*
X043023Y040803D01*
X043009Y040793D01*
X042993Y040786D01*
X042976Y040782D01*
X042959Y040780D01*
X042309Y040780D01*
X042292Y040782D01*
X042275Y040786D01*
X042259Y040793D01*
X042245Y040803D01*
X042232Y040816D01*
X042222Y040830D01*
X042215Y040846D01*
X042211Y040863D01*
X042209Y040880D01*
X042209Y041480D02*
X042211Y041497D01*
X042215Y041514D01*
X042222Y041530D01*
X042232Y041544D01*
X042245Y041557D01*
X042259Y041567D01*
X042275Y041574D01*
X042292Y041578D01*
X042309Y041580D01*
X046384Y034680D02*
X046884Y034680D01*
X047134Y034430D01*
X047384Y034680D01*
X047884Y034680D01*
X048134Y034430D01*
X048384Y034680D01*
X048884Y034680D01*
X049134Y034430D01*
X049134Y033930D01*
X048884Y033680D01*
X048384Y033680D01*
X048134Y033930D01*
X047884Y033680D01*
X047384Y033680D01*
X047134Y033930D01*
X046884Y033680D01*
X046384Y033680D01*
X046134Y033930D01*
X046134Y034430D01*
X046384Y034680D01*
X046384Y033180D02*
X046884Y033180D01*
X047134Y032930D01*
X047384Y033180D01*
X047884Y033180D01*
X048134Y032930D01*
X048384Y033180D01*
X048884Y033180D01*
X049134Y032930D01*
X049134Y032430D01*
X048884Y032180D01*
X048384Y032180D01*
X048134Y032430D01*
X047884Y032180D01*
X047384Y032180D01*
X047134Y032430D01*
X046884Y032180D01*
X046384Y032180D01*
X046134Y032430D01*
X046134Y032930D01*
X046384Y033180D01*
X049980Y030869D02*
X052539Y030869D01*
X052539Y026460D01*
X049980Y026460D01*
X049980Y030869D01*
X052539Y030869D02*
X052933Y030869D01*
X052933Y026460D01*
X052539Y026460D01*
X057608Y026798D02*
X057884Y026798D01*
X058120Y026562D01*
X057647Y026562D01*
X057884Y026798D01*
X058159Y026798D01*
X058608Y026798D02*
X058884Y026798D01*
X059120Y026562D01*
X058647Y026562D01*
X058884Y026798D01*
X059159Y026798D01*
X059608Y026798D02*
X059884Y026798D01*
X060120Y026562D01*
X059647Y026562D01*
X059884Y026798D01*
X060159Y026798D01*
X063445Y006979D02*
X067854Y006979D01*
X067854Y006586D01*
X063445Y006586D01*
X063445Y006979D01*
X063445Y006586D02*
X063445Y004026D01*
X067854Y004026D01*
X067854Y006586D01*
X031620Y035562D02*
X031384Y035798D01*
X031147Y035562D01*
X031620Y035562D01*
X031659Y035798D02*
X031384Y035798D01*
X031108Y035798D01*
X030434Y035680D02*
X030434Y033680D01*
X030134Y033680D01*
X030134Y033580D01*
X030134Y033680D02*
X029834Y033680D01*
X029834Y035680D01*
X030134Y035680D01*
X030134Y035780D01*
X030134Y035680D02*
X030434Y035680D01*
X028934Y035680D02*
X028934Y033680D01*
X028634Y033680D01*
X028634Y033580D01*
X028634Y033680D02*
X028334Y033680D01*
X028334Y035680D01*
X028634Y035680D01*
X028634Y035780D01*
X028634Y035680D02*
X028934Y035680D01*
X005909Y035798D02*
X005634Y035798D01*
X005870Y035562D01*
X005397Y035562D01*
X005634Y035798D01*
X005358Y035798D01*
X004909Y035798D02*
X004634Y035798D01*
X004870Y035562D01*
X004397Y035562D01*
X004634Y035798D01*
X004358Y035798D01*
X003909Y035798D02*
X003634Y035798D01*
X003870Y035562D01*
X003397Y035562D01*
X003634Y035798D01*
X003358Y035798D01*
X003397Y055062D02*
X003870Y055062D01*
X003634Y055298D01*
X003397Y055062D01*
X003358Y055298D02*
X003634Y055298D01*
X003909Y055298D01*
X004358Y055298D02*
X004634Y055298D01*
X004870Y055062D01*
X004397Y055062D01*
X004634Y055298D01*
X004909Y055298D01*
X005358Y055298D02*
X005634Y055298D01*
X005870Y055062D01*
X005397Y055062D01*
X005634Y055298D01*
X005909Y055298D01*
X005870Y073562D02*
X005634Y073798D01*
X005397Y073562D01*
X005870Y073562D01*
X005909Y073798D02*
X005634Y073798D01*
X005358Y073798D01*
X004909Y073798D02*
X004634Y073798D01*
X004870Y073562D01*
X004397Y073562D01*
X004634Y073798D01*
X004358Y073798D01*
X003909Y073798D02*
X003634Y073798D01*
X003870Y073562D01*
X003397Y073562D01*
X003634Y073798D01*
X003358Y073798D01*
X003945Y007979D02*
X008354Y007979D01*
X008354Y007586D01*
X003945Y007586D01*
X003945Y007979D01*
X003945Y007586D02*
X003945Y005026D01*
X008354Y005026D01*
X008354Y007586D01*
X010445Y007586D02*
X014854Y007586D01*
X014854Y005026D01*
X010445Y005026D01*
X010445Y007586D01*
X010445Y007979D01*
X014854Y007979D01*
X014854Y007586D01*
X016945Y007586D02*
X021354Y007586D01*
X021354Y005026D01*
X016945Y005026D01*
X016945Y007586D01*
X016945Y007979D01*
X021354Y007979D01*
X021354Y007586D01*
D16*
X020591Y005675D02*
X020541Y005650D01*
X020491Y005600D01*
X020566Y005600D01*
X020591Y005575D01*
X020591Y005550D01*
X020566Y005525D01*
X020516Y005525D01*
X020491Y005550D01*
X020491Y005600D01*
X020444Y005600D02*
X020419Y005575D01*
X020344Y005575D01*
X020344Y005525D02*
X020344Y005675D01*
X020419Y005675D01*
X020444Y005650D01*
X020444Y005600D01*
X020297Y005675D02*
X020247Y005675D01*
X020272Y005675D02*
X020272Y005550D01*
X020247Y005525D01*
X020222Y005525D01*
X020197Y005550D01*
X014091Y005600D02*
X013991Y005600D01*
X014066Y005675D01*
X014066Y005525D01*
X013944Y005600D02*
X013919Y005575D01*
X013844Y005575D01*
X013844Y005525D02*
X013844Y005675D01*
X013919Y005675D01*
X013944Y005650D01*
X013944Y005600D01*
X013797Y005675D02*
X013747Y005675D01*
X013772Y005675D02*
X013772Y005550D01*
X013747Y005525D01*
X013722Y005525D01*
X013697Y005550D01*
X007591Y005550D02*
X007566Y005525D01*
X007516Y005525D01*
X007491Y005550D01*
X007491Y005600D02*
X007541Y005625D01*
X007566Y005625D01*
X007591Y005600D01*
X007591Y005550D01*
X007491Y005600D02*
X007491Y005675D01*
X007591Y005675D01*
X007444Y005650D02*
X007444Y005600D01*
X007419Y005575D01*
X007344Y005575D01*
X007344Y005525D02*
X007344Y005675D01*
X007419Y005675D01*
X007444Y005650D01*
X007297Y005675D02*
X007247Y005675D01*
X007272Y005675D02*
X007272Y005550D01*
X007247Y005525D01*
X007222Y005525D01*
X007197Y005550D01*
X006239Y033493D02*
X006089Y033493D01*
X006089Y033568D01*
X006114Y033593D01*
X006164Y033593D01*
X006189Y033568D01*
X006189Y033493D01*
X006189Y033543D02*
X006239Y033593D01*
X006239Y033640D02*
X006239Y033740D01*
X006239Y033788D02*
X006139Y033888D01*
X006114Y033888D01*
X006089Y033863D01*
X006089Y033813D01*
X006114Y033788D01*
X006089Y033690D02*
X006239Y033690D01*
X006239Y033788D02*
X006239Y033888D01*
X006089Y033690D02*
X006139Y033640D01*
X005239Y033640D02*
X005239Y033740D01*
X005239Y033690D02*
X005089Y033690D01*
X005139Y033640D01*
X005164Y033593D02*
X005189Y033568D01*
X005189Y033493D01*
X005239Y033493D02*
X005089Y033493D01*
X005089Y033568D01*
X005114Y033593D01*
X005164Y033593D01*
X005189Y033543D02*
X005239Y033593D01*
X005214Y033788D02*
X005239Y033813D01*
X005239Y033863D01*
X005214Y033888D01*
X005189Y033888D01*
X005164Y033863D01*
X005164Y033838D01*
X005164Y033863D02*
X005139Y033888D01*
X005114Y033888D01*
X005089Y033863D01*
X005089Y033813D01*
X005114Y033788D01*
X004239Y033740D02*
X004239Y033640D01*
X004239Y033593D02*
X004189Y033543D01*
X004189Y033568D02*
X004189Y033493D01*
X004239Y033493D02*
X004089Y033493D01*
X004089Y033568D01*
X004114Y033593D01*
X004164Y033593D01*
X004189Y033568D01*
X004139Y033640D02*
X004089Y033690D01*
X004239Y033690D01*
X004164Y033788D02*
X004164Y033888D01*
X004239Y033863D02*
X004089Y033863D01*
X004164Y033788D01*
X004189Y052993D02*
X004189Y053068D01*
X004164Y053093D01*
X004114Y053093D01*
X004089Y053068D01*
X004089Y052993D01*
X004239Y052993D01*
X004189Y053043D02*
X004239Y053093D01*
X004239Y053140D02*
X004239Y053240D01*
X004239Y053288D02*
X004214Y053288D01*
X004114Y053388D01*
X004089Y053388D01*
X004089Y053288D01*
X004089Y053190D02*
X004239Y053190D01*
X004139Y053140D02*
X004089Y053190D01*
X005089Y053190D02*
X005239Y053190D01*
X005239Y053140D02*
X005239Y053240D01*
X005214Y053288D02*
X005239Y053313D01*
X005239Y053363D01*
X005214Y053388D01*
X005189Y053388D01*
X005164Y053363D01*
X005164Y053288D01*
X005214Y053288D01*
X005164Y053288D02*
X005114Y053338D01*
X005089Y053388D01*
X005089Y053190D02*
X005139Y053140D01*
X005164Y053093D02*
X005189Y053068D01*
X005189Y052993D01*
X005239Y052993D02*
X005089Y052993D01*
X005089Y053068D01*
X005114Y053093D01*
X005164Y053093D01*
X005189Y053043D02*
X005239Y053093D01*
X006089Y053068D02*
X006114Y053093D01*
X006164Y053093D01*
X006189Y053068D01*
X006189Y052993D01*
X006239Y052993D02*
X006089Y052993D01*
X006089Y053068D01*
X006139Y053140D02*
X006089Y053190D01*
X006239Y053190D01*
X006239Y053140D02*
X006239Y053240D01*
X006214Y053288D02*
X006239Y053313D01*
X006239Y053363D01*
X006214Y053388D01*
X006164Y053388D01*
X006139Y053363D01*
X006139Y053338D01*
X006164Y053288D01*
X006089Y053288D01*
X006089Y053388D01*
X006239Y053093D02*
X006189Y053043D01*
X004239Y071493D02*
X004089Y071493D01*
X004089Y071568D01*
X004114Y071593D01*
X004164Y071593D01*
X004189Y071568D01*
X004189Y071493D01*
X004189Y071543D02*
X004239Y071593D01*
X004239Y071640D02*
X004239Y071740D01*
X004239Y071788D02*
X004239Y071888D01*
X004239Y071838D02*
X004089Y071838D01*
X004139Y071788D01*
X004089Y071690D02*
X004239Y071690D01*
X004139Y071640D02*
X004089Y071690D01*
X005089Y071715D02*
X005114Y071740D01*
X005164Y071740D01*
X005189Y071715D01*
X005189Y071640D01*
X005239Y071640D02*
X005089Y071640D01*
X005089Y071715D01*
X005114Y071788D02*
X005139Y071788D01*
X005164Y071813D01*
X005164Y071888D01*
X005214Y071888D02*
X005114Y071888D01*
X005089Y071863D01*
X005089Y071813D01*
X005114Y071788D01*
X005214Y071788D02*
X005239Y071813D01*
X005239Y071863D01*
X005214Y071888D01*
X005239Y071740D02*
X005189Y071690D01*
X006089Y071715D02*
X006114Y071740D01*
X006164Y071740D01*
X006189Y071715D01*
X006189Y071640D01*
X006239Y071640D02*
X006089Y071640D01*
X006089Y071715D01*
X006114Y071788D02*
X006139Y071788D01*
X006164Y071813D01*
X006164Y071863D01*
X006189Y071888D01*
X006214Y071888D01*
X006239Y071863D01*
X006239Y071813D01*
X006214Y071788D01*
X006189Y071788D01*
X006164Y071813D01*
X006164Y071863D02*
X006139Y071888D01*
X006114Y071888D01*
X006089Y071863D01*
X006089Y071813D01*
X006114Y071788D01*
X006189Y071690D02*
X006239Y071740D01*
X030639Y046335D02*
X030714Y046335D01*
X030739Y046310D01*
X030739Y046260D01*
X030714Y046235D01*
X030639Y046235D01*
X030689Y046235D02*
X030739Y046185D01*
X030786Y046260D02*
X030886Y046260D01*
X030861Y046185D02*
X030861Y046335D01*
X030786Y046260D01*
X030639Y046185D02*
X030639Y046335D01*
X034639Y046335D02*
X034714Y046335D01*
X034739Y046310D01*
X034739Y046260D01*
X034714Y046235D01*
X034639Y046235D01*
X034689Y046235D02*
X034739Y046185D01*
X034786Y046210D02*
X034811Y046185D01*
X034861Y046185D01*
X034886Y046210D01*
X034886Y046260D01*
X034861Y046285D01*
X034836Y046285D01*
X034786Y046260D01*
X034786Y046335D01*
X034886Y046335D01*
X034639Y046335D02*
X034639Y046185D01*
X034533Y050185D02*
X034433Y050185D01*
X034483Y050185D02*
X034483Y050335D01*
X034433Y050285D01*
X034386Y050260D02*
X034361Y050235D01*
X034286Y050235D01*
X034286Y050185D02*
X034286Y050335D01*
X034361Y050335D01*
X034386Y050310D01*
X034386Y050260D01*
X034239Y050335D02*
X034189Y050335D01*
X034214Y050335D02*
X034214Y050210D01*
X034189Y050185D01*
X034164Y050185D01*
X034139Y050210D01*
X042597Y040675D02*
X042572Y040650D01*
X042572Y040625D01*
X042597Y040600D01*
X042647Y040600D01*
X042672Y040575D01*
X042672Y040550D01*
X042647Y040525D01*
X042597Y040525D01*
X042572Y040550D01*
X042597Y040675D02*
X042647Y040675D01*
X042672Y040650D01*
X042769Y040675D02*
X042819Y040675D01*
X042794Y040675D02*
X042794Y040550D01*
X042769Y040525D01*
X042744Y040525D01*
X042719Y040550D01*
X042866Y040525D02*
X042966Y040525D01*
X042916Y040525D02*
X042916Y040675D01*
X042866Y040625D01*
X031989Y033788D02*
X031964Y033788D01*
X031864Y033888D01*
X031839Y033888D01*
X031839Y033788D01*
X031864Y033740D02*
X031839Y033715D01*
X031839Y033665D01*
X031864Y033640D01*
X031864Y033593D02*
X031914Y033593D01*
X031939Y033568D01*
X031939Y033493D01*
X031989Y033493D02*
X031839Y033493D01*
X031839Y033568D01*
X031864Y033593D01*
X031939Y033543D02*
X031989Y033593D01*
X031989Y033640D02*
X031889Y033740D01*
X031864Y033740D01*
X031989Y033740D02*
X031989Y033640D01*
X029629Y033685D02*
X029479Y033685D01*
X029479Y033760D01*
X029504Y033785D01*
X029554Y033785D01*
X029579Y033760D01*
X029579Y033685D01*
X029579Y033735D02*
X029629Y033785D01*
X029629Y033832D02*
X029529Y033932D01*
X029504Y033932D01*
X029479Y033907D01*
X029479Y033857D01*
X029504Y033832D01*
X029629Y033832D02*
X029629Y033932D01*
X028129Y033932D02*
X028129Y033832D01*
X028129Y033785D02*
X028079Y033735D01*
X028079Y033760D02*
X028079Y033685D01*
X028129Y033685D02*
X027979Y033685D01*
X027979Y033760D01*
X028004Y033785D01*
X028054Y033785D01*
X028079Y033760D01*
X028029Y033832D02*
X027979Y033882D01*
X028129Y033882D01*
X050479Y027555D02*
X050504Y027580D01*
X050529Y027580D01*
X050554Y027555D01*
X050579Y027580D01*
X050604Y027580D01*
X050629Y027555D01*
X050629Y027505D01*
X050604Y027480D01*
X050554Y027432D02*
X050579Y027407D01*
X050579Y027332D01*
X050629Y027332D02*
X050479Y027332D01*
X050479Y027407D01*
X050504Y027432D01*
X050554Y027432D01*
X050504Y027480D02*
X050479Y027505D01*
X050479Y027555D01*
X050554Y027555D02*
X050554Y027530D01*
X050479Y027285D02*
X050479Y027235D01*
X050479Y027260D02*
X050604Y027260D01*
X050629Y027235D01*
X050629Y027210D01*
X050604Y027185D01*
X058339Y024863D02*
X058364Y024888D01*
X058389Y024888D01*
X058414Y024863D01*
X058439Y024888D01*
X058464Y024888D01*
X058489Y024863D01*
X058489Y024813D01*
X058464Y024788D01*
X058489Y024740D02*
X058489Y024640D01*
X058389Y024740D01*
X058364Y024740D01*
X058339Y024715D01*
X058339Y024665D01*
X058364Y024640D01*
X058364Y024593D02*
X058414Y024593D01*
X058439Y024568D01*
X058439Y024493D01*
X058489Y024493D02*
X058339Y024493D01*
X058339Y024568D01*
X058364Y024593D01*
X058439Y024543D02*
X058489Y024593D01*
X058364Y024788D02*
X058339Y024813D01*
X058339Y024863D01*
X058414Y024863D02*
X058414Y024838D01*
X059339Y024863D02*
X059364Y024888D01*
X059389Y024888D01*
X059489Y024788D01*
X059489Y024888D01*
X059489Y024740D02*
X059489Y024640D01*
X059389Y024740D01*
X059364Y024740D01*
X059339Y024715D01*
X059339Y024665D01*
X059364Y024640D01*
X059364Y024593D02*
X059414Y024593D01*
X059439Y024568D01*
X059439Y024493D01*
X059489Y024493D02*
X059339Y024493D01*
X059339Y024568D01*
X059364Y024593D01*
X059439Y024543D02*
X059489Y024593D01*
X059364Y024788D02*
X059339Y024813D01*
X059339Y024863D01*
X060339Y024838D02*
X060489Y024838D01*
X060489Y024788D02*
X060489Y024888D01*
X060389Y024788D02*
X060339Y024838D01*
X060364Y024740D02*
X060339Y024715D01*
X060339Y024665D01*
X060364Y024640D01*
X060364Y024593D02*
X060414Y024593D01*
X060439Y024568D01*
X060439Y024493D01*
X060489Y024493D02*
X060339Y024493D01*
X060339Y024568D01*
X060364Y024593D01*
X060439Y024543D02*
X060489Y024593D01*
X060489Y024640D02*
X060389Y024740D01*
X060364Y024740D01*
X060489Y024740D02*
X060489Y024640D01*
X066747Y004675D02*
X066797Y004675D01*
X066772Y004675D02*
X066772Y004550D01*
X066747Y004525D01*
X066722Y004525D01*
X066697Y004550D01*
X066844Y004525D02*
X066844Y004675D01*
X066919Y004675D01*
X066944Y004650D01*
X066944Y004600D01*
X066919Y004575D01*
X066844Y004575D01*
X066991Y004525D02*
X067091Y004625D01*
X067091Y004650D01*
X067066Y004675D01*
X067016Y004675D01*
X066991Y004650D01*
X066991Y004525D02*
X067091Y004525D01*
X060739Y044493D02*
X060589Y044493D01*
X060589Y044568D01*
X060614Y044593D01*
X060664Y044593D01*
X060689Y044568D01*
X060689Y044493D01*
X060689Y044543D02*
X060739Y044593D01*
X060739Y044640D02*
X060739Y044740D01*
X060739Y044690D02*
X060589Y044690D01*
X060639Y044640D01*
X060639Y044788D02*
X060614Y044788D01*
X060589Y044813D01*
X060589Y044863D01*
X060614Y044888D01*
X060639Y044888D01*
X060664Y044863D01*
X060664Y044813D01*
X060639Y044788D01*
X060664Y044813D02*
X060689Y044788D01*
X060714Y044788D01*
X060739Y044813D01*
X060739Y044863D01*
X060714Y044888D01*
X060689Y044888D01*
X060664Y044863D01*
X059739Y044863D02*
X059714Y044888D01*
X059614Y044888D01*
X059589Y044863D01*
X059589Y044813D01*
X059614Y044788D01*
X059639Y044788D01*
X059664Y044813D01*
X059664Y044888D01*
X059739Y044863D02*
X059739Y044813D01*
X059714Y044788D01*
X059739Y044740D02*
X059739Y044640D01*
X059739Y044593D02*
X059689Y044543D01*
X059689Y044568D02*
X059689Y044493D01*
X059739Y044493D02*
X059589Y044493D01*
X059589Y044568D01*
X059614Y044593D01*
X059664Y044593D01*
X059689Y044568D01*
X059639Y044640D02*
X059589Y044690D01*
X059739Y044690D01*
X058739Y044640D02*
X058639Y044740D01*
X058614Y044740D01*
X058589Y044715D01*
X058589Y044665D01*
X058614Y044640D01*
X058614Y044593D02*
X058664Y044593D01*
X058689Y044568D01*
X058689Y044493D01*
X058739Y044493D02*
X058589Y044493D01*
X058589Y044568D01*
X058614Y044593D01*
X058689Y044543D02*
X058739Y044593D01*
X058739Y044640D02*
X058739Y044740D01*
X058714Y044788D02*
X058614Y044888D01*
X058714Y044888D01*
X058739Y044863D01*
X058739Y044813D01*
X058714Y044788D01*
X058614Y044788D01*
X058589Y044813D01*
X058589Y044863D01*
X058614Y044888D01*
X057289Y048890D02*
X057139Y048890D01*
X057139Y048965D01*
X057164Y048990D01*
X057214Y048990D01*
X057239Y048965D01*
X057239Y048890D01*
X057239Y048940D02*
X057289Y048990D01*
X057289Y049038D02*
X057264Y049038D01*
X057164Y049138D01*
X057139Y049138D01*
X057139Y049038D01*
X057139Y053390D02*
X057139Y053465D01*
X057164Y053490D01*
X057214Y053490D01*
X057239Y053465D01*
X057239Y053390D01*
X057289Y053390D02*
X057139Y053390D01*
X057239Y053440D02*
X057289Y053490D01*
X057264Y053538D02*
X057289Y053563D01*
X057289Y053613D01*
X057264Y053638D01*
X057239Y053638D01*
X057214Y053613D01*
X057214Y053538D01*
X057264Y053538D01*
X057214Y053538D02*
X057164Y053588D01*
X057139Y053638D01*
X057139Y057890D02*
X057139Y057965D01*
X057164Y057990D01*
X057214Y057990D01*
X057239Y057965D01*
X057239Y057890D01*
X057289Y057890D02*
X057139Y057890D01*
X057239Y057940D02*
X057289Y057990D01*
X057264Y058038D02*
X057289Y058063D01*
X057289Y058113D01*
X057264Y058138D01*
X057239Y058138D01*
X057214Y058113D01*
X057214Y058088D01*
X057214Y058113D02*
X057189Y058138D01*
X057164Y058138D01*
X057139Y058113D01*
X057139Y058063D01*
X057164Y058038D01*
X054289Y063243D02*
X054139Y063243D01*
X054139Y063318D01*
X054164Y063343D01*
X054214Y063343D01*
X054239Y063318D01*
X054239Y063243D01*
X054239Y063293D02*
X054289Y063343D01*
X054289Y063390D02*
X054289Y063490D01*
X054289Y063440D02*
X054139Y063440D01*
X054189Y063390D01*
X054164Y063538D02*
X054139Y063563D01*
X054139Y063613D01*
X054164Y063638D01*
X054264Y063538D01*
X054289Y063563D01*
X054289Y063613D01*
X054264Y063638D01*
X054164Y063638D01*
X054164Y063538D02*
X054264Y063538D01*
X058339Y070493D02*
X058339Y070568D01*
X058364Y070593D01*
X058414Y070593D01*
X058439Y070568D01*
X058439Y070493D01*
X058489Y070493D02*
X058339Y070493D01*
X058439Y070543D02*
X058489Y070593D01*
X058489Y070640D02*
X058389Y070740D01*
X058364Y070740D01*
X058339Y070715D01*
X058339Y070665D01*
X058364Y070640D01*
X058489Y070640D02*
X058489Y070740D01*
X058464Y070788D02*
X058489Y070813D01*
X058489Y070863D01*
X058464Y070888D01*
X058439Y070888D01*
X058414Y070863D01*
X058414Y070788D01*
X058464Y070788D01*
X058414Y070788D02*
X058364Y070838D01*
X058339Y070888D01*
X059339Y070888D02*
X059339Y070788D01*
X059414Y070788D01*
X059389Y070838D01*
X059389Y070863D01*
X059414Y070888D01*
X059464Y070888D01*
X059489Y070863D01*
X059489Y070813D01*
X059464Y070788D01*
X059489Y070740D02*
X059489Y070640D01*
X059389Y070740D01*
X059364Y070740D01*
X059339Y070715D01*
X059339Y070665D01*
X059364Y070640D01*
X059364Y070593D02*
X059414Y070593D01*
X059439Y070568D01*
X059439Y070493D01*
X059489Y070493D02*
X059339Y070493D01*
X059339Y070568D01*
X059364Y070593D01*
X059439Y070543D02*
X059489Y070593D01*
X060339Y070568D02*
X060364Y070593D01*
X060414Y070593D01*
X060439Y070568D01*
X060439Y070493D01*
X060489Y070493D02*
X060339Y070493D01*
X060339Y070568D01*
X060364Y070640D02*
X060339Y070665D01*
X060339Y070715D01*
X060364Y070740D01*
X060389Y070740D01*
X060489Y070640D01*
X060489Y070740D01*
X060414Y070788D02*
X060414Y070888D01*
X060489Y070863D02*
X060339Y070863D01*
X060414Y070788D01*
X060489Y070593D02*
X060439Y070543D01*
D17*
X045254Y045680D02*
X045256Y045730D01*
X045262Y045780D01*
X045272Y045829D01*
X045286Y045877D01*
X045303Y045924D01*
X045324Y045969D01*
X045349Y046013D01*
X045377Y046054D01*
X045409Y046093D01*
X045443Y046130D01*
X045480Y046164D01*
X045520Y046194D01*
X045562Y046221D01*
X045606Y046245D01*
X045652Y046266D01*
X045699Y046282D01*
X045747Y046295D01*
X045797Y046304D01*
X045846Y046309D01*
X045897Y046310D01*
X045947Y046307D01*
X045996Y046300D01*
X046045Y046289D01*
X046093Y046274D01*
X046139Y046256D01*
X046184Y046234D01*
X046227Y046208D01*
X046268Y046179D01*
X046307Y046147D01*
X046343Y046112D01*
X046375Y046074D01*
X046405Y046034D01*
X046432Y045991D01*
X046455Y045947D01*
X046474Y045901D01*
X046490Y045853D01*
X046502Y045804D01*
X046510Y045755D01*
X046514Y045705D01*
X046514Y045655D01*
X046510Y045605D01*
X046502Y045556D01*
X046490Y045507D01*
X046474Y045459D01*
X046455Y045413D01*
X046432Y045369D01*
X046405Y045326D01*
X046375Y045286D01*
X046343Y045248D01*
X046307Y045213D01*
X046268Y045181D01*
X046227Y045152D01*
X046184Y045126D01*
X046139Y045104D01*
X046093Y045086D01*
X046045Y045071D01*
X045996Y045060D01*
X045947Y045053D01*
X045897Y045050D01*
X045846Y045051D01*
X045797Y045056D01*
X045747Y045065D01*
X045699Y045078D01*
X045652Y045094D01*
X045606Y045115D01*
X045562Y045139D01*
X045520Y045166D01*
X045480Y045196D01*
X045443Y045230D01*
X045409Y045267D01*
X045377Y045306D01*
X045349Y045347D01*
X045324Y045391D01*
X045303Y045436D01*
X045286Y045483D01*
X045272Y045531D01*
X045262Y045580D01*
X045256Y045630D01*
X045254Y045680D01*
X040754Y045680D02*
X040756Y045730D01*
X040762Y045780D01*
X040772Y045829D01*
X040786Y045877D01*
X040803Y045924D01*
X040824Y045969D01*
X040849Y046013D01*
X040877Y046054D01*
X040909Y046093D01*
X040943Y046130D01*
X040980Y046164D01*
X041020Y046194D01*
X041062Y046221D01*
X041106Y046245D01*
X041152Y046266D01*
X041199Y046282D01*
X041247Y046295D01*
X041297Y046304D01*
X041346Y046309D01*
X041397Y046310D01*
X041447Y046307D01*
X041496Y046300D01*
X041545Y046289D01*
X041593Y046274D01*
X041639Y046256D01*
X041684Y046234D01*
X041727Y046208D01*
X041768Y046179D01*
X041807Y046147D01*
X041843Y046112D01*
X041875Y046074D01*
X041905Y046034D01*
X041932Y045991D01*
X041955Y045947D01*
X041974Y045901D01*
X041990Y045853D01*
X042002Y045804D01*
X042010Y045755D01*
X042014Y045705D01*
X042014Y045655D01*
X042010Y045605D01*
X042002Y045556D01*
X041990Y045507D01*
X041974Y045459D01*
X041955Y045413D01*
X041932Y045369D01*
X041905Y045326D01*
X041875Y045286D01*
X041843Y045248D01*
X041807Y045213D01*
X041768Y045181D01*
X041727Y045152D01*
X041684Y045126D01*
X041639Y045104D01*
X041593Y045086D01*
X041545Y045071D01*
X041496Y045060D01*
X041447Y045053D01*
X041397Y045050D01*
X041346Y045051D01*
X041297Y045056D01*
X041247Y045065D01*
X041199Y045078D01*
X041152Y045094D01*
X041106Y045115D01*
X041062Y045139D01*
X041020Y045166D01*
X040980Y045196D01*
X040943Y045230D01*
X040909Y045267D01*
X040877Y045306D01*
X040849Y045347D01*
X040824Y045391D01*
X040803Y045436D01*
X040786Y045483D01*
X040772Y045531D01*
X040762Y045580D01*
X040756Y045630D01*
X040754Y045680D01*
D18*
X030634Y044230D02*
X030634Y042130D01*
X029634Y042130D01*
X029634Y044230D01*
X030634Y044230D01*
X030384Y043180D02*
X029884Y043180D01*
X056134Y047180D02*
X056134Y049180D01*
X056634Y049180D01*
X056634Y049280D01*
X056634Y049180D02*
X057134Y049180D01*
X057134Y047180D01*
X056634Y047180D01*
X056634Y047080D01*
X056634Y047180D02*
X056134Y047180D01*
X056634Y051580D02*
X056634Y051680D01*
X056134Y051680D01*
X056134Y053680D01*
X056634Y053680D01*
X056634Y053780D01*
X056634Y053680D02*
X057134Y053680D01*
X057134Y051680D01*
X056634Y051680D01*
X056634Y056080D02*
X056634Y056180D01*
X056134Y056180D01*
X056134Y058180D01*
X056634Y058180D01*
X056634Y058280D01*
X056634Y058180D02*
X057134Y058180D01*
X057134Y056180D01*
X056634Y056180D01*
D19*
X053634Y057180D03*
X053634Y052680D03*
X053634Y048180D03*
D20*
X042634Y049980D03*
D21*
X070479Y050574D02*
X070479Y050794D01*
X070589Y050794D01*
X070626Y050757D01*
X070626Y050684D01*
X070589Y050647D01*
X070479Y050647D01*
X070553Y050647D02*
X070626Y050574D01*
X070700Y050611D02*
X070737Y050574D01*
X070810Y050574D01*
X070847Y050611D01*
X070847Y050647D01*
X070810Y050684D01*
X070774Y050684D01*
X070810Y050684D02*
X070847Y050721D01*
X070847Y050757D01*
X070810Y050794D01*
X070737Y050794D01*
X070700Y050757D01*
X070921Y050721D02*
X070995Y050794D01*
X070995Y050574D01*
X071068Y050574D02*
X070921Y050574D01*
X070958Y052574D02*
X070921Y052611D01*
X071068Y052757D01*
X071068Y052611D01*
X071031Y052574D01*
X070958Y052574D01*
X070921Y052611D02*
X070921Y052757D01*
X070958Y052794D01*
X071031Y052794D01*
X071068Y052757D01*
X070847Y052757D02*
X070847Y052721D01*
X070810Y052684D01*
X070847Y052647D01*
X070847Y052611D01*
X070810Y052574D01*
X070737Y052574D01*
X070700Y052611D01*
X070626Y052574D02*
X070553Y052647D01*
X070589Y052647D02*
X070479Y052647D01*
X070479Y052574D02*
X070479Y052794D01*
X070589Y052794D01*
X070626Y052757D01*
X070626Y052684D01*
X070589Y052647D01*
X070700Y052757D02*
X070737Y052794D01*
X070810Y052794D01*
X070847Y052757D01*
X070810Y052684D02*
X070774Y052684D01*
X070847Y054574D02*
X070700Y054574D01*
X070847Y054721D01*
X070847Y054757D01*
X070810Y054794D01*
X070737Y054794D01*
X070700Y054757D01*
X070626Y054757D02*
X070626Y054684D01*
X070589Y054647D01*
X070479Y054647D01*
X070479Y054574D02*
X070479Y054794D01*
X070589Y054794D01*
X070626Y054757D01*
X070553Y054647D02*
X070626Y054574D01*
X070921Y054611D02*
X070958Y054574D01*
X071031Y054574D01*
X071068Y054611D01*
X071068Y054757D01*
X071031Y054794D01*
X070958Y054794D01*
X070921Y054757D01*
X070921Y054721D01*
X070958Y054684D01*
X071068Y054684D01*
X071031Y056574D02*
X070958Y056574D01*
X070921Y056611D01*
X070921Y056647D01*
X070958Y056684D01*
X071031Y056684D01*
X071068Y056647D01*
X071068Y056611D01*
X071031Y056574D01*
X071031Y056684D02*
X071068Y056721D01*
X071068Y056757D01*
X071031Y056794D01*
X070958Y056794D01*
X070921Y056757D01*
X070921Y056721D01*
X070958Y056684D01*
X070847Y056721D02*
X070847Y056757D01*
X070810Y056794D01*
X070737Y056794D01*
X070700Y056757D01*
X070626Y056757D02*
X070626Y056684D01*
X070589Y056647D01*
X070479Y056647D01*
X070479Y056574D02*
X070479Y056794D01*
X070589Y056794D01*
X070626Y056757D01*
X070553Y056647D02*
X070626Y056574D01*
X070700Y056574D02*
X070847Y056721D01*
X070847Y056574D02*
X070700Y056574D01*
X070737Y048794D02*
X070810Y048794D01*
X070847Y048757D01*
X070847Y048721D01*
X070810Y048684D01*
X070847Y048647D01*
X070847Y048611D01*
X070810Y048574D01*
X070737Y048574D01*
X070700Y048611D01*
X070626Y048574D02*
X070553Y048647D01*
X070589Y048647D02*
X070479Y048647D01*
X070479Y048574D02*
X070479Y048794D01*
X070589Y048794D01*
X070626Y048757D01*
X070626Y048684D01*
X070589Y048647D01*
X070700Y048757D02*
X070737Y048794D01*
X070774Y048684D02*
X070810Y048684D01*
X070921Y048757D02*
X070958Y048794D01*
X071031Y048794D01*
X071068Y048757D01*
X071068Y048721D01*
X070921Y048574D01*
X071068Y048574D01*
M02*
