G75*
%MOIN*%
%OFA0B0*%
%FSLAX24Y24*%
%IPPOS*%
%LPD*%
%AMOC8*
5,1,8,0,0,1.08239X$1,22.5*
%
%ADD10C,0.1580*%
%ADD11R,0.0620X0.0620*%
%ADD12C,0.0620*%
%ADD13R,0.0477X0.0477*%
%ADD14R,0.0592X0.0671*%
%ADD15R,0.0671X0.0592*%
%ADD16R,0.1143X0.0789*%
%ADD17C,0.0755*%
%ADD18R,0.0755X0.0755*%
%ADD19R,0.0907X0.0907*%
%ADD20R,0.0513X0.0474*%
%ADD21R,0.0474X0.0513*%
%ADD22OC8,0.0710*%
%ADD23R,0.0820X0.0820*%
%ADD24C,0.0820*%
%ADD25C,0.0400*%
%ADD26C,0.0412*%
%ADD27C,0.1340*%
%ADD28R,0.0330X0.0580*%
%ADD29C,0.0050*%
%ADD30R,0.0880X0.0880*%
%ADD31C,0.0880*%
%ADD32C,0.0680*%
%ADD33R,0.0905X0.0905*%
%ADD34C,0.0905*%
%ADD35R,0.0631X0.0552*%
%ADD36R,0.0789X0.0710*%
%ADD37C,0.0580*%
%ADD38C,0.0437*%
%ADD39C,0.0480*%
%ADD40C,0.0476*%
%ADD41R,0.0476X0.0476*%
%ADD42C,0.0555*%
%ADD43C,0.0730*%
%ADD44C,0.0671*%
%ADD45C,0.0848*%
%ADD46C,0.0789*%
%ADD47C,0.1740*%
%ADD48OC8,0.0437*%
D10*
X005134Y002680D03*
X072134Y002680D03*
X054634Y072680D03*
X022634Y072680D03*
D11*
X017634Y069680D03*
X017634Y063180D03*
X017634Y051180D03*
X017634Y044680D03*
X017634Y031680D03*
X017634Y024680D03*
X032634Y037180D03*
X032134Y041680D03*
X071634Y042680D03*
X071634Y035680D03*
X071634Y022680D03*
X071634Y015680D03*
X071634Y068680D03*
D12*
X070634Y068680D03*
X069634Y068680D03*
X068634Y068680D03*
X067634Y068680D03*
X066634Y068680D03*
X065634Y068680D03*
X064634Y068680D03*
X063634Y068680D03*
X062634Y068680D03*
X061634Y068680D03*
X060634Y068680D03*
X059634Y068680D03*
X058634Y068680D03*
X058634Y065680D03*
X059634Y065680D03*
X060634Y065680D03*
X061634Y065680D03*
X062634Y065680D03*
X063634Y065680D03*
X064634Y065680D03*
X065634Y065680D03*
X066634Y065680D03*
X067634Y065680D03*
X068634Y065680D03*
X069634Y065680D03*
X070634Y065680D03*
X071634Y065680D03*
X070634Y042680D03*
X069634Y042680D03*
X068634Y042680D03*
X067634Y042680D03*
X066634Y042680D03*
X065634Y042680D03*
X064634Y042680D03*
X063634Y042680D03*
X062634Y042680D03*
X061634Y042680D03*
X060634Y042680D03*
X059634Y042680D03*
X058634Y042680D03*
X058634Y039680D03*
X059634Y039680D03*
X060634Y039680D03*
X061634Y039680D03*
X062634Y039680D03*
X063634Y039680D03*
X064634Y039680D03*
X065634Y039680D03*
X066634Y039680D03*
X067634Y039680D03*
X068634Y039680D03*
X069634Y039680D03*
X070634Y039680D03*
X071634Y039680D03*
X070634Y035680D03*
X069634Y035680D03*
X068634Y035680D03*
X067634Y035680D03*
X066634Y035680D03*
X065634Y035680D03*
X064634Y035680D03*
X063634Y035680D03*
X062634Y035680D03*
X061634Y035680D03*
X060634Y035680D03*
X060634Y032680D03*
X061634Y032680D03*
X062634Y032680D03*
X063634Y032680D03*
X064634Y032680D03*
X065634Y032680D03*
X066634Y032680D03*
X067634Y032680D03*
X068634Y032680D03*
X069634Y032680D03*
X070634Y032680D03*
X071634Y032680D03*
X070634Y022680D03*
X069634Y022680D03*
X068634Y022680D03*
X067634Y022680D03*
X066634Y022680D03*
X065634Y022680D03*
X064634Y022680D03*
X063634Y022680D03*
X062634Y022680D03*
X061634Y022680D03*
X060634Y022680D03*
X059634Y022680D03*
X058634Y022680D03*
X058634Y019680D03*
X059634Y019680D03*
X060634Y019680D03*
X061634Y019680D03*
X062634Y019680D03*
X063634Y019680D03*
X064634Y019680D03*
X065634Y019680D03*
X066634Y019680D03*
X067634Y019680D03*
X068634Y019680D03*
X069634Y019680D03*
X070634Y019680D03*
X071634Y019680D03*
X070634Y015680D03*
X069634Y015680D03*
X068634Y015680D03*
X067634Y015680D03*
X066634Y015680D03*
X065634Y015680D03*
X064634Y015680D03*
X063634Y015680D03*
X062634Y015680D03*
X061634Y015680D03*
X060634Y015680D03*
X060634Y012680D03*
X061634Y012680D03*
X062634Y012680D03*
X063634Y012680D03*
X064634Y012680D03*
X065634Y012680D03*
X066634Y012680D03*
X067634Y012680D03*
X068634Y012680D03*
X069634Y012680D03*
X070634Y012680D03*
X071634Y012680D03*
X045634Y037180D03*
X044634Y037180D03*
X043634Y037180D03*
X042634Y037180D03*
X041634Y037180D03*
X040634Y037180D03*
X039634Y037180D03*
X038634Y037180D03*
X037634Y037180D03*
X036634Y037180D03*
X035634Y037180D03*
X034634Y037180D03*
X033634Y037180D03*
X033634Y040180D03*
X034634Y040180D03*
X035634Y040180D03*
X036634Y040180D03*
X037634Y040180D03*
X038634Y040180D03*
X039634Y040180D03*
X040634Y040180D03*
X041634Y040180D03*
X042634Y040180D03*
X043634Y040180D03*
X044634Y040180D03*
X045634Y040180D03*
X035134Y041680D03*
X034134Y041680D03*
X033134Y041680D03*
X032634Y040180D03*
X033134Y044680D03*
X032134Y044680D03*
X034134Y044680D03*
X035134Y044680D03*
X017634Y041680D03*
X016634Y041680D03*
X015634Y041680D03*
X014634Y041680D03*
X013634Y041680D03*
X012634Y041680D03*
X011634Y041680D03*
X010634Y041680D03*
X009634Y041680D03*
X008634Y041680D03*
X007634Y041680D03*
X006634Y041680D03*
X006634Y044680D03*
X007634Y044680D03*
X008634Y044680D03*
X009634Y044680D03*
X010634Y044680D03*
X011634Y044680D03*
X012634Y044680D03*
X013634Y044680D03*
X014634Y044680D03*
X015634Y044680D03*
X016634Y044680D03*
X016634Y048180D03*
X015634Y048180D03*
X014634Y048180D03*
X013634Y048180D03*
X012634Y048180D03*
X011634Y048180D03*
X010634Y048180D03*
X009634Y048180D03*
X008634Y048180D03*
X007634Y048180D03*
X006634Y048180D03*
X005634Y048180D03*
X004634Y048180D03*
X004634Y051180D03*
X005634Y051180D03*
X006634Y051180D03*
X007634Y051180D03*
X008634Y051180D03*
X009634Y051180D03*
X010634Y051180D03*
X011634Y051180D03*
X012634Y051180D03*
X013634Y051180D03*
X014634Y051180D03*
X015634Y051180D03*
X016634Y051180D03*
X017634Y048180D03*
X017634Y060180D03*
X016634Y060180D03*
X015634Y060180D03*
X014634Y060180D03*
X013634Y060180D03*
X012634Y060180D03*
X011634Y060180D03*
X010634Y060180D03*
X009634Y060180D03*
X008634Y060180D03*
X007634Y060180D03*
X006634Y060180D03*
X006634Y063180D03*
X007634Y063180D03*
X008634Y063180D03*
X009634Y063180D03*
X010634Y063180D03*
X011634Y063180D03*
X012634Y063180D03*
X013634Y063180D03*
X014634Y063180D03*
X015634Y063180D03*
X016634Y063180D03*
X016634Y066680D03*
X015634Y066680D03*
X014634Y066680D03*
X013634Y066680D03*
X012634Y066680D03*
X011634Y066680D03*
X010634Y066680D03*
X009634Y066680D03*
X008634Y066680D03*
X007634Y066680D03*
X006634Y066680D03*
X005634Y066680D03*
X004634Y066680D03*
X004634Y069680D03*
X005634Y069680D03*
X006634Y069680D03*
X007634Y069680D03*
X008634Y069680D03*
X009634Y069680D03*
X010634Y069680D03*
X011634Y069680D03*
X012634Y069680D03*
X013634Y069680D03*
X014634Y069680D03*
X015634Y069680D03*
X016634Y069680D03*
X017634Y066680D03*
X016634Y031680D03*
X015634Y031680D03*
X014634Y031680D03*
X013634Y031680D03*
X012634Y031680D03*
X011634Y031680D03*
X010634Y031680D03*
X009634Y031680D03*
X008634Y031680D03*
X007634Y031680D03*
X006634Y031680D03*
X005634Y031680D03*
X004634Y031680D03*
X004634Y028680D03*
X005634Y028680D03*
X006634Y028680D03*
X007634Y028680D03*
X008634Y028680D03*
X009634Y028680D03*
X010634Y028680D03*
X011634Y028680D03*
X012634Y028680D03*
X013634Y028680D03*
X014634Y028680D03*
X015634Y028680D03*
X016634Y028680D03*
X017634Y028680D03*
X016634Y024680D03*
X015634Y024680D03*
X014634Y024680D03*
X013634Y024680D03*
X012634Y024680D03*
X011634Y024680D03*
X010634Y024680D03*
X009634Y024680D03*
X008634Y024680D03*
X007634Y024680D03*
X006634Y024680D03*
X006634Y021680D03*
X007634Y021680D03*
X008634Y021680D03*
X009634Y021680D03*
X010634Y021680D03*
X011634Y021680D03*
X012634Y021680D03*
X013634Y021680D03*
X014634Y021680D03*
X015634Y021680D03*
X016634Y021680D03*
X017634Y021680D03*
D13*
X010094Y033680D03*
X008173Y033680D03*
X008173Y053180D03*
X010094Y053180D03*
X010094Y071680D03*
X008173Y071680D03*
X040173Y034680D03*
X042094Y034680D03*
X062173Y024680D03*
X064094Y024680D03*
X064094Y044680D03*
X062173Y044680D03*
X062173Y071180D03*
X064094Y071180D03*
D14*
X063760Y073180D03*
X064508Y073180D03*
X062508Y073180D03*
X061760Y073180D03*
X065260Y064180D03*
X066008Y064180D03*
X065008Y046680D03*
X064260Y046680D03*
X062008Y046680D03*
X061260Y046680D03*
X061008Y037680D03*
X060260Y037680D03*
X062760Y037680D03*
X063508Y037680D03*
X065260Y037680D03*
X066008Y037680D03*
X067760Y037680D03*
X068508Y037680D03*
X070760Y037680D03*
X071508Y037680D03*
X070508Y044180D03*
X069760Y044180D03*
X065508Y030180D03*
X064760Y030180D03*
X063008Y030180D03*
X062260Y030180D03*
X062008Y026680D03*
X061260Y026680D03*
X064260Y026680D03*
X065008Y026680D03*
X068760Y024180D03*
X069508Y024180D03*
X069008Y017680D03*
X068260Y017680D03*
X066508Y017680D03*
X065760Y017680D03*
X064008Y017680D03*
X063260Y017680D03*
X061508Y017680D03*
X060760Y017680D03*
X061760Y010180D03*
X062508Y010180D03*
X063760Y010180D03*
X064508Y010180D03*
X070760Y017680D03*
X071508Y017680D03*
X043008Y032680D03*
X042260Y032680D03*
X040008Y032680D03*
X039260Y032680D03*
X037008Y034180D03*
X036260Y034180D03*
X036260Y035680D03*
X037008Y035680D03*
X037760Y041180D03*
X038508Y041180D03*
X017508Y046180D03*
X016760Y046180D03*
X015008Y046180D03*
X014260Y046180D03*
X012508Y046180D03*
X011760Y046180D03*
X010008Y046180D03*
X009260Y046180D03*
X007508Y046180D03*
X006760Y046180D03*
X008260Y039680D03*
X009008Y039680D03*
X010260Y039680D03*
X011008Y039680D03*
X011008Y035180D03*
X010260Y035180D03*
X008008Y035180D03*
X007260Y035180D03*
X014760Y033180D03*
X015508Y033180D03*
X015008Y026180D03*
X014260Y026180D03*
X012508Y026180D03*
X011760Y026180D03*
X010008Y026180D03*
X009260Y026180D03*
X007508Y026180D03*
X006760Y026180D03*
X008260Y019180D03*
X009008Y019180D03*
X010260Y019180D03*
X011008Y019180D03*
X016760Y026180D03*
X017508Y026180D03*
X016008Y053180D03*
X015260Y053180D03*
X011008Y054680D03*
X010260Y054680D03*
X008008Y054680D03*
X007260Y054680D03*
X007760Y058180D03*
X008508Y058180D03*
X009760Y058180D03*
X010508Y058180D03*
X010008Y064680D03*
X009260Y064680D03*
X007508Y064680D03*
X006760Y064680D03*
X011760Y064680D03*
X012508Y064680D03*
X014260Y064680D03*
X015008Y064680D03*
X016760Y064680D03*
X017508Y064680D03*
X016008Y071680D03*
X015260Y071680D03*
X011008Y073180D03*
X010260Y073180D03*
X008008Y073180D03*
X007260Y073180D03*
D15*
X012634Y072054D03*
X012634Y071306D03*
X004134Y064554D03*
X004134Y063806D03*
X004134Y062054D03*
X004134Y061306D03*
X012634Y053554D03*
X012634Y052806D03*
X013634Y057306D03*
X013634Y058054D03*
X015634Y058054D03*
X015634Y057306D03*
X018134Y057306D03*
X018134Y058054D03*
X004134Y046054D03*
X004134Y045306D03*
X004134Y043054D03*
X004134Y042306D03*
X012134Y034054D03*
X012134Y033306D03*
X013634Y038806D03*
X013634Y039554D03*
X015634Y039554D03*
X015634Y038806D03*
X017634Y038806D03*
X017634Y039554D03*
X004134Y026054D03*
X004134Y025306D03*
X004134Y023054D03*
X004134Y022306D03*
X013634Y019554D03*
X013634Y018806D03*
X015634Y018806D03*
X015634Y019554D03*
X017634Y019554D03*
X017634Y018806D03*
X038134Y034306D03*
X038134Y035054D03*
X044134Y035054D03*
X044134Y034306D03*
X058134Y034054D03*
X058134Y033306D03*
X058134Y036306D03*
X058134Y037054D03*
X066634Y044306D03*
X066634Y045054D03*
X067634Y030554D03*
X067634Y029806D03*
X069634Y029806D03*
X069634Y030554D03*
X071634Y030554D03*
X071634Y029806D03*
X066134Y025054D03*
X066134Y024306D03*
X058134Y017554D03*
X058134Y016806D03*
X058134Y014054D03*
X058134Y013306D03*
X067634Y010554D03*
X067634Y009806D03*
X069634Y009806D03*
X069634Y010554D03*
X071634Y010554D03*
X071634Y009806D03*
X045634Y048806D03*
X045634Y049554D03*
X039634Y049554D03*
X039634Y048806D03*
X066634Y070806D03*
X066634Y071554D03*
X068634Y071554D03*
X068634Y070806D03*
X070634Y070806D03*
X070634Y071554D03*
D16*
X058634Y031546D03*
X058634Y029814D03*
X058634Y011546D03*
X058634Y009814D03*
X004634Y018814D03*
X004634Y020546D03*
X004634Y038814D03*
X004634Y040546D03*
X004634Y057814D03*
X004634Y059546D03*
D17*
X032634Y034680D03*
X033634Y034680D03*
X051634Y034180D03*
X051634Y033180D03*
X051634Y032180D03*
X051634Y035180D03*
X070134Y005680D03*
X071134Y005680D03*
X072134Y005680D03*
X073134Y005680D03*
X021134Y010680D03*
X020134Y010680D03*
X019134Y010680D03*
X018134Y010680D03*
X014634Y010680D03*
X013634Y010680D03*
X012634Y010680D03*
X011634Y010680D03*
X008134Y010680D03*
X007134Y010680D03*
X006134Y010680D03*
X005134Y010680D03*
D18*
X004134Y010680D03*
X010634Y010680D03*
X017134Y010680D03*
X034634Y034680D03*
X051634Y036180D03*
X069134Y005680D03*
D19*
X070413Y026180D03*
X067854Y026180D03*
X068854Y046180D03*
X071413Y046180D03*
X071413Y073180D03*
X068854Y073180D03*
X039413Y042430D03*
X036854Y042430D03*
X030134Y039960D03*
X030134Y037400D03*
X016413Y035180D03*
X013854Y035180D03*
X014354Y054680D03*
X016913Y054680D03*
X016913Y073180D03*
X014354Y073180D03*
D20*
X013968Y013180D03*
X013299Y013180D03*
X011968Y013180D03*
X011299Y013180D03*
X007468Y013180D03*
X006799Y013180D03*
X005468Y013180D03*
X004799Y013180D03*
X017799Y013180D03*
X018468Y013180D03*
X019799Y013180D03*
X020468Y013180D03*
X069799Y008180D03*
X070468Y008180D03*
X071799Y008180D03*
X072468Y008180D03*
D21*
X053634Y032845D03*
X053634Y033515D03*
X053634Y034845D03*
X053634Y035515D03*
D22*
X058134Y061180D03*
X059134Y061180D03*
X060134Y061180D03*
X061134Y061180D03*
X061134Y064180D03*
X060134Y064180D03*
X059134Y064180D03*
X058134Y064180D03*
D23*
X051384Y061180D03*
X060634Y054180D03*
X063134Y054180D03*
X045384Y043180D03*
D24*
X044384Y043180D03*
X043384Y043180D03*
X042384Y043180D03*
X042884Y042180D03*
X043884Y042180D03*
X044884Y042180D03*
X041884Y042180D03*
X037134Y045680D03*
X034134Y045680D03*
X033134Y045680D03*
X030134Y045680D03*
X030134Y036180D03*
X028634Y036180D03*
X028634Y033180D03*
X030134Y033180D03*
X046634Y032680D03*
X047634Y032680D03*
X048634Y032680D03*
X048634Y034180D03*
X047634Y034180D03*
X046634Y034180D03*
X060634Y051180D03*
X060634Y052180D03*
X060634Y053180D03*
X063134Y053180D03*
X063134Y052180D03*
X063134Y051180D03*
X067134Y051180D03*
X068134Y051180D03*
X068134Y049180D03*
X067134Y049180D03*
X067134Y053180D03*
X068134Y053180D03*
X068134Y055180D03*
X067134Y055180D03*
X067134Y057180D03*
X068134Y057180D03*
X051384Y062180D03*
X051384Y063180D03*
X051384Y064180D03*
D25*
X053634Y064180D03*
D26*
X053634Y061180D03*
D27*
X045884Y045680D03*
X041384Y045680D03*
D28*
X042434Y041180D03*
X042834Y041180D03*
D29*
X030303Y042589D02*
X030291Y042552D01*
X030272Y042520D01*
X030245Y042492D01*
X030213Y042471D01*
X030178Y042457D01*
X030140Y042452D01*
X030100Y042456D01*
X030061Y042468D01*
X030027Y042488D01*
X029998Y042516D01*
X029975Y042550D01*
X029961Y042587D01*
X029956Y042627D01*
X029961Y042666D01*
X030302Y042666D01*
X030303Y042665D02*
X030307Y042627D01*
X030303Y042589D01*
X030297Y042569D02*
X029968Y042569D01*
X029957Y042618D02*
X030306Y042618D01*
X030303Y042665D02*
X030290Y042702D01*
X030270Y042735D01*
X030243Y042762D01*
X030210Y042783D01*
X030174Y042796D01*
X030136Y042801D01*
X030096Y042797D01*
X030059Y042785D01*
X030025Y042764D01*
X029996Y042737D01*
X029975Y042703D01*
X029961Y042666D01*
X029982Y042715D02*
X030282Y042715D01*
X030242Y042763D02*
X030024Y042763D01*
X029995Y042521D02*
X030273Y042521D01*
X030216Y042472D02*
X030054Y042472D01*
X030140Y043554D02*
X030100Y043558D01*
X030061Y043570D01*
X030027Y043590D01*
X029998Y043618D01*
X029975Y043652D01*
X029961Y043689D01*
X029956Y043729D01*
X029961Y043768D01*
X029975Y043806D01*
X029996Y043839D01*
X030025Y043866D01*
X030059Y043887D01*
X030096Y043899D01*
X030136Y043903D01*
X030174Y043898D01*
X030210Y043885D01*
X030243Y043864D01*
X030270Y043837D01*
X030290Y043804D01*
X030303Y043767D01*
X030307Y043729D01*
X030303Y043691D01*
X030291Y043654D01*
X030272Y043622D01*
X030245Y043594D01*
X030213Y043573D01*
X030178Y043559D01*
X030140Y043554D01*
X030236Y043588D02*
X030031Y043588D01*
X029986Y043636D02*
X030281Y043636D01*
X030301Y043685D02*
X029963Y043685D01*
X029956Y043733D02*
X030306Y043733D01*
X030298Y043782D02*
X029966Y043782D01*
X029991Y043830D02*
X030274Y043830D01*
X030221Y043879D02*
X030045Y043879D01*
X056466Y046639D02*
X056462Y046677D01*
X056465Y046715D01*
X056477Y046752D01*
X056496Y046785D01*
X056523Y046812D01*
X056555Y046833D01*
X056591Y046847D01*
X056629Y046852D01*
X056669Y046849D01*
X056707Y046836D01*
X056742Y046816D01*
X056771Y046788D01*
X056793Y046754D01*
X056807Y046717D01*
X056813Y046677D01*
X056808Y046638D01*
X056794Y046601D01*
X056772Y046567D01*
X056744Y046540D01*
X056710Y046519D01*
X056672Y046507D01*
X056633Y046503D01*
X056594Y046508D01*
X056558Y046521D01*
X056525Y046542D01*
X056498Y046569D01*
X056478Y046602D01*
X056466Y046639D01*
X056465Y046643D02*
X056808Y046643D01*
X056811Y046692D02*
X056463Y046692D01*
X056473Y046740D02*
X056798Y046740D01*
X056770Y046789D02*
X056500Y046789D01*
X056565Y046837D02*
X056704Y046837D01*
X056790Y046595D02*
X056483Y046595D01*
X056521Y046546D02*
X056750Y046546D01*
X056630Y049506D02*
X056591Y049511D01*
X056555Y049524D01*
X056522Y049545D01*
X056495Y049572D01*
X056475Y049605D01*
X056463Y049642D01*
X056459Y049680D01*
X056462Y049718D01*
X056474Y049755D01*
X056493Y049787D01*
X056520Y049815D01*
X056552Y049836D01*
X056588Y049850D01*
X056626Y049855D01*
X056666Y049851D01*
X056704Y049839D01*
X056739Y049819D01*
X056768Y049791D01*
X056790Y049757D01*
X056804Y049720D01*
X056810Y049680D01*
X056805Y049641D01*
X056791Y049604D01*
X056769Y049570D01*
X056741Y049543D01*
X056707Y049522D01*
X056669Y049510D01*
X056630Y049506D01*
X056514Y049553D02*
X056751Y049553D01*
X056790Y049602D02*
X056477Y049602D01*
X056462Y049650D02*
X056806Y049650D01*
X056807Y049699D02*
X056460Y049699D01*
X056471Y049747D02*
X056794Y049747D01*
X056763Y049796D02*
X056501Y049796D01*
X056573Y049844D02*
X056688Y049844D01*
X056633Y051003D02*
X056594Y051008D01*
X056558Y051021D01*
X056525Y051042D01*
X056498Y051069D01*
X056478Y051102D01*
X056466Y051139D01*
X056462Y051177D01*
X056465Y051215D01*
X056477Y051252D01*
X056496Y051285D01*
X056523Y051312D01*
X056555Y051333D01*
X056591Y051347D01*
X056629Y051352D01*
X056669Y051349D01*
X056707Y051336D01*
X056742Y051316D01*
X056771Y051288D01*
X056793Y051254D01*
X056807Y051217D01*
X056813Y051177D01*
X056808Y051138D01*
X056794Y051101D01*
X056772Y051067D01*
X056744Y051040D01*
X056710Y051019D01*
X056672Y051007D01*
X056633Y051003D01*
X056593Y051008D02*
X056676Y051008D01*
X056761Y051057D02*
X056510Y051057D01*
X056477Y051105D02*
X056796Y051105D01*
X056810Y051154D02*
X056464Y051154D01*
X056464Y051202D02*
X056809Y051202D01*
X056794Y051251D02*
X056477Y051251D01*
X056511Y051299D02*
X056759Y051299D01*
X056671Y051348D02*
X056597Y051348D01*
X056630Y054006D02*
X056591Y054011D01*
X056555Y054024D01*
X056522Y054045D01*
X056495Y054072D01*
X056475Y054105D01*
X056463Y054142D01*
X056459Y054180D01*
X056462Y054218D01*
X056474Y054255D01*
X056493Y054287D01*
X056520Y054315D01*
X056552Y054336D01*
X056588Y054350D01*
X056626Y054355D01*
X056666Y054351D01*
X056704Y054339D01*
X056739Y054319D01*
X056768Y054291D01*
X056790Y054257D01*
X056804Y054220D01*
X056810Y054180D01*
X056805Y054141D01*
X056791Y054104D01*
X056769Y054070D01*
X056741Y054043D01*
X056707Y054022D01*
X056669Y054010D01*
X056630Y054006D01*
X056579Y054015D02*
X056686Y054015D01*
X056762Y054064D02*
X056504Y054064D01*
X056473Y054112D02*
X056794Y054112D01*
X056807Y054161D02*
X056461Y054161D01*
X056461Y054209D02*
X056806Y054209D01*
X056790Y054258D02*
X056476Y054258D01*
X056511Y054306D02*
X056752Y054306D01*
X056628Y054355D02*
X056624Y054355D01*
X056633Y055503D02*
X056594Y055508D01*
X056558Y055521D01*
X056525Y055542D01*
X056498Y055569D01*
X056478Y055602D01*
X056466Y055639D01*
X056462Y055677D01*
X056465Y055715D01*
X056477Y055752D01*
X056496Y055785D01*
X056523Y055812D01*
X056555Y055833D01*
X056591Y055847D01*
X056629Y055852D01*
X056669Y055849D01*
X056707Y055836D01*
X056742Y055816D01*
X056771Y055788D01*
X056793Y055754D01*
X056807Y055717D01*
X056813Y055677D01*
X056808Y055638D01*
X056794Y055601D01*
X056772Y055567D01*
X056500Y055567D01*
X056473Y055616D02*
X056799Y055616D01*
X056811Y055664D02*
X056463Y055664D01*
X056465Y055713D02*
X056808Y055713D01*
X056788Y055761D02*
X056483Y055761D01*
X056521Y055810D02*
X056748Y055810D01*
X056772Y055567D02*
X056744Y055540D01*
X056710Y055519D01*
X056672Y055507D01*
X056633Y055503D01*
X056563Y055519D02*
X056708Y055519D01*
X056630Y058506D02*
X056591Y058511D01*
X056555Y058524D01*
X056522Y058545D01*
X056495Y058572D01*
X056475Y058605D01*
X056463Y058642D01*
X056459Y058680D01*
X056462Y058718D01*
X056474Y058755D01*
X056493Y058787D01*
X056520Y058815D01*
X056552Y058836D01*
X056588Y058850D01*
X056626Y058855D01*
X056666Y058851D01*
X056704Y058839D01*
X056739Y058819D01*
X056768Y058791D01*
X056790Y058757D01*
X056804Y058720D01*
X056810Y058680D01*
X056805Y058641D01*
X056791Y058604D01*
X056769Y058570D01*
X056741Y058543D01*
X056707Y058522D01*
X056669Y058510D01*
X056630Y058506D01*
X056552Y058526D02*
X056713Y058526D01*
X056772Y058574D02*
X056494Y058574D01*
X056469Y058623D02*
X056798Y058623D01*
X056808Y058671D02*
X056460Y058671D01*
X056463Y058720D02*
X056804Y058720D01*
X056783Y058768D02*
X056482Y058768D01*
X056522Y058817D02*
X056740Y058817D01*
D30*
X034634Y049180D03*
X051634Y027680D03*
X066634Y005680D03*
X020134Y006680D03*
X013634Y006680D03*
X007134Y006680D03*
D31*
X005165Y006680D03*
X011665Y006680D03*
X018165Y006680D03*
X051634Y029649D03*
X036602Y049180D03*
X064665Y005680D03*
D32*
X054934Y047180D02*
X054334Y047180D01*
X054334Y048180D02*
X054934Y048180D01*
X054934Y049180D02*
X054334Y049180D01*
X054334Y051680D02*
X054934Y051680D01*
X054934Y052680D02*
X054334Y052680D01*
X054334Y053680D02*
X054934Y053680D01*
X054934Y056180D02*
X054334Y056180D01*
X054334Y057180D02*
X054934Y057180D01*
X054934Y058180D02*
X054334Y058180D01*
D33*
X041634Y049180D03*
D34*
X042634Y049180D03*
X043634Y049180D03*
D35*
X031384Y036271D03*
X031384Y035089D03*
X005634Y035089D03*
X004634Y035089D03*
X003634Y035089D03*
X003634Y036271D03*
X004634Y036271D03*
X005634Y036271D03*
X005634Y054589D03*
X004634Y054589D03*
X003634Y054589D03*
X003634Y055771D03*
X004634Y055771D03*
X005634Y055771D03*
X005634Y073089D03*
X004634Y073089D03*
X003634Y073089D03*
X003634Y074271D03*
X004634Y074271D03*
X005634Y074271D03*
X057884Y073271D03*
X058884Y073271D03*
X059884Y073271D03*
X059884Y072089D03*
X058884Y072089D03*
X057884Y072089D03*
X058134Y047271D03*
X058134Y046089D03*
X059134Y046089D03*
X060134Y046089D03*
X060134Y047271D03*
X059134Y047271D03*
X058884Y027271D03*
X057884Y027271D03*
X057884Y026089D03*
X058884Y026089D03*
X059884Y026089D03*
X059884Y027271D03*
D36*
X059884Y024981D03*
X058884Y024981D03*
X057884Y024981D03*
X057884Y023879D03*
X058884Y023879D03*
X059884Y023879D03*
X060134Y043879D03*
X059134Y043879D03*
X059134Y044981D03*
X060134Y044981D03*
X058134Y044981D03*
X058134Y043879D03*
X057884Y069879D03*
X058884Y069879D03*
X059884Y069879D03*
X059884Y070981D03*
X058884Y070981D03*
X057884Y070981D03*
X031384Y033981D03*
X031384Y032879D03*
X005634Y032879D03*
X004634Y032879D03*
X003634Y032879D03*
X003634Y033981D03*
X004634Y033981D03*
X005634Y033981D03*
X005634Y052379D03*
X004634Y052379D03*
X004634Y053481D03*
X005634Y053481D03*
X003634Y053481D03*
X003634Y052379D03*
X003634Y070879D03*
X003634Y071981D03*
X004634Y071981D03*
X005634Y071981D03*
X005634Y070879D03*
X004634Y070879D03*
D37*
X027884Y040930D03*
X027384Y033680D03*
X069649Y049180D03*
X069649Y051180D03*
X071618Y051180D03*
X071618Y049180D03*
X071618Y053180D03*
X069649Y053180D03*
X069649Y055180D03*
X069649Y057180D03*
X071618Y057180D03*
X071618Y055180D03*
D38*
X060884Y047430D03*
X060134Y048180D03*
X059634Y048180D03*
X059134Y048180D03*
X058634Y048180D03*
X058134Y048180D03*
X061634Y044180D03*
X058884Y040430D03*
X057634Y040680D03*
X057634Y041180D03*
X055634Y041180D03*
X055634Y040680D03*
X049384Y039180D03*
X048884Y039180D03*
X048384Y039430D03*
X047884Y039680D03*
X047384Y039930D03*
X049384Y037180D03*
X043384Y040930D03*
X042134Y039680D03*
X042634Y039180D03*
X042634Y038680D03*
X037634Y038430D03*
X036634Y038430D03*
X035634Y038430D03*
X037134Y036430D03*
X030134Y034430D03*
X016134Y043430D03*
X015134Y043430D03*
X010634Y043430D03*
X016884Y049180D03*
X017634Y049180D03*
X012134Y050430D03*
X011134Y050430D03*
X005134Y050430D03*
X004134Y050430D03*
X006384Y055930D03*
X014134Y061680D03*
X016134Y062680D03*
X018634Y061180D03*
X019134Y061180D03*
X019134Y056430D03*
X018634Y056430D03*
X018634Y055430D03*
X019134Y055430D03*
X004134Y068930D03*
X006384Y074430D03*
X006384Y036430D03*
X005134Y030930D03*
X004134Y030930D03*
X011134Y030930D03*
X012134Y030930D03*
X016134Y023930D03*
X049634Y043930D03*
X049634Y044430D03*
X049634Y044930D03*
X049634Y045430D03*
X049634Y045930D03*
X060634Y027430D03*
X061384Y024180D03*
X059134Y021180D03*
X063634Y018680D03*
X073384Y020680D03*
X073884Y020180D03*
X070634Y040680D03*
X071634Y040930D03*
X069884Y074430D03*
D39*
X025884Y032930D03*
X025384Y032930D03*
X022884Y029930D03*
X022384Y029930D03*
X021884Y037430D03*
X003384Y037430D03*
X009134Y016180D03*
X009634Y016180D03*
X003384Y009430D03*
D40*
X009634Y027180D03*
X005634Y040680D03*
X009634Y047180D03*
X005634Y059180D03*
D41*
X005884Y020680D03*
X063634Y009180D03*
X066134Y009180D03*
X066634Y029680D03*
D42*
X068634Y029180D03*
X063634Y028430D03*
X056884Y033430D03*
X054634Y036680D03*
X054134Y043430D03*
X052384Y043430D03*
X056134Y043430D03*
X056384Y013680D03*
D43*
X050884Y030430D03*
D44*
X050634Y048930D03*
X058634Y050430D03*
D45*
X050884Y039430D03*
X050884Y036930D03*
X032134Y046680D03*
D46*
X049884Y049806D03*
X050134Y046680D03*
X050134Y040180D03*
X050134Y036430D03*
D47*
X038634Y062680D03*
D48*
X024134Y036180D03*
X024384Y035180D03*
M02*
