G75*
%MOIN*%
%OFA0B0*%
%FSLAX24Y24*%
%IPPOS*%
%LPD*%
%AMOC8*
5,1,8,0,0,1.08239X$1,22.5*
%
%ADD10R,0.0540X0.0540*%
%ADD11C,0.0540*%
%ADD12R,0.0397X0.0397*%
%ADD13R,0.0512X0.0591*%
%ADD14R,0.0591X0.0512*%
%ADD15R,0.1063X0.0709*%
%ADD16C,0.0675*%
%ADD17R,0.0675X0.0675*%
%ADD18R,0.0827X0.0827*%
%ADD19R,0.0433X0.0394*%
%ADD20R,0.0394X0.0433*%
%ADD21OC8,0.0630*%
%ADD22R,0.0740X0.0740*%
%ADD23C,0.0740*%
%ADD24C,0.0080*%
%ADD25R,0.0250X0.0500*%
%ADD26C,0.0800*%
%ADD27R,0.0800X0.0800*%
%ADD28C,0.0600*%
%ADD29R,0.0825X0.0825*%
%ADD30C,0.0825*%
%ADD31R,0.0551X0.0472*%
%ADD32R,0.0709X0.0630*%
%ADD33C,0.0500*%
%ADD34C,0.0160*%
%ADD35C,0.0357*%
%ADD36C,0.0320*%
%ADD37C,0.0400*%
%ADD38C,0.0396*%
%ADD39R,0.0396X0.0396*%
%ADD40C,0.0240*%
%ADD41C,0.0500*%
%ADD42C,0.0400*%
%ADD43C,0.0475*%
%ADD44C,0.0650*%
%ADD45C,0.0591*%
%ADD46C,0.1000*%
%ADD47C,0.0768*%
%ADD48C,0.0709*%
%ADD49C,0.0100*%
%ADD50C,0.1660*%
%ADD51OC8,0.0357*%
D10*
X017634Y024680D03*
X017634Y031680D03*
X017634Y044680D03*
X017634Y051180D03*
X017634Y063180D03*
X017634Y069680D03*
X032134Y041680D03*
X032634Y037180D03*
X071634Y035680D03*
X071634Y042680D03*
X071634Y022680D03*
X071634Y015680D03*
X071634Y068680D03*
D11*
X070634Y068680D03*
X069634Y068680D03*
X068634Y068680D03*
X067634Y068680D03*
X066634Y068680D03*
X065634Y068680D03*
X064634Y068680D03*
X063634Y068680D03*
X062634Y068680D03*
X061634Y068680D03*
X060634Y068680D03*
X059634Y068680D03*
X058634Y068680D03*
X058634Y065680D03*
X059634Y065680D03*
X060634Y065680D03*
X061634Y065680D03*
X062634Y065680D03*
X063634Y065680D03*
X064634Y065680D03*
X065634Y065680D03*
X066634Y065680D03*
X067634Y065680D03*
X068634Y065680D03*
X069634Y065680D03*
X070634Y065680D03*
X071634Y065680D03*
X070634Y042680D03*
X069634Y042680D03*
X068634Y042680D03*
X067634Y042680D03*
X066634Y042680D03*
X065634Y042680D03*
X064634Y042680D03*
X063634Y042680D03*
X062634Y042680D03*
X061634Y042680D03*
X060634Y042680D03*
X059634Y042680D03*
X058634Y042680D03*
X058634Y039680D03*
X059634Y039680D03*
X060634Y039680D03*
X061634Y039680D03*
X062634Y039680D03*
X063634Y039680D03*
X064634Y039680D03*
X065634Y039680D03*
X066634Y039680D03*
X067634Y039680D03*
X068634Y039680D03*
X069634Y039680D03*
X070634Y039680D03*
X071634Y039680D03*
X070634Y035680D03*
X069634Y035680D03*
X068634Y035680D03*
X067634Y035680D03*
X066634Y035680D03*
X065634Y035680D03*
X064634Y035680D03*
X063634Y035680D03*
X062634Y035680D03*
X061634Y035680D03*
X060634Y035680D03*
X060634Y032680D03*
X061634Y032680D03*
X062634Y032680D03*
X063634Y032680D03*
X064634Y032680D03*
X065634Y032680D03*
X066634Y032680D03*
X067634Y032680D03*
X068634Y032680D03*
X069634Y032680D03*
X070634Y032680D03*
X071634Y032680D03*
X070634Y022680D03*
X069634Y022680D03*
X068634Y022680D03*
X067634Y022680D03*
X066634Y022680D03*
X065634Y022680D03*
X064634Y022680D03*
X063634Y022680D03*
X062634Y022680D03*
X061634Y022680D03*
X060634Y022680D03*
X059634Y022680D03*
X058634Y022680D03*
X058634Y019680D03*
X059634Y019680D03*
X060634Y019680D03*
X061634Y019680D03*
X062634Y019680D03*
X063634Y019680D03*
X064634Y019680D03*
X065634Y019680D03*
X066634Y019680D03*
X067634Y019680D03*
X068634Y019680D03*
X069634Y019680D03*
X070634Y019680D03*
X071634Y019680D03*
X070634Y015680D03*
X069634Y015680D03*
X068634Y015680D03*
X067634Y015680D03*
X066634Y015680D03*
X065634Y015680D03*
X064634Y015680D03*
X063634Y015680D03*
X062634Y015680D03*
X061634Y015680D03*
X060634Y015680D03*
X060634Y012680D03*
X061634Y012680D03*
X062634Y012680D03*
X063634Y012680D03*
X064634Y012680D03*
X065634Y012680D03*
X066634Y012680D03*
X067634Y012680D03*
X068634Y012680D03*
X069634Y012680D03*
X070634Y012680D03*
X071634Y012680D03*
X045634Y037180D03*
X044634Y037180D03*
X043634Y037180D03*
X042634Y037180D03*
X041634Y037180D03*
X040634Y037180D03*
X039634Y037180D03*
X038634Y037180D03*
X037634Y037180D03*
X036634Y037180D03*
X035634Y037180D03*
X034634Y037180D03*
X033634Y037180D03*
X033634Y040180D03*
X034634Y040180D03*
X035634Y040180D03*
X036634Y040180D03*
X037634Y040180D03*
X038634Y040180D03*
X039634Y040180D03*
X040634Y040180D03*
X041634Y040180D03*
X042634Y040180D03*
X043634Y040180D03*
X044634Y040180D03*
X045634Y040180D03*
X035134Y041680D03*
X034134Y041680D03*
X033134Y041680D03*
X032634Y040180D03*
X033134Y044680D03*
X032134Y044680D03*
X034134Y044680D03*
X035134Y044680D03*
X017634Y041680D03*
X016634Y041680D03*
X015634Y041680D03*
X014634Y041680D03*
X013634Y041680D03*
X012634Y041680D03*
X011634Y041680D03*
X010634Y041680D03*
X009634Y041680D03*
X008634Y041680D03*
X007634Y041680D03*
X006634Y041680D03*
X006634Y044680D03*
X007634Y044680D03*
X008634Y044680D03*
X009634Y044680D03*
X010634Y044680D03*
X011634Y044680D03*
X012634Y044680D03*
X013634Y044680D03*
X014634Y044680D03*
X015634Y044680D03*
X016634Y044680D03*
X016634Y048180D03*
X015634Y048180D03*
X014634Y048180D03*
X013634Y048180D03*
X012634Y048180D03*
X011634Y048180D03*
X010634Y048180D03*
X009634Y048180D03*
X008634Y048180D03*
X007634Y048180D03*
X006634Y048180D03*
X005634Y048180D03*
X004634Y048180D03*
X004634Y051180D03*
X005634Y051180D03*
X006634Y051180D03*
X007634Y051180D03*
X008634Y051180D03*
X009634Y051180D03*
X010634Y051180D03*
X011634Y051180D03*
X012634Y051180D03*
X013634Y051180D03*
X014634Y051180D03*
X015634Y051180D03*
X016634Y051180D03*
X017634Y048180D03*
X017634Y060180D03*
X016634Y060180D03*
X015634Y060180D03*
X014634Y060180D03*
X013634Y060180D03*
X012634Y060180D03*
X011634Y060180D03*
X010634Y060180D03*
X009634Y060180D03*
X008634Y060180D03*
X007634Y060180D03*
X006634Y060180D03*
X006634Y063180D03*
X007634Y063180D03*
X008634Y063180D03*
X009634Y063180D03*
X010634Y063180D03*
X011634Y063180D03*
X012634Y063180D03*
X013634Y063180D03*
X014634Y063180D03*
X015634Y063180D03*
X016634Y063180D03*
X016634Y066680D03*
X015634Y066680D03*
X014634Y066680D03*
X013634Y066680D03*
X012634Y066680D03*
X011634Y066680D03*
X010634Y066680D03*
X009634Y066680D03*
X008634Y066680D03*
X007634Y066680D03*
X006634Y066680D03*
X005634Y066680D03*
X004634Y066680D03*
X004634Y069680D03*
X005634Y069680D03*
X006634Y069680D03*
X007634Y069680D03*
X008634Y069680D03*
X009634Y069680D03*
X010634Y069680D03*
X011634Y069680D03*
X012634Y069680D03*
X013634Y069680D03*
X014634Y069680D03*
X015634Y069680D03*
X016634Y069680D03*
X017634Y066680D03*
X016634Y031680D03*
X015634Y031680D03*
X014634Y031680D03*
X013634Y031680D03*
X012634Y031680D03*
X011634Y031680D03*
X010634Y031680D03*
X009634Y031680D03*
X008634Y031680D03*
X007634Y031680D03*
X006634Y031680D03*
X005634Y031680D03*
X004634Y031680D03*
X004634Y028680D03*
X005634Y028680D03*
X006634Y028680D03*
X007634Y028680D03*
X008634Y028680D03*
X009634Y028680D03*
X010634Y028680D03*
X011634Y028680D03*
X012634Y028680D03*
X013634Y028680D03*
X014634Y028680D03*
X015634Y028680D03*
X016634Y028680D03*
X017634Y028680D03*
X016634Y024680D03*
X015634Y024680D03*
X014634Y024680D03*
X013634Y024680D03*
X012634Y024680D03*
X011634Y024680D03*
X010634Y024680D03*
X009634Y024680D03*
X008634Y024680D03*
X007634Y024680D03*
X006634Y024680D03*
X006634Y021680D03*
X007634Y021680D03*
X008634Y021680D03*
X009634Y021680D03*
X010634Y021680D03*
X011634Y021680D03*
X012634Y021680D03*
X013634Y021680D03*
X014634Y021680D03*
X015634Y021680D03*
X016634Y021680D03*
X017634Y021680D03*
D12*
X010094Y033680D03*
X008173Y033680D03*
X008173Y053180D03*
X010094Y053180D03*
X010094Y071680D03*
X008173Y071680D03*
X040173Y034680D03*
X042094Y034680D03*
X062173Y024680D03*
X064094Y024680D03*
X064094Y044680D03*
X062173Y044680D03*
X062173Y071180D03*
X064094Y071180D03*
D13*
X063760Y073180D03*
X064508Y073180D03*
X062508Y073180D03*
X061760Y073180D03*
X065260Y064180D03*
X066008Y064180D03*
X065008Y046680D03*
X064260Y046680D03*
X062008Y046680D03*
X061260Y046680D03*
X061008Y037680D03*
X060260Y037680D03*
X062760Y037680D03*
X063508Y037680D03*
X065260Y037680D03*
X066008Y037680D03*
X067760Y037680D03*
X068508Y037680D03*
X070760Y037680D03*
X071508Y037680D03*
X070508Y044180D03*
X069760Y044180D03*
X065508Y030180D03*
X064760Y030180D03*
X063008Y030180D03*
X062260Y030180D03*
X062008Y026680D03*
X061260Y026680D03*
X064260Y026680D03*
X065008Y026680D03*
X068760Y024180D03*
X069508Y024180D03*
X069008Y017680D03*
X068260Y017680D03*
X066508Y017680D03*
X065760Y017680D03*
X064008Y017680D03*
X063260Y017680D03*
X061508Y017680D03*
X060760Y017680D03*
X061760Y010180D03*
X062508Y010180D03*
X063760Y010180D03*
X064508Y010180D03*
X070760Y017680D03*
X071508Y017680D03*
X043008Y032680D03*
X042260Y032680D03*
X040008Y032680D03*
X039260Y032680D03*
X037008Y034180D03*
X036260Y034180D03*
X036260Y035680D03*
X037008Y035680D03*
X037760Y041180D03*
X038508Y041180D03*
X017508Y046180D03*
X016760Y046180D03*
X015008Y046180D03*
X014260Y046180D03*
X012508Y046180D03*
X011760Y046180D03*
X010008Y046180D03*
X009260Y046180D03*
X007508Y046180D03*
X006760Y046180D03*
X008260Y039680D03*
X009008Y039680D03*
X010260Y039680D03*
X011008Y039680D03*
X011008Y035180D03*
X010260Y035180D03*
X008008Y035180D03*
X007260Y035180D03*
X014760Y033180D03*
X015508Y033180D03*
X015008Y026180D03*
X014260Y026180D03*
X012508Y026180D03*
X011760Y026180D03*
X010008Y026180D03*
X009260Y026180D03*
X007508Y026180D03*
X006760Y026180D03*
X008260Y019180D03*
X009008Y019180D03*
X010260Y019180D03*
X011008Y019180D03*
X016760Y026180D03*
X017508Y026180D03*
X016008Y053180D03*
X015260Y053180D03*
X011008Y054680D03*
X010260Y054680D03*
X008008Y054680D03*
X007260Y054680D03*
X007760Y058180D03*
X008508Y058180D03*
X009760Y058180D03*
X010508Y058180D03*
X010008Y064680D03*
X009260Y064680D03*
X007508Y064680D03*
X006760Y064680D03*
X011760Y064680D03*
X012508Y064680D03*
X014260Y064680D03*
X015008Y064680D03*
X016760Y064680D03*
X017508Y064680D03*
X016008Y071680D03*
X015260Y071680D03*
X011008Y073180D03*
X010260Y073180D03*
X008008Y073180D03*
X007260Y073180D03*
D14*
X012634Y072054D03*
X012634Y071306D03*
X004134Y064554D03*
X004134Y063806D03*
X004134Y062054D03*
X004134Y061306D03*
X012634Y053554D03*
X012634Y052806D03*
X013634Y057306D03*
X013634Y058054D03*
X015634Y058054D03*
X015634Y057306D03*
X018134Y057306D03*
X018134Y058054D03*
X004134Y046054D03*
X004134Y045306D03*
X004134Y043054D03*
X004134Y042306D03*
X012134Y034054D03*
X012134Y033306D03*
X013634Y038806D03*
X013634Y039554D03*
X015634Y039554D03*
X015634Y038806D03*
X017634Y038806D03*
X017634Y039554D03*
X004134Y026054D03*
X004134Y025306D03*
X004134Y023054D03*
X004134Y022306D03*
X013634Y019554D03*
X013634Y018806D03*
X015634Y018806D03*
X015634Y019554D03*
X017634Y019554D03*
X017634Y018806D03*
X038134Y034306D03*
X038134Y035054D03*
X044134Y035054D03*
X044134Y034306D03*
X058134Y034054D03*
X058134Y033306D03*
X058134Y036306D03*
X058134Y037054D03*
X066634Y044306D03*
X066634Y045054D03*
X067634Y030554D03*
X067634Y029806D03*
X069634Y029806D03*
X069634Y030554D03*
X071634Y030554D03*
X071634Y029806D03*
X066134Y025054D03*
X066134Y024306D03*
X058134Y017554D03*
X058134Y016806D03*
X058134Y014054D03*
X058134Y013306D03*
X067634Y010554D03*
X067634Y009806D03*
X069634Y009806D03*
X069634Y010554D03*
X071634Y010554D03*
X071634Y009806D03*
X045634Y048806D03*
X045634Y049554D03*
X039634Y049554D03*
X039634Y048806D03*
X066634Y070806D03*
X066634Y071554D03*
X068634Y071554D03*
X068634Y070806D03*
X070634Y070806D03*
X070634Y071554D03*
D15*
X058634Y031546D03*
X058634Y029814D03*
X058634Y011546D03*
X058634Y009814D03*
X004634Y018814D03*
X004634Y020546D03*
X004634Y038814D03*
X004634Y040546D03*
X004634Y057814D03*
X004634Y059546D03*
D16*
X032634Y034680D03*
X033634Y034680D03*
X051634Y034180D03*
X051634Y033180D03*
X051634Y032180D03*
X051634Y035180D03*
X070134Y005680D03*
X071134Y005680D03*
X072134Y005680D03*
X073134Y005680D03*
X021134Y010680D03*
X020134Y010680D03*
X019134Y010680D03*
X018134Y010680D03*
X014634Y010680D03*
X013634Y010680D03*
X012634Y010680D03*
X011634Y010680D03*
X008134Y010680D03*
X007134Y010680D03*
X006134Y010680D03*
X005134Y010680D03*
D17*
X004134Y010680D03*
X010634Y010680D03*
X017134Y010680D03*
X034634Y034680D03*
X051634Y036180D03*
X069134Y005680D03*
D18*
X070413Y026180D03*
X067854Y026180D03*
X068854Y046180D03*
X071413Y046180D03*
X071413Y073180D03*
X068854Y073180D03*
X039413Y042430D03*
X036854Y042430D03*
X030134Y039960D03*
X030134Y037400D03*
X016413Y035180D03*
X013854Y035180D03*
X014354Y054680D03*
X016913Y054680D03*
X016913Y073180D03*
X014354Y073180D03*
D19*
X013968Y013180D03*
X013299Y013180D03*
X011968Y013180D03*
X011299Y013180D03*
X007468Y013180D03*
X006799Y013180D03*
X005468Y013180D03*
X004799Y013180D03*
X017799Y013180D03*
X018468Y013180D03*
X019799Y013180D03*
X020468Y013180D03*
X069799Y008180D03*
X070468Y008180D03*
X071799Y008180D03*
X072468Y008180D03*
D20*
X053634Y032845D03*
X053634Y033515D03*
X053634Y034845D03*
X053634Y035515D03*
D21*
X058134Y061180D03*
X059134Y061180D03*
X060134Y061180D03*
X061134Y061180D03*
X061134Y064180D03*
X060134Y064180D03*
X059134Y064180D03*
X058134Y064180D03*
D22*
X051384Y061180D03*
X060634Y054180D03*
X063134Y054180D03*
X045384Y043180D03*
D23*
X044384Y043180D03*
X043384Y043180D03*
X042384Y043180D03*
X042884Y042180D03*
X043884Y042180D03*
X044884Y042180D03*
X041884Y042180D03*
X037134Y045680D03*
X034134Y045680D03*
X033134Y045680D03*
X030134Y045680D03*
X030134Y036180D03*
X028634Y036180D03*
X028634Y033180D03*
X030134Y033180D03*
X046634Y032680D03*
X047634Y032680D03*
X048634Y032680D03*
X048634Y034180D03*
X047634Y034180D03*
X046634Y034180D03*
X060634Y051180D03*
X060634Y052180D03*
X060634Y053180D03*
X063134Y053180D03*
X063134Y052180D03*
X063134Y051180D03*
X067134Y051180D03*
X068134Y051180D03*
X068134Y049180D03*
X067134Y049180D03*
X067134Y053180D03*
X068134Y053180D03*
X068134Y055180D03*
X067134Y055180D03*
X067134Y057180D03*
X068134Y057180D03*
X053634Y061180D03*
X051384Y062180D03*
X051384Y063180D03*
X051384Y064180D03*
X053634Y064180D03*
D24*
X042784Y041180D02*
X042484Y041180D01*
D25*
X042434Y041180D03*
X042834Y041180D03*
D26*
X005165Y006680D03*
X011665Y006680D03*
X018165Y006680D03*
X051634Y029649D03*
X056634Y046680D03*
X056634Y049680D03*
X056634Y051180D03*
X056634Y054180D03*
X056634Y055680D03*
X056634Y058680D03*
X036602Y049180D03*
X030134Y043730D03*
X030134Y042630D03*
X064665Y005680D03*
D27*
X066634Y005680D03*
X051634Y027680D03*
X034634Y049180D03*
X020134Y006680D03*
X013634Y006680D03*
X007134Y006680D03*
D28*
X054334Y047180D02*
X054934Y047180D01*
X054934Y048180D02*
X054334Y048180D01*
X054334Y049180D02*
X054934Y049180D01*
X054934Y051680D02*
X054334Y051680D01*
X054334Y052680D02*
X054934Y052680D01*
X054934Y053680D02*
X054334Y053680D01*
X054334Y056180D02*
X054934Y056180D01*
X054934Y057180D02*
X054334Y057180D01*
X054334Y058180D02*
X054934Y058180D01*
D29*
X041634Y049180D03*
D30*
X042634Y049180D03*
X043634Y049180D03*
D31*
X031384Y036271D03*
X031384Y035089D03*
X005634Y035089D03*
X004634Y035089D03*
X003634Y035089D03*
X003634Y036271D03*
X004634Y036271D03*
X005634Y036271D03*
X005634Y054589D03*
X004634Y054589D03*
X003634Y054589D03*
X003634Y055771D03*
X004634Y055771D03*
X005634Y055771D03*
X005634Y073089D03*
X004634Y073089D03*
X003634Y073089D03*
X003634Y074271D03*
X004634Y074271D03*
X005634Y074271D03*
X057884Y073271D03*
X058884Y073271D03*
X059884Y073271D03*
X059884Y072089D03*
X058884Y072089D03*
X057884Y072089D03*
X058134Y047271D03*
X058134Y046089D03*
X059134Y046089D03*
X060134Y046089D03*
X060134Y047271D03*
X059134Y047271D03*
X058884Y027271D03*
X057884Y027271D03*
X057884Y026089D03*
X058884Y026089D03*
X059884Y026089D03*
X059884Y027271D03*
D32*
X059884Y024981D03*
X058884Y024981D03*
X057884Y024981D03*
X057884Y023879D03*
X058884Y023879D03*
X059884Y023879D03*
X060134Y043879D03*
X059134Y043879D03*
X059134Y044981D03*
X060134Y044981D03*
X058134Y044981D03*
X058134Y043879D03*
X057884Y069879D03*
X058884Y069879D03*
X059884Y069879D03*
X059884Y070981D03*
X058884Y070981D03*
X057884Y070981D03*
X031384Y033981D03*
X031384Y032879D03*
X005634Y032879D03*
X004634Y032879D03*
X003634Y032879D03*
X003634Y033981D03*
X004634Y033981D03*
X005634Y033981D03*
X005634Y052379D03*
X004634Y052379D03*
X004634Y053481D03*
X005634Y053481D03*
X003634Y053481D03*
X003634Y052379D03*
X003634Y070879D03*
X003634Y071981D03*
X004634Y071981D03*
X005634Y071981D03*
X005634Y070879D03*
X004634Y070879D03*
D33*
X027884Y040930D03*
X027384Y033680D03*
X069649Y049180D03*
X069649Y051180D03*
X071618Y051180D03*
X071618Y049180D03*
X071618Y053180D03*
X069649Y053180D03*
X069649Y055180D03*
X069649Y057180D03*
X071618Y057180D03*
X071618Y055180D03*
D34*
X069649Y055180D02*
X068134Y055180D01*
X068134Y054680D01*
X067884Y054430D01*
X065134Y054430D01*
X064884Y054180D01*
X064884Y049430D01*
X064634Y049180D01*
X058884Y049180D01*
X058634Y048930D01*
X058634Y048180D01*
X059134Y048180D02*
X059134Y048680D01*
X059384Y048930D01*
X064884Y048930D01*
X065134Y049180D01*
X065134Y052180D01*
X065384Y052430D01*
X067884Y052430D01*
X068134Y052680D01*
X068134Y053180D01*
X069649Y053180D01*
X069649Y051180D02*
X068134Y051180D01*
X068134Y050680D01*
X067884Y050430D01*
X065634Y050430D01*
X065384Y050180D01*
X065384Y048930D01*
X065134Y048680D01*
X059884Y048680D01*
X059634Y048430D01*
X059634Y048180D01*
X060134Y048180D02*
X060384Y048430D01*
X067384Y048430D01*
X068134Y049180D01*
X069649Y049180D01*
X071884Y047930D02*
X060384Y047930D01*
X060134Y047680D01*
X057634Y047680D01*
X057384Y047430D01*
X057384Y044680D01*
X056634Y043930D01*
X056634Y036430D01*
X056384Y036180D01*
X051634Y036180D01*
X051634Y035180D02*
X052884Y035180D01*
X053218Y035515D01*
X053634Y035515D01*
X056718Y035515D01*
X056884Y035680D01*
X056884Y041930D01*
X057134Y042180D01*
X060884Y042180D01*
X061134Y042430D01*
X061134Y042930D01*
X061384Y043180D01*
X061884Y043180D01*
X062134Y042930D01*
X062134Y042430D01*
X062384Y042180D01*
X067384Y042180D01*
X067634Y042430D01*
X067634Y042680D01*
X068634Y042680D02*
X068634Y042180D01*
X068884Y041930D01*
X071884Y041930D01*
X072134Y042180D01*
X072134Y047680D01*
X071884Y047930D01*
X071413Y046180D02*
X071384Y046150D01*
X071384Y044680D01*
X070884Y044180D01*
X070508Y044180D01*
X071134Y044180D01*
X071634Y043680D01*
X071634Y042680D01*
X071384Y041180D02*
X071634Y040930D01*
X071384Y041180D02*
X057634Y041180D01*
X057884Y040930D02*
X070384Y040930D01*
X070634Y040680D01*
X070634Y040180D01*
X070634Y039680D01*
X070634Y039180D01*
X070884Y038930D01*
X073134Y038930D01*
X073384Y038680D01*
X073384Y020680D01*
X073884Y020180D02*
X073884Y038930D01*
X073634Y039180D01*
X071884Y039180D01*
X071634Y039430D01*
X071634Y039680D01*
X073634Y039680D01*
X073884Y039930D01*
X073884Y064180D01*
X073634Y064430D01*
X071884Y064430D01*
X071634Y064680D01*
X071634Y065680D01*
X071634Y066180D02*
X065134Y066180D01*
X064634Y065680D01*
X065260Y065306D02*
X065634Y065680D01*
X065260Y065306D02*
X065260Y064180D01*
X066008Y064180D02*
X066008Y063554D01*
X065634Y063180D01*
X064134Y063180D01*
X063634Y063680D01*
X063634Y065680D01*
X063634Y066180D01*
X064134Y066680D01*
X069134Y066680D01*
X070134Y067680D01*
X070134Y069680D01*
X066634Y069680D01*
X065634Y068680D01*
X066134Y068180D02*
X066634Y068680D01*
X066134Y068180D02*
X062134Y068180D01*
X060134Y066180D01*
X060134Y064180D01*
X059134Y064180D01*
X058134Y064180D02*
X058134Y063680D01*
X058634Y063180D01*
X060134Y063180D01*
X060634Y063680D01*
X060634Y064680D01*
X061134Y065180D01*
X061134Y066180D01*
X062634Y067680D01*
X066634Y067680D01*
X067634Y068680D01*
X068634Y068680D02*
X067134Y067180D01*
X063134Y067180D01*
X062134Y066180D01*
X062134Y065180D01*
X061134Y064180D01*
X059634Y062680D02*
X054634Y062680D01*
X054134Y063180D01*
X054134Y063680D01*
X053634Y064180D01*
X051384Y064180D01*
X051384Y063180D02*
X053384Y063180D01*
X053634Y062930D01*
X053634Y061180D01*
X053884Y061430D01*
X053884Y061680D01*
X054134Y061930D01*
X058884Y061930D01*
X059134Y061680D01*
X059134Y061180D01*
X060134Y061180D02*
X060134Y062180D01*
X059634Y062680D01*
X061134Y061180D02*
X061134Y057430D01*
X061384Y057180D01*
X067134Y057180D01*
X068134Y057180D02*
X068134Y056680D01*
X067884Y056430D01*
X064884Y056430D01*
X064634Y056180D01*
X064634Y049680D01*
X064384Y049430D01*
X058384Y049430D01*
X058134Y049180D01*
X058134Y048180D01*
X058134Y047271D02*
X059134Y047271D01*
X060134Y047271D01*
X060543Y047271D01*
X060884Y047430D01*
X061260Y046680D02*
X061260Y045593D01*
X062173Y044680D01*
X062634Y044219D01*
X062634Y042680D01*
X063634Y042680D02*
X063634Y044219D01*
X064094Y044680D01*
X065008Y045593D01*
X065008Y046680D01*
X064260Y046680D02*
X064260Y047306D01*
X064634Y047680D01*
X066134Y047680D01*
X066634Y047180D01*
X066634Y045054D01*
X067728Y045054D01*
X068854Y046180D01*
X069760Y044180D02*
X066760Y044180D01*
X066634Y044306D01*
X066634Y043680D01*
X065634Y042680D01*
X064884Y040180D02*
X064134Y040180D01*
X063634Y039680D01*
X064634Y039680D02*
X064634Y038806D01*
X063508Y037680D01*
X062760Y037680D02*
X062634Y037554D01*
X062634Y037430D01*
X062884Y037180D01*
X064134Y037180D01*
X064634Y037680D01*
X065260Y037680D01*
X065260Y036054D01*
X065634Y035680D01*
X066008Y037680D02*
X067760Y037680D01*
X068508Y037680D02*
X068508Y035806D01*
X068634Y035680D01*
X069134Y035180D02*
X069134Y038180D01*
X068634Y038680D01*
X068134Y038680D01*
X067634Y039180D01*
X067634Y039680D01*
X068134Y039930D02*
X067884Y040180D01*
X067134Y040180D01*
X066634Y039680D01*
X065884Y038430D02*
X066008Y038306D01*
X066008Y037680D01*
X065884Y038430D02*
X065634Y038430D01*
X065134Y038930D01*
X065134Y039930D01*
X064884Y040180D01*
X062760Y037680D02*
X061008Y037680D01*
X059634Y039680D02*
X059634Y034180D01*
X060634Y033180D01*
X062134Y033180D01*
X062634Y032680D01*
X061634Y032680D02*
X061634Y032180D01*
X061134Y031680D01*
X060634Y031680D01*
X058260Y034054D01*
X058134Y034054D01*
X058134Y036306D01*
X058134Y037054D02*
X058134Y039180D01*
X058634Y039680D01*
X059134Y040180D02*
X058884Y040430D01*
X059134Y040180D02*
X059134Y034180D01*
X060634Y032680D01*
X061634Y032680D02*
X061634Y030806D01*
X062260Y030180D01*
X063008Y030180D02*
X063008Y029554D01*
X062634Y029180D01*
X062134Y029180D01*
X059767Y031546D01*
X058634Y031546D01*
X058134Y032046D01*
X058134Y033306D01*
X057049Y034845D02*
X057134Y034930D01*
X057134Y041430D01*
X057384Y041680D01*
X061384Y041680D01*
X061634Y041930D01*
X061634Y042680D01*
X060634Y042680D02*
X060134Y043180D01*
X060134Y043879D01*
X059134Y043879D02*
X059134Y043180D01*
X059634Y042680D01*
X058134Y043879D02*
X058134Y044180D01*
X058384Y044430D01*
X061384Y044430D01*
X061634Y044180D01*
X060134Y044981D02*
X060134Y046089D01*
X059134Y046089D02*
X059134Y044981D01*
X058134Y044981D02*
X058134Y046089D01*
X056634Y046680D02*
X053884Y046680D01*
X053634Y046430D01*
X053634Y041930D01*
X052884Y041180D01*
X052884Y038430D01*
X052634Y038180D01*
X043884Y038180D01*
X043634Y038430D01*
X043634Y040180D01*
X043384Y040930D02*
X043134Y041180D01*
X042834Y041180D01*
X042434Y041180D02*
X042134Y041180D01*
X041884Y041430D01*
X041884Y042180D01*
X041884Y042680D01*
X042384Y043180D01*
X042884Y042180D02*
X042884Y041930D01*
X043384Y041430D01*
X046884Y041430D01*
X047134Y041680D01*
X047134Y046680D01*
X046884Y046930D01*
X033384Y046930D01*
X033134Y046680D01*
X033134Y044680D01*
X033134Y045680D01*
X032134Y044680D02*
X030884Y044680D01*
X030134Y045430D01*
X030134Y045680D01*
X032134Y044680D02*
X032134Y044180D01*
X032384Y043930D01*
X044134Y043930D01*
X044384Y043680D01*
X044384Y043180D01*
X045384Y043180D02*
X045384Y043930D01*
X045134Y044180D01*
X035384Y044180D01*
X035134Y044430D01*
X035134Y044680D01*
X036384Y044680D01*
X037134Y045680D01*
X037884Y046430D02*
X034384Y046430D01*
X034134Y046180D01*
X034134Y045680D01*
X034134Y044680D01*
X036854Y042430D02*
X036854Y041150D01*
X036634Y040930D01*
X034884Y040930D01*
X034634Y040680D01*
X034634Y040180D01*
X034134Y040430D02*
X033884Y040680D01*
X032884Y040680D01*
X032634Y040430D01*
X032634Y040180D01*
X032634Y038680D01*
X032384Y038430D01*
X028884Y038430D01*
X028634Y038180D01*
X028634Y036180D01*
X029384Y036430D02*
X029634Y036180D01*
X030134Y036180D01*
X029384Y036430D02*
X029384Y037930D01*
X029634Y038180D01*
X033384Y038180D01*
X033634Y038430D01*
X033634Y040180D01*
X034134Y040430D02*
X034134Y038180D01*
X034384Y037930D01*
X052884Y037930D01*
X053134Y038180D01*
X053134Y040930D01*
X053384Y041180D01*
X055634Y041180D01*
X055634Y040680D02*
X053884Y040680D01*
X053634Y040430D01*
X053634Y037930D01*
X053384Y037680D01*
X033884Y037680D01*
X033634Y037930D01*
X033634Y038430D01*
X033634Y037180D02*
X033634Y035680D01*
X032634Y034680D01*
X032384Y034180D02*
X036134Y034180D01*
X036134Y033180D01*
X035884Y032930D01*
X031435Y032930D01*
X031384Y032879D01*
X030384Y031680D02*
X030134Y031930D01*
X030134Y033180D01*
X030134Y034430D02*
X030384Y034430D01*
X030634Y034680D01*
X030634Y035430D01*
X030884Y035680D01*
X031134Y035680D01*
X031384Y035930D01*
X031384Y036271D01*
X032134Y036180D02*
X032634Y036680D01*
X032634Y037180D01*
X030354Y037180D01*
X030134Y037400D01*
X032134Y036180D02*
X032134Y034430D01*
X032384Y034180D01*
X031384Y033981D02*
X031384Y035089D01*
X033634Y034680D02*
X034634Y035680D01*
X034634Y037180D01*
X035634Y038430D02*
X035634Y039430D01*
X035884Y039680D01*
X042134Y039680D01*
X042634Y039180D02*
X036884Y039180D01*
X036634Y038930D01*
X036634Y038430D01*
X037634Y038430D02*
X037884Y038680D01*
X042634Y038680D01*
X042634Y037180D02*
X042634Y036430D01*
X042884Y036180D01*
X045634Y036180D01*
X045884Y035930D01*
X045884Y032930D01*
X046134Y032680D01*
X046634Y032680D01*
X046634Y034180D02*
X046634Y036180D01*
X046384Y036430D01*
X043884Y036430D01*
X043634Y036680D01*
X043634Y037180D01*
X044884Y038430D02*
X044634Y038680D01*
X044634Y040180D01*
X045634Y040180D02*
X045634Y038930D01*
X045884Y038680D01*
X052134Y038680D01*
X052384Y038930D01*
X052384Y041680D01*
X052884Y042180D01*
X052884Y055930D01*
X053134Y056180D01*
X054634Y056180D01*
X053384Y051180D02*
X053134Y050930D01*
X053134Y041930D01*
X052634Y041430D01*
X052634Y038680D01*
X052384Y038430D01*
X044884Y038430D01*
X045634Y037180D02*
X045634Y036930D01*
X045884Y036680D01*
X049134Y036680D01*
X049384Y036930D01*
X049384Y037180D01*
X049384Y039180D02*
X049384Y043680D01*
X049634Y043930D01*
X049634Y044430D02*
X049134Y044430D01*
X048884Y044180D01*
X048884Y039180D01*
X048384Y039430D02*
X048384Y044680D01*
X048634Y044930D01*
X049634Y044930D01*
X049634Y045430D02*
X048134Y045430D01*
X047884Y045180D01*
X047884Y039680D01*
X047384Y039930D02*
X047384Y045680D01*
X047634Y045930D01*
X049634Y045930D01*
X046384Y044180D02*
X046384Y042430D01*
X046134Y042180D01*
X044884Y042180D01*
X046384Y044180D02*
X046134Y044430D01*
X038384Y044430D01*
X038134Y044680D01*
X038134Y046180D01*
X037884Y046430D01*
X037384Y042430D02*
X036854Y042430D01*
X037384Y042430D02*
X037634Y042180D01*
X037634Y041306D01*
X037760Y041180D01*
X038508Y041180D02*
X040634Y041180D01*
X040634Y037180D02*
X040634Y035141D01*
X040173Y034680D01*
X040008Y034515D01*
X040008Y032680D01*
X039260Y032680D02*
X039260Y032054D01*
X039384Y031930D01*
X042884Y031930D01*
X043008Y032054D01*
X043008Y032680D01*
X044134Y033806D01*
X044134Y034306D01*
X044260Y034180D01*
X044884Y034680D02*
X044510Y035054D01*
X044134Y035054D01*
X044884Y034680D02*
X044884Y031930D01*
X044634Y031680D01*
X036634Y031680D01*
X037008Y032054D01*
X037008Y034180D01*
X037008Y034804D01*
X037134Y034930D01*
X038010Y034930D01*
X038134Y035054D01*
X038258Y035054D01*
X038634Y035430D01*
X038634Y037180D01*
X037134Y036430D02*
X037134Y035806D01*
X037008Y035680D01*
X036260Y035680D02*
X035634Y035680D01*
X034634Y034680D01*
X036134Y034180D02*
X036260Y034180D01*
X038134Y034306D02*
X038134Y033806D01*
X039260Y032680D01*
X039260Y034306D02*
X038134Y034306D01*
X039260Y034306D02*
X039634Y034680D01*
X039634Y037180D01*
X041634Y037180D02*
X041634Y035141D01*
X042094Y034680D01*
X042260Y034515D01*
X042260Y032680D01*
X036634Y031680D02*
X030384Y031680D01*
X026884Y032180D02*
X026634Y031930D01*
X026384Y031930D01*
X026134Y031680D01*
X026134Y028430D01*
X025884Y028180D01*
X022134Y028180D01*
X021884Y027930D01*
X021884Y013930D01*
X021634Y013680D01*
X020134Y013680D01*
X019634Y013180D01*
X019799Y013180D01*
X018468Y013180D01*
X017799Y013180D02*
X017799Y011015D01*
X018134Y010680D01*
X018134Y010180D01*
X017884Y009930D01*
X016884Y009930D01*
X016634Y010180D01*
X016634Y011180D01*
X016884Y011430D01*
X016884Y013930D01*
X017134Y014180D01*
X020634Y014180D01*
X020884Y014430D01*
X020884Y028430D01*
X021134Y028680D01*
X024884Y028680D01*
X025134Y028930D01*
X025134Y032180D01*
X025384Y032430D01*
X026134Y032430D01*
X026384Y032680D01*
X026384Y065680D01*
X026134Y065930D01*
X016384Y065930D01*
X016134Y066180D01*
X016134Y068680D01*
X015884Y068930D01*
X014384Y068930D01*
X014134Y069180D01*
X014134Y069430D01*
X013884Y069680D01*
X013634Y069680D01*
X014634Y069680D02*
X014634Y069430D01*
X014884Y069180D01*
X016884Y069180D01*
X017134Y068930D01*
X017134Y066430D01*
X017384Y066180D01*
X026384Y066180D01*
X026634Y065930D01*
X026634Y032430D01*
X026384Y032180D01*
X025884Y032180D01*
X025634Y031930D01*
X025634Y028680D01*
X025384Y028430D01*
X021634Y028430D01*
X021384Y028180D01*
X021384Y014180D01*
X021134Y013930D01*
X017384Y013930D01*
X017134Y013680D01*
X017134Y010680D01*
X019134Y010680D02*
X019134Y012430D01*
X019384Y012680D01*
X020134Y012680D01*
X020468Y013015D01*
X020468Y013180D01*
X020384Y014430D02*
X013634Y014430D01*
X013299Y014095D01*
X013299Y013180D01*
X011968Y013180D01*
X011299Y013180D02*
X011299Y011015D01*
X011634Y010680D01*
X011634Y010180D01*
X011384Y009930D01*
X010384Y009930D01*
X010134Y010180D01*
X010134Y011180D01*
X010384Y011430D01*
X010384Y014680D01*
X010634Y014930D01*
X019884Y014930D01*
X020134Y015180D01*
X020134Y029180D01*
X020384Y029430D01*
X023134Y029430D01*
X023384Y029680D01*
X023384Y047180D01*
X023134Y047430D01*
X015384Y047430D01*
X015134Y047680D01*
X015134Y050180D01*
X014884Y050430D01*
X014134Y050430D01*
X013634Y050930D01*
X013634Y051180D01*
X013134Y050680D02*
X013134Y051930D01*
X013384Y052180D01*
X015884Y052180D01*
X016008Y052304D01*
X016008Y053180D01*
X017634Y053180D01*
X017634Y051180D01*
X017134Y050680D02*
X016884Y050430D01*
X016884Y049180D01*
X016884Y048680D01*
X024384Y048680D01*
X024634Y048430D01*
X024634Y035680D01*
X024384Y035430D01*
X024384Y035180D01*
X024134Y036180D02*
X024134Y036430D01*
X024384Y036680D01*
X024384Y047930D01*
X024134Y048180D01*
X017634Y048180D01*
X016884Y048680D02*
X016634Y048430D01*
X016634Y048180D01*
X016384Y047680D02*
X023384Y047680D01*
X023634Y047430D01*
X023634Y029430D01*
X023384Y029180D01*
X020634Y029180D01*
X020384Y028930D01*
X020384Y014930D01*
X020134Y014680D01*
X010884Y014680D01*
X010634Y014430D01*
X010634Y010680D01*
X012634Y010680D02*
X012634Y012430D01*
X012884Y012680D01*
X013634Y012680D01*
X013968Y013015D01*
X013968Y013180D01*
X013634Y018806D02*
X013008Y018806D01*
X012634Y019180D01*
X012634Y021680D01*
X011634Y021680D02*
X011634Y018680D01*
X011134Y018180D01*
X010634Y018180D01*
X010134Y018680D01*
X010134Y019054D01*
X009134Y019054D01*
X009008Y019180D01*
X008260Y019180D02*
X007634Y019180D01*
X006134Y017680D01*
X004134Y017680D01*
X003634Y018180D01*
X003634Y019180D01*
X004134Y019680D01*
X005634Y019680D01*
X007134Y021180D01*
X005634Y021180D01*
X005134Y021680D01*
X005134Y022180D01*
X004260Y023054D01*
X004134Y023054D01*
X004134Y025306D01*
X004134Y026054D02*
X004634Y026554D01*
X004634Y028680D01*
X005134Y029180D02*
X005134Y023180D01*
X006634Y021680D01*
X007134Y021180D02*
X007634Y021680D01*
X008634Y021680D02*
X008634Y022180D01*
X008134Y022680D01*
X007634Y022680D01*
X005634Y024680D01*
X005634Y028680D01*
X005134Y029180D02*
X004634Y029680D01*
X004634Y031680D01*
X004884Y032180D02*
X005384Y032180D01*
X005634Y031930D01*
X005634Y031680D01*
X005884Y032180D02*
X006384Y032180D01*
X006634Y031930D01*
X006634Y031680D01*
X005884Y032180D02*
X005634Y032430D01*
X005634Y032879D01*
X004634Y032879D02*
X004634Y032430D01*
X004884Y032180D01*
X005134Y030930D02*
X011134Y030930D01*
X011634Y030430D02*
X011384Y030180D01*
X010384Y030180D01*
X010134Y029930D01*
X010134Y029180D01*
X009634Y028680D01*
X010134Y029180D02*
X011884Y029180D01*
X012134Y028930D01*
X012134Y027430D01*
X012634Y026930D01*
X013884Y026930D01*
X014134Y026680D01*
X014134Y026306D01*
X014260Y026180D01*
X015008Y026180D02*
X015008Y025054D01*
X014634Y024680D01*
X015634Y024680D02*
X015634Y026680D01*
X015134Y027180D01*
X014134Y027180D01*
X012634Y028680D01*
X013634Y028680D02*
X013634Y028180D01*
X014384Y027430D01*
X015384Y027430D01*
X016134Y026680D01*
X016134Y023930D01*
X016634Y024680D02*
X016760Y024806D01*
X016760Y026180D01*
X017508Y026180D02*
X017508Y024806D01*
X017634Y024680D01*
X018384Y023680D02*
X018134Y023430D01*
X009384Y023430D01*
X009134Y023180D01*
X009134Y021180D01*
X009384Y020930D01*
X009884Y020930D01*
X010634Y021680D01*
X010634Y020180D01*
X007634Y020180D01*
X006134Y018680D01*
X004634Y018680D01*
X004634Y020546D02*
X004134Y021046D01*
X004134Y022306D01*
X004634Y020546D02*
X005750Y020546D01*
X005884Y020680D01*
X007634Y023680D02*
X008634Y023680D01*
X009634Y024680D01*
X009634Y025180D01*
X010134Y025680D01*
X011260Y025680D01*
X011760Y026180D01*
X011760Y026556D01*
X012134Y026930D01*
X012634Y026930D01*
X010634Y026680D02*
X010634Y028680D01*
X009634Y027180D02*
X009260Y026806D01*
X009260Y026180D01*
X007508Y026180D01*
X006760Y026180D02*
X006760Y025554D01*
X007134Y025180D01*
X007134Y024180D01*
X007634Y023680D01*
X006634Y024680D02*
X006634Y025180D01*
X006134Y025680D01*
X006134Y027680D01*
X006634Y028180D01*
X006634Y028680D01*
X004134Y030930D02*
X003884Y030930D01*
X003634Y031180D01*
X003634Y032879D01*
X003634Y033981D02*
X003634Y035089D01*
X004634Y035089D02*
X004634Y033981D01*
X005634Y033981D02*
X005634Y035089D01*
X005634Y036271D02*
X004634Y036271D01*
X003634Y036271D01*
X003884Y037930D02*
X003634Y038180D01*
X003634Y039180D01*
X004134Y039680D01*
X005634Y039680D01*
X007134Y041180D01*
X005634Y041180D01*
X005134Y041680D01*
X005134Y042180D01*
X004134Y043180D01*
X004134Y043054D01*
X004134Y043180D02*
X004134Y045306D01*
X004134Y046054D02*
X004634Y046554D01*
X004634Y048180D01*
X005134Y048680D02*
X005134Y043180D01*
X006634Y041680D01*
X007134Y041180D02*
X007634Y041680D01*
X008634Y041680D02*
X008634Y042180D01*
X008134Y042680D01*
X007634Y042680D01*
X005634Y044680D01*
X005634Y048180D01*
X005134Y048680D02*
X004634Y049180D01*
X004634Y051180D01*
X004884Y051680D02*
X005384Y051680D01*
X005634Y051430D01*
X005634Y051180D01*
X005884Y051680D02*
X006384Y051680D01*
X006634Y051430D01*
X006634Y051180D01*
X005884Y051680D02*
X005634Y051930D01*
X005634Y052379D01*
X004634Y052379D02*
X004634Y051930D01*
X004884Y051680D01*
X005134Y050430D02*
X011134Y050430D01*
X011634Y050180D02*
X011134Y049680D01*
X009634Y048180D01*
X009634Y047180D02*
X009260Y046806D01*
X009260Y046180D01*
X007508Y046180D01*
X006760Y046180D02*
X006760Y045554D01*
X007134Y045180D01*
X007134Y044180D01*
X007634Y043680D01*
X008634Y043680D01*
X009634Y044680D01*
X009634Y044930D01*
X009884Y045180D01*
X011384Y045180D01*
X011634Y045430D01*
X011634Y046054D01*
X011760Y046180D01*
X011134Y046680D01*
X011134Y049680D01*
X011634Y050180D02*
X011634Y051180D01*
X012634Y052180D01*
X012634Y052806D01*
X012760Y052680D01*
X014634Y052680D01*
X015134Y053180D01*
X015260Y053180D01*
X014354Y054680D02*
X012634Y054680D01*
X012634Y053554D01*
X012008Y053554D01*
X010634Y052180D01*
X010634Y051180D01*
X009634Y051180D02*
X009634Y052719D01*
X010094Y053180D01*
X011008Y054093D01*
X011008Y054680D01*
X010260Y054680D02*
X010260Y055306D01*
X010634Y055680D01*
X012134Y055680D01*
X012634Y055180D01*
X012634Y054680D01*
X010260Y054680D02*
X008008Y054680D01*
X007260Y054680D02*
X007260Y054093D01*
X008173Y053180D01*
X008634Y052719D01*
X008634Y051180D01*
X007634Y051180D02*
X007634Y051680D01*
X006634Y052680D01*
X006634Y055680D01*
X006884Y055930D01*
X024634Y055930D01*
X024884Y055680D01*
X024884Y029180D01*
X024634Y028930D01*
X020884Y028930D01*
X020634Y028680D01*
X020634Y014680D01*
X020384Y014430D01*
X019634Y015180D02*
X007134Y015180D01*
X006884Y014930D01*
X006884Y013265D01*
X006799Y013180D01*
X005468Y013180D01*
X004799Y013180D02*
X004799Y011015D01*
X005134Y010680D01*
X005134Y010180D01*
X004884Y009930D01*
X003884Y009930D01*
X003634Y010180D01*
X003634Y011180D01*
X003884Y011430D01*
X003884Y015430D01*
X004134Y015680D01*
X019134Y015680D01*
X019384Y015930D01*
X019384Y027680D01*
X019134Y027930D01*
X016384Y027930D01*
X016134Y028180D01*
X016134Y030180D01*
X015884Y030430D01*
X014134Y030430D01*
X013634Y030930D01*
X013634Y031680D01*
X013384Y032180D02*
X013134Y031930D01*
X013134Y031180D01*
X012884Y030930D01*
X012134Y030930D01*
X011634Y030430D02*
X011634Y031680D01*
X012134Y032180D01*
X012134Y033306D01*
X012260Y033180D01*
X014760Y033180D01*
X015508Y033180D02*
X015508Y032304D01*
X015384Y032180D01*
X013384Y032180D01*
X014634Y031680D02*
X014634Y031180D01*
X015134Y030680D01*
X016884Y030680D01*
X017134Y030430D01*
X017134Y028430D01*
X017384Y028180D01*
X019384Y028180D01*
X019634Y027930D01*
X019634Y015680D01*
X019384Y015430D01*
X004384Y015430D01*
X004134Y015180D01*
X004134Y010680D01*
X006134Y010680D02*
X006134Y012430D01*
X006384Y012680D01*
X007134Y012680D01*
X007468Y013015D01*
X007468Y013180D01*
X010134Y019054D02*
X010260Y019180D01*
X011008Y019180D02*
X011008Y019806D01*
X010634Y020180D01*
X013634Y018806D02*
X015634Y018806D01*
X017634Y018806D01*
X017634Y019554D02*
X017634Y021680D01*
X016634Y021680D02*
X016634Y021180D01*
X015634Y020180D01*
X015634Y019554D01*
X019884Y015430D02*
X019634Y015180D01*
X019884Y015430D02*
X019884Y036180D01*
X019634Y036430D01*
X006884Y036430D01*
X006634Y036180D01*
X006634Y033180D01*
X007634Y032180D01*
X007634Y031680D01*
X008634Y031680D02*
X008634Y033180D01*
X008173Y033641D01*
X008173Y033680D01*
X007260Y034593D01*
X007260Y035180D01*
X008008Y035180D02*
X010260Y035180D01*
X010260Y035556D01*
X010634Y035930D01*
X013634Y035930D01*
X013884Y035680D01*
X013884Y035210D01*
X013854Y035180D01*
X012384Y035180D01*
X012134Y034930D01*
X012134Y034054D01*
X011134Y034680D02*
X011134Y035554D01*
X011008Y035180D01*
X011134Y034680D02*
X010173Y033719D01*
X010134Y033719D01*
X010094Y033680D01*
X009634Y033219D01*
X009634Y031680D01*
X006224Y036271D02*
X005634Y036271D01*
X006224Y036271D02*
X006384Y036430D01*
X005634Y037930D02*
X003884Y037930D01*
X004634Y038814D02*
X005767Y038814D01*
X007634Y040680D01*
X010634Y040680D01*
X010634Y041680D01*
X011634Y041680D02*
X011634Y039180D01*
X011134Y038680D01*
X010634Y038680D01*
X010260Y039054D01*
X010260Y039680D01*
X009008Y039680D01*
X008260Y039680D02*
X007634Y039680D01*
X005634Y037930D01*
X005500Y040546D02*
X004634Y040546D01*
X004134Y041046D01*
X004134Y042306D01*
X005634Y040680D02*
X005500Y040546D01*
X006634Y044680D02*
X006634Y045180D01*
X006134Y045680D01*
X006134Y047180D01*
X006634Y047680D01*
X006634Y048180D01*
X004134Y050430D02*
X003884Y050430D01*
X003634Y050680D01*
X003634Y052379D01*
X003634Y053481D02*
X003634Y054589D01*
X004634Y054589D02*
X004634Y053481D01*
X005634Y053481D02*
X005634Y054589D01*
X005634Y055771D02*
X004634Y055771D01*
X003634Y055771D01*
X004134Y056680D02*
X003634Y057180D01*
X003634Y058180D01*
X004134Y058680D01*
X006134Y058680D01*
X007634Y060180D01*
X007134Y059680D01*
X006134Y059680D01*
X005134Y060680D01*
X005134Y061180D01*
X004260Y062054D01*
X004134Y062054D01*
X004134Y063806D01*
X004134Y064554D02*
X004634Y065054D01*
X004634Y066680D01*
X005134Y067180D02*
X005134Y061680D01*
X006634Y060180D01*
X007134Y060680D02*
X008134Y060680D01*
X008634Y060180D01*
X007634Y059180D02*
X010134Y059180D01*
X010508Y058806D01*
X010508Y058180D01*
X009760Y058180D02*
X009634Y058054D01*
X009634Y057680D01*
X010134Y057180D01*
X011134Y057180D01*
X011634Y057680D01*
X011634Y060180D01*
X012634Y060180D02*
X012634Y057680D01*
X013008Y057306D01*
X013634Y057306D01*
X015634Y057306D01*
X018134Y057306D01*
X018134Y058054D02*
X018134Y058680D01*
X017634Y059180D01*
X017634Y060180D01*
X016634Y060180D02*
X016634Y059680D01*
X015634Y058680D01*
X015634Y058054D01*
X018634Y056430D02*
X018634Y061180D01*
X019134Y061180D02*
X019134Y056430D01*
X019134Y055430D02*
X019134Y049430D01*
X018884Y049180D01*
X017634Y049180D01*
X017134Y050680D02*
X018384Y050680D01*
X018634Y050930D01*
X018634Y055430D01*
X017634Y054180D02*
X017634Y053180D01*
X017634Y054180D02*
X017134Y054680D01*
X016913Y054680D01*
X015884Y050680D02*
X014884Y050680D01*
X014634Y050930D01*
X014634Y051180D01*
X015884Y050680D02*
X016134Y050430D01*
X016134Y047930D01*
X016384Y047680D01*
X015884Y047180D02*
X016134Y046930D01*
X016134Y043430D01*
X015134Y043430D02*
X010634Y043430D01*
X011884Y045180D02*
X011634Y045430D01*
X011884Y045180D02*
X013884Y045180D01*
X014260Y045556D01*
X014260Y046180D01*
X015008Y046180D02*
X015008Y045054D01*
X014634Y044680D01*
X015634Y044680D02*
X015634Y046680D01*
X015384Y046930D01*
X013884Y046930D01*
X012634Y048180D01*
X012508Y047306D02*
X011634Y048180D01*
X010634Y048180D02*
X010634Y046680D01*
X010134Y046180D01*
X012508Y046180D02*
X012508Y047306D01*
X013634Y047680D02*
X014134Y047180D01*
X015884Y047180D01*
X016760Y046180D02*
X016760Y044806D01*
X016634Y044680D01*
X017634Y044680D02*
X017634Y046054D01*
X017508Y046180D01*
X013634Y047680D02*
X013634Y048180D01*
X012884Y050430D02*
X012134Y050430D01*
X012884Y050430D02*
X013134Y050680D01*
X006384Y055930D02*
X006224Y055771D01*
X005634Y055771D01*
X006260Y056680D02*
X004134Y056680D01*
X004634Y057814D02*
X006267Y057814D01*
X007634Y059180D01*
X007760Y058180D02*
X006260Y056680D01*
X005634Y059180D02*
X005267Y059546D01*
X004634Y059546D01*
X004134Y060046D01*
X004134Y061306D01*
X005634Y062180D02*
X007134Y060680D01*
X005634Y062180D02*
X005634Y066680D01*
X005134Y067180D02*
X004634Y067680D01*
X004634Y069680D01*
X004884Y070180D02*
X005384Y070180D01*
X005634Y069930D01*
X005634Y069680D01*
X005884Y070430D02*
X006384Y070430D01*
X006634Y070180D01*
X006634Y069680D01*
X005884Y070430D02*
X005634Y070680D01*
X005634Y070879D01*
X004634Y070879D02*
X004634Y070430D01*
X004884Y070180D01*
X003634Y070879D02*
X003634Y069180D01*
X003884Y068930D01*
X004134Y068930D01*
X006634Y066680D02*
X006634Y066180D01*
X006134Y065680D01*
X006134Y063680D01*
X006634Y063180D01*
X007134Y063680D02*
X009384Y063680D01*
X009634Y063430D01*
X009634Y063180D01*
X010134Y063680D01*
X011134Y063680D01*
X011134Y064054D01*
X011760Y064680D01*
X011760Y064054D01*
X012134Y063680D01*
X013884Y063680D01*
X014260Y064056D01*
X014260Y064680D01*
X015008Y064680D02*
X015008Y063554D01*
X014634Y063180D01*
X015634Y063180D02*
X015634Y065180D01*
X015134Y065680D01*
X013634Y065680D01*
X012634Y066680D01*
X013634Y066680D02*
X013634Y066180D01*
X013884Y065930D01*
X015884Y065930D01*
X016134Y065680D01*
X016134Y062680D01*
X016634Y063180D02*
X016760Y063306D01*
X016760Y064680D01*
X017508Y064680D02*
X017508Y063306D01*
X017634Y063180D01*
X014134Y061680D02*
X010884Y061680D01*
X010634Y061430D01*
X010634Y060180D01*
X010634Y059680D01*
X010134Y059180D01*
X009760Y058180D02*
X008508Y058180D01*
X007134Y063680D02*
X006884Y063930D01*
X006884Y064680D01*
X006760Y064680D02*
X006760Y065306D01*
X007134Y065680D01*
X007134Y067180D01*
X008134Y068180D01*
X010634Y068180D01*
X011634Y069180D01*
X011634Y069680D01*
X011634Y071180D01*
X011760Y071306D01*
X012634Y071306D01*
X013760Y071306D01*
X014134Y071680D01*
X015260Y071680D01*
X016008Y071680D02*
X016634Y071680D01*
X017634Y070680D01*
X017634Y069680D01*
X016008Y071680D02*
X016913Y072586D01*
X016913Y073180D01*
X014354Y073180D02*
X012634Y073180D01*
X012634Y072180D01*
X011634Y072180D01*
X010634Y071180D01*
X010634Y069680D01*
X009634Y069680D02*
X009634Y071219D01*
X010094Y071680D01*
X011008Y072593D01*
X011008Y073180D01*
X010260Y073180D02*
X010260Y073806D01*
X010384Y073930D01*
X012384Y073930D01*
X012634Y073680D01*
X012634Y073180D01*
X012634Y072180D02*
X012634Y072054D01*
X010260Y073180D02*
X008008Y073180D01*
X007260Y073180D02*
X007260Y072593D01*
X008173Y071680D01*
X008634Y071219D01*
X008634Y069680D01*
X007634Y069680D02*
X007634Y070680D01*
X006634Y071680D01*
X006634Y074180D01*
X006884Y074430D01*
X026634Y074430D01*
X026884Y074180D01*
X026884Y032180D01*
X018384Y027180D02*
X018384Y023680D01*
X018384Y027180D02*
X018134Y027430D01*
X015884Y027430D01*
X015634Y027680D01*
X015634Y028680D01*
X017634Y031680D02*
X017634Y033180D01*
X015508Y033180D01*
X016413Y035180D02*
X016634Y035180D01*
X017634Y034180D01*
X017634Y033180D01*
X017634Y038806D02*
X015634Y038806D01*
X013634Y038806D01*
X013008Y038806D01*
X012634Y039180D01*
X012634Y041680D01*
X011134Y040180D02*
X011134Y039806D01*
X011008Y039680D01*
X011134Y040180D02*
X010634Y040680D01*
X015634Y040180D02*
X015634Y039554D01*
X015634Y040180D02*
X016634Y041180D01*
X016634Y041680D01*
X017634Y041680D02*
X017634Y039554D01*
X010634Y026680D02*
X010134Y026180D01*
X010008Y026180D01*
X010008Y064680D02*
X010008Y065554D01*
X010634Y066180D01*
X010634Y066680D01*
X010884Y067180D02*
X011134Y066930D01*
X011134Y065306D01*
X011760Y064680D01*
X012508Y064680D02*
X012508Y065306D01*
X011634Y066680D01*
X011634Y067180D01*
X011134Y067680D01*
X009634Y067680D01*
X009134Y067180D01*
X009134Y065180D01*
X009260Y065054D01*
X009260Y064680D01*
X007508Y064680D01*
X009634Y066680D02*
X010134Y067180D01*
X010884Y067180D01*
X005634Y071981D02*
X005634Y073089D01*
X004634Y073089D02*
X004634Y071981D01*
X003634Y071981D02*
X003634Y073089D01*
X003634Y074271D02*
X004634Y074271D01*
X005634Y074271D01*
X006224Y074271D01*
X006384Y074430D01*
X051634Y034180D02*
X052384Y034180D01*
X052634Y033930D01*
X052634Y033180D01*
X052968Y032845D01*
X053634Y032845D01*
X053634Y033515D02*
X053634Y034845D01*
X057049Y034845D01*
X058634Y029814D02*
X061000Y029814D01*
X061884Y028930D01*
X064884Y028930D01*
X065508Y029554D01*
X065508Y030180D01*
X066134Y030806D01*
X066134Y032430D01*
X066384Y032180D01*
X066884Y032180D01*
X067134Y032430D01*
X067134Y032930D01*
X067384Y033180D01*
X067884Y033180D01*
X068134Y032930D01*
X068134Y032430D01*
X068384Y032180D01*
X069884Y032180D01*
X070134Y032430D01*
X070134Y038680D01*
X069634Y039180D01*
X069634Y039680D01*
X068634Y039180D02*
X068384Y039180D01*
X068134Y039430D01*
X068134Y039930D01*
X068634Y039180D02*
X069634Y038180D01*
X069634Y035680D01*
X069134Y035180D02*
X069634Y034680D01*
X069634Y032680D01*
X070634Y032680D02*
X070634Y031554D01*
X069634Y030554D01*
X069634Y029806D02*
X071634Y029806D01*
X071634Y030554D02*
X071634Y032680D01*
X071634Y035680D02*
X071508Y035806D01*
X071508Y037680D01*
X070760Y037680D02*
X070760Y035806D01*
X070634Y035680D01*
X071634Y039680D02*
X071634Y039930D01*
X070884Y040430D02*
X073384Y040430D01*
X073634Y040680D01*
X073634Y063930D01*
X073384Y064180D01*
X070884Y064180D01*
X070634Y064430D01*
X070634Y065680D01*
X071634Y066180D02*
X072634Y067180D01*
X072634Y073680D01*
X072134Y074180D01*
X070134Y074180D01*
X069634Y073680D01*
X069634Y071180D01*
X069260Y070806D01*
X068634Y070806D01*
X068634Y071554D02*
X066634Y071554D01*
X066634Y072180D01*
X065634Y073180D01*
X064508Y073180D01*
X064508Y073806D01*
X064134Y074180D01*
X062134Y074180D01*
X061760Y073806D01*
X061760Y073180D01*
X061419Y073271D01*
X059884Y073271D01*
X058884Y073271D01*
X057884Y073271D01*
X057134Y074180D02*
X057384Y074430D01*
X069884Y074430D01*
X071413Y073180D02*
X071413Y071834D01*
X071134Y071554D01*
X071260Y071554D01*
X071634Y071180D01*
X071634Y068680D01*
X070634Y070180D02*
X070134Y069680D01*
X070634Y070180D02*
X070634Y070806D01*
X070634Y071554D02*
X071134Y071554D01*
X066634Y071554D02*
X065008Y071554D01*
X064634Y071180D01*
X064634Y068680D01*
X063634Y068680D02*
X063634Y070719D01*
X064094Y071180D01*
X063760Y071515D01*
X063760Y073180D01*
X062508Y073180D02*
X062508Y071515D01*
X062173Y071180D01*
X062634Y070719D01*
X062634Y068680D01*
X060634Y068680D02*
X059884Y069430D01*
X059884Y069879D01*
X058884Y069430D02*
X059634Y068680D01*
X058884Y069430D02*
X058884Y069879D01*
X057884Y069879D02*
X057435Y069879D01*
X057134Y070180D01*
X057134Y074180D01*
X057884Y072089D02*
X057884Y070981D01*
X058884Y070981D02*
X058884Y072089D01*
X059884Y072089D02*
X059884Y070981D01*
X066634Y070806D02*
X066634Y069680D01*
X063634Y063680D02*
X063634Y061680D01*
X063134Y061180D01*
X061134Y061180D01*
X068134Y057180D02*
X069649Y057180D01*
X064260Y046680D02*
X062008Y046680D01*
X056634Y051180D02*
X053384Y051180D01*
X057884Y040930D02*
X057634Y040680D01*
X064884Y033180D02*
X065884Y033180D01*
X066134Y032930D01*
X066134Y032430D01*
X065634Y032680D02*
X065634Y031680D01*
X064760Y030806D01*
X064760Y030180D01*
X063008Y030180D01*
X064634Y032680D02*
X064634Y032930D01*
X064884Y033180D01*
X066760Y029806D02*
X066634Y029680D01*
X066760Y029806D02*
X067634Y029806D01*
X069634Y029806D01*
X066134Y026930D02*
X066134Y026180D01*
X067854Y026180D01*
X066134Y026180D02*
X066134Y025054D01*
X066134Y024306D02*
X066260Y024180D01*
X066260Y023306D01*
X065634Y022680D01*
X065634Y021680D01*
X065134Y021180D01*
X065134Y018680D01*
X065760Y018054D01*
X065760Y017680D01*
X065760Y016554D01*
X066134Y016180D01*
X066134Y015180D01*
X066384Y014930D01*
X067884Y014930D01*
X068134Y015180D01*
X068134Y017554D01*
X068260Y017680D01*
X069008Y017680D02*
X069008Y016054D01*
X068634Y015680D01*
X069634Y015680D02*
X069634Y018180D01*
X069384Y018430D01*
X067384Y018430D01*
X066634Y019180D01*
X066634Y019680D01*
X067634Y019680D02*
X067634Y019180D01*
X068134Y018680D01*
X069634Y018680D01*
X070134Y018180D01*
X070134Y015180D01*
X069634Y014680D01*
X069634Y012680D01*
X070134Y012930D02*
X070134Y012430D01*
X069884Y012180D01*
X068384Y012180D01*
X068134Y012430D01*
X068134Y012930D01*
X067884Y013180D01*
X064884Y013180D01*
X064634Y012930D01*
X064634Y012680D01*
X064634Y011680D01*
X064134Y011180D01*
X064634Y010680D01*
X064634Y010306D01*
X064508Y010180D01*
X063760Y010180D02*
X063760Y009804D01*
X064134Y009430D01*
X065384Y009430D01*
X065634Y009680D01*
X065634Y011680D01*
X066634Y012680D01*
X066634Y010180D01*
X067008Y009806D01*
X067634Y009806D01*
X069634Y009806D01*
X071634Y009806D01*
X071634Y010554D02*
X071634Y012680D01*
X071884Y013180D02*
X070384Y013180D01*
X070134Y012930D01*
X070634Y012680D02*
X070634Y012180D01*
X069634Y011180D01*
X069634Y010554D01*
X069384Y009180D02*
X072134Y009180D01*
X072384Y009430D01*
X072384Y018430D01*
X072134Y018680D01*
X070634Y018680D01*
X070134Y019180D01*
X070134Y019930D01*
X069884Y020180D01*
X068884Y020180D01*
X068634Y020430D01*
X068634Y022680D01*
X069134Y022930D02*
X068884Y023180D01*
X067884Y023180D01*
X067634Y022930D01*
X067634Y022680D01*
X069134Y022930D02*
X069134Y020680D01*
X069384Y020430D01*
X070884Y020430D01*
X071134Y020180D01*
X071134Y019180D01*
X071384Y018930D01*
X072384Y018930D01*
X072634Y018680D01*
X072634Y009180D01*
X072384Y008930D01*
X069884Y008930D01*
X069799Y008845D01*
X069799Y008180D01*
X069799Y006015D01*
X070134Y005680D01*
X070634Y004930D02*
X070384Y004680D01*
X057384Y004680D01*
X057134Y004930D01*
X057134Y021430D01*
X057384Y021680D01*
X061384Y021680D01*
X061634Y021930D01*
X061634Y022680D01*
X061884Y023180D02*
X062134Y022930D01*
X062134Y020430D01*
X062384Y020180D01*
X063384Y020180D01*
X063634Y019930D01*
X063634Y019680D01*
X065134Y021180D01*
X064634Y019680D02*
X064634Y018180D01*
X064134Y017680D01*
X063260Y017680D02*
X063260Y018306D01*
X063634Y018680D01*
X063260Y017680D02*
X061508Y017680D01*
X060760Y017680D02*
X060760Y016554D01*
X061134Y016180D01*
X061134Y015180D01*
X061634Y014680D01*
X062634Y014680D01*
X063634Y015680D01*
X063634Y016180D01*
X064134Y016680D01*
X065134Y016680D01*
X065634Y017180D01*
X065634Y017554D01*
X065760Y017680D01*
X069634Y019180D02*
X070384Y018430D01*
X071884Y018430D01*
X072134Y018180D01*
X072134Y013430D01*
X071884Y013180D01*
X071634Y015680D02*
X071508Y015806D01*
X071508Y017680D01*
X070760Y017680D02*
X070760Y015806D01*
X070634Y015680D01*
X069634Y019180D02*
X069634Y019680D01*
X071634Y022680D02*
X071634Y024180D01*
X069508Y024180D01*
X068760Y024180D02*
X066260Y024180D01*
X065008Y025593D02*
X064094Y024680D01*
X063634Y024219D01*
X063634Y022680D01*
X062634Y022680D02*
X062634Y024219D01*
X062173Y024680D01*
X061260Y025593D01*
X061260Y026680D01*
X062008Y026680D02*
X064260Y026680D01*
X064134Y026806D01*
X064134Y026930D01*
X064384Y027180D01*
X065884Y027180D01*
X066134Y026930D01*
X065008Y026680D02*
X065008Y025593D01*
X061384Y024180D02*
X061134Y024430D01*
X058384Y024430D01*
X057884Y023930D01*
X057884Y023879D01*
X058884Y023879D02*
X058884Y023430D01*
X059634Y022680D01*
X059884Y023430D02*
X060634Y022680D01*
X061134Y022930D02*
X061384Y023180D01*
X061884Y023180D01*
X061134Y022930D02*
X061134Y022180D01*
X060884Y021930D01*
X057134Y021930D01*
X056884Y021680D01*
X056884Y004680D01*
X057134Y004430D01*
X071884Y004430D01*
X072134Y004680D01*
X072134Y005680D01*
X071134Y005680D02*
X072468Y007015D01*
X072468Y008180D01*
X071799Y008180D02*
X070468Y008180D01*
X070634Y008015D01*
X070634Y004930D01*
X069134Y005680D02*
X069134Y008930D01*
X069384Y009180D01*
X064134Y011180D02*
X061634Y011180D01*
X060267Y009814D01*
X058634Y009814D01*
X058134Y010680D02*
X060134Y010680D01*
X061634Y012180D01*
X060134Y012180D01*
X059634Y012680D01*
X059634Y013180D01*
X058760Y014054D01*
X058134Y014054D01*
X058134Y016806D01*
X058134Y017554D02*
X058634Y018054D01*
X058634Y019680D01*
X059634Y019680D02*
X059634Y014180D01*
X060634Y013180D01*
X062134Y013180D01*
X062634Y012680D01*
X061634Y012680D02*
X061634Y012180D01*
X060634Y012680D02*
X059134Y014180D01*
X059134Y021180D01*
X060634Y019680D02*
X060634Y018680D01*
X060134Y018180D01*
X060134Y016680D01*
X060634Y016180D01*
X060634Y015680D01*
X058134Y013306D02*
X058134Y012046D01*
X058634Y011546D01*
X058000Y011546D01*
X057384Y010930D01*
X057384Y008680D01*
X057634Y008430D01*
X061384Y008430D01*
X062508Y009554D01*
X062508Y010180D01*
X063760Y010180D01*
X061760Y010180D02*
X061134Y010180D01*
X059634Y008680D01*
X058134Y008680D01*
X057634Y009180D01*
X057634Y010180D01*
X058134Y010680D01*
X059884Y023430D02*
X059884Y023879D01*
X059884Y024981D02*
X059884Y026089D01*
X058884Y026089D02*
X058884Y024981D01*
X057884Y024981D02*
X057884Y026089D01*
X057884Y027271D02*
X058884Y027271D01*
X059884Y027271D01*
X060474Y027271D01*
X060634Y027430D01*
X070413Y026180D02*
X070634Y026180D01*
X071634Y025180D01*
X071634Y024180D01*
X070634Y040180D02*
X070884Y040430D01*
D35*
X070634Y040680D03*
X071634Y040930D03*
X061634Y044180D03*
X060884Y047430D03*
X060134Y048180D03*
X059634Y048180D03*
X059134Y048180D03*
X058634Y048180D03*
X058134Y048180D03*
X057634Y041180D03*
X057634Y040680D03*
X058884Y040430D03*
X055634Y040680D03*
X055634Y041180D03*
X049384Y039180D03*
X048884Y039180D03*
X048384Y039430D03*
X047884Y039680D03*
X047384Y039930D03*
X049384Y037180D03*
X043384Y040930D03*
X042134Y039680D03*
X042634Y039180D03*
X042634Y038680D03*
X037634Y038430D03*
X036634Y038430D03*
X035634Y038430D03*
X037134Y036430D03*
X030134Y034430D03*
X016134Y043430D03*
X015134Y043430D03*
X010634Y043430D03*
X016884Y049180D03*
X017634Y049180D03*
X012134Y050430D03*
X011134Y050430D03*
X005134Y050430D03*
X004134Y050430D03*
X006384Y055930D03*
X014134Y061680D03*
X016134Y062680D03*
X018634Y061180D03*
X019134Y061180D03*
X019134Y056430D03*
X018634Y056430D03*
X018634Y055430D03*
X019134Y055430D03*
X004134Y068930D03*
X006384Y074430D03*
X006384Y036430D03*
X005134Y030930D03*
X004134Y030930D03*
X011134Y030930D03*
X012134Y030930D03*
X016134Y023930D03*
X049634Y043930D03*
X049634Y044430D03*
X049634Y044930D03*
X049634Y045430D03*
X049634Y045930D03*
X060634Y027430D03*
X061384Y024180D03*
X059134Y021180D03*
X063634Y018680D03*
X073384Y020680D03*
X073884Y020180D03*
X069884Y074430D03*
D36*
X061134Y061180D02*
X061134Y060180D01*
X060884Y059930D01*
X051134Y059930D01*
X051008Y059804D01*
X051008Y049806D01*
X051384Y049430D01*
X051384Y043680D01*
X051634Y043430D01*
X052384Y043430D01*
X054134Y043430D02*
X056134Y043430D01*
X056134Y036930D01*
X055884Y036680D01*
X054634Y036680D01*
X056884Y033430D02*
X056884Y030930D01*
X056384Y030430D01*
X050884Y030430D01*
X050884Y027180D01*
X051134Y026930D01*
X054384Y026930D01*
X054634Y026680D01*
X054634Y013930D01*
X054884Y013680D01*
X056384Y013680D01*
X063634Y009180D02*
X063634Y005930D01*
X063884Y005680D01*
X064665Y005680D01*
X066134Y005930D02*
X066384Y005680D01*
X066634Y005680D01*
X066134Y005930D02*
X066134Y009180D01*
X067634Y010554D02*
X067634Y012680D01*
X068384Y027680D02*
X061134Y027680D01*
X060884Y027930D01*
X057384Y027930D01*
X057134Y027680D01*
X051634Y027680D01*
X051884Y028430D02*
X051634Y028680D01*
X051634Y029649D01*
X051884Y028430D02*
X063634Y028430D01*
X067634Y030554D02*
X067634Y032680D01*
X068634Y029180D02*
X068634Y027930D01*
X068384Y027680D01*
X025884Y032930D02*
X025884Y061930D01*
X025634Y062180D01*
X010634Y062180D01*
X009634Y061180D01*
X009634Y060180D01*
X014634Y060180D02*
X014634Y061180D01*
X015134Y061680D01*
X025134Y061680D01*
X025384Y061430D01*
X025384Y032930D01*
X022884Y029930D02*
X022884Y042680D01*
X022634Y042930D01*
X009884Y042930D01*
X009634Y042680D01*
X009634Y041680D01*
X014634Y041680D02*
X014634Y042180D01*
X014884Y042430D01*
X022134Y042430D01*
X022384Y042180D01*
X022384Y029930D01*
X018634Y022930D02*
X018884Y022680D01*
X018884Y016430D01*
X018634Y016180D01*
X009634Y016180D01*
X009134Y016180D02*
X009134Y016430D01*
X009384Y016680D01*
X018134Y016680D01*
X018384Y016930D01*
X018384Y022180D01*
X018134Y022430D01*
X014884Y022430D01*
X014634Y022180D01*
X014634Y021680D01*
X013634Y021680D02*
X013634Y019554D01*
X009634Y021680D02*
X009634Y022680D01*
X009884Y022930D01*
X018634Y022930D01*
X021884Y037430D02*
X003384Y037430D01*
D37*
X003384Y037430D03*
X021884Y037430D03*
X025384Y032930D03*
X025884Y032930D03*
X022884Y029930D03*
X022384Y029930D03*
X009634Y016180D03*
X009134Y016180D03*
X003384Y009430D03*
D38*
X009634Y027180D03*
X005634Y040680D03*
X009634Y047180D03*
X005634Y059180D03*
D39*
X005884Y020680D03*
X063634Y009180D03*
X066134Y009180D03*
X066634Y029680D03*
D40*
X063634Y035680D02*
X063634Y036180D01*
X063384Y036430D01*
X060634Y036430D01*
X060384Y036680D01*
X060384Y037556D01*
X060260Y037680D01*
X060384Y037804D01*
X060384Y038430D01*
X060634Y038680D01*
X063384Y038680D01*
X063634Y038930D01*
X063634Y039680D01*
X069760Y044180D02*
X069884Y044304D01*
X066508Y017680D02*
X066508Y015806D01*
X066634Y015680D01*
X040634Y040180D02*
X040634Y041180D01*
X040634Y043180D01*
X040384Y043430D01*
X031134Y043430D01*
X030884Y043180D01*
X030884Y042930D01*
X030634Y042680D01*
X030184Y042680D01*
X030134Y042630D01*
X030134Y042180D01*
X030634Y041680D01*
X032134Y041680D01*
X030134Y042630D02*
X029384Y041880D01*
X029384Y040430D01*
X029134Y040180D01*
X028134Y040180D01*
X027884Y039930D01*
X027884Y033430D01*
X028134Y033180D01*
X028634Y033180D01*
X030134Y033180D01*
X012508Y026180D02*
X012508Y024806D01*
X012634Y024680D01*
X013634Y010680D02*
X013634Y009680D01*
X013884Y009430D01*
X019884Y009430D01*
X020134Y009680D01*
X020134Y010680D01*
X013634Y009680D02*
X013384Y009430D01*
X007384Y009430D01*
X007134Y009680D01*
X006884Y009430D01*
X003384Y009430D01*
X007134Y009680D02*
X007134Y010680D01*
D41*
X029384Y042680D02*
X030084Y042680D01*
X030134Y042630D01*
X029384Y042680D02*
X029134Y042930D01*
X029134Y046430D01*
X029384Y046680D01*
X032134Y046680D01*
X034634Y047430D02*
X034634Y048180D01*
X050384Y048180D01*
X050634Y048430D01*
X050634Y048930D01*
X051008Y049806D02*
X049884Y049806D01*
X046760Y049806D01*
X046634Y049680D01*
X046634Y048930D01*
X046510Y048806D01*
X045634Y048806D01*
X044008Y048806D01*
X043634Y049180D01*
X042634Y049180D02*
X042634Y049680D01*
X042384Y049930D01*
X040010Y049930D01*
X039634Y049554D01*
X039634Y048806D02*
X038758Y048806D01*
X038634Y048930D01*
X038634Y050180D01*
X038384Y050430D01*
X034884Y050430D01*
X034634Y050180D01*
X034634Y049180D01*
X034634Y047430D02*
X050634Y047430D01*
X050884Y047180D01*
X050884Y039430D01*
X050884Y036930D02*
X050884Y030430D01*
X041260Y048806D02*
X039634Y048806D01*
X041260Y048806D02*
X041634Y049180D01*
X042634Y049680D02*
X042884Y049930D01*
X045258Y049930D01*
X045634Y049554D01*
D42*
X050134Y046680D02*
X050134Y040180D01*
X050134Y036430D02*
X050134Y035430D01*
X049884Y035180D01*
X048134Y035180D01*
X047634Y034680D01*
X047634Y034180D01*
X047634Y032680D01*
X056634Y046680D02*
X056134Y047180D01*
X054634Y047180D01*
X054634Y048180D02*
X057134Y048180D01*
X057634Y048680D01*
X057634Y050680D01*
X058134Y051180D01*
X060634Y051180D01*
X063134Y051180D01*
X063634Y050430D02*
X058634Y050430D01*
X057634Y052180D02*
X057134Y052680D01*
X054634Y052680D01*
X054634Y051680D02*
X056134Y051680D01*
X056634Y051180D01*
X057634Y052180D02*
X060634Y052180D01*
X063134Y052180D01*
X063134Y053180D02*
X060634Y053180D01*
X058134Y053180D01*
X057634Y053680D01*
X057634Y056680D01*
X057134Y057180D01*
X054634Y057180D01*
X054634Y056180D02*
X056134Y056180D01*
X056634Y055680D01*
X060634Y054180D02*
X063134Y054180D01*
X063634Y054180D01*
X064134Y053680D01*
X064134Y050930D01*
X063634Y050430D01*
X034634Y048180D02*
X027634Y048180D01*
X027384Y047930D01*
X027384Y033680D01*
X027884Y040930D02*
X027884Y047430D01*
X028134Y047680D01*
X034384Y047680D01*
X034634Y047930D01*
X013634Y041680D02*
X013634Y039554D01*
X013634Y058054D02*
X013634Y060180D01*
D43*
X052384Y043430D03*
X054134Y043430D03*
X056134Y043430D03*
X054634Y036680D03*
X056884Y033430D03*
X063634Y028430D03*
X068634Y029180D03*
X056384Y013680D03*
D44*
X050884Y030430D03*
D45*
X050634Y048930D03*
X058634Y050430D03*
D46*
X034634Y049180D02*
X034634Y048180D01*
X034634Y047930D01*
D47*
X032134Y046680D03*
X050884Y039430D03*
X050884Y036930D03*
D48*
X050134Y036430D03*
X050134Y040180D03*
X050134Y046680D03*
X049884Y049806D03*
D49*
X064008Y017680D02*
X064134Y017680D01*
X010134Y046180D02*
X010008Y046180D01*
X004634Y018814D02*
X004634Y018680D01*
D50*
X038634Y062680D03*
D51*
X024134Y036180D03*
X024384Y035180D03*
M02*
