%
M48
M72
T01C0.0197
T02C0.0236
T03C0.0300
T04C0.0315
T05C0.0320
T06C0.0340
T07C0.0354
T08C0.0394
T09C0.0400
T10C0.0433
T11C0.0450
T12C0.0472
T13C0.0512
T14C0.0550
T15C0.0551
T16C0.1260
T17C0.1500
%
T01
X16134Y23930
X12134Y30930
X11134Y30930
X10094Y33680
X8173Y33680
X6384Y36430
X5134Y30930
X4134Y30930
X10634Y43430
X15134Y43430
X16134Y43430
X16884Y49180
X17634Y49180
X12134Y50430
X11134Y50430
X10094Y53180
X8173Y53180
X6384Y55930
X5134Y50430
X4134Y50430
X14134Y61680
X16134Y62680
X18634Y61180
X19134Y61180
X19134Y56430
X18634Y56430
X18634Y55430
X19134Y55430
X4134Y68930
X8173Y71680
X10094Y71680
X6384Y74430
X42134Y39680
X42634Y39180
X42634Y38680
X43384Y40930
X47384Y39930
X47884Y39680
X48384Y39430
X48884Y39180
X49384Y39180
X49384Y37180
X55634Y40680
X55634Y41180
X57634Y41180
X57634Y40680
X58884Y40430
X61634Y44180
X62173Y44680
X64094Y44680
X60884Y47430
X60134Y48180
X59634Y48180
X59134Y48180
X58634Y48180
X58134Y48180
X49634Y45930
X49634Y45430
X49634Y44930
X49634Y44430
X49634Y43930
X42094Y34680
X40173Y34680
X37134Y36430
X37634Y38430
X36634Y38430
X35634Y38430
X30134Y34430
X24384Y35180
X24134Y36180
X59134Y21180
X61384Y24180
X62173Y24680
X64094Y24680
X60634Y27430
X63634Y18680
X73384Y20680
X73884Y20180
X70634Y40680
X71634Y40930
X64094Y71180
X62173Y71180
X69884Y74430
T02
X27884Y40930
X21884Y37430
X25384Y32930
X25884Y32930
X27384Y33680
X22884Y29930
X22384Y29930
X9634Y27180
X5884Y20680
X9134Y16180
X9634Y16180
X3384Y9430
X3384Y37430
X5634Y40680
X9634Y47180
X5634Y59180
X63634Y9180
X66134Y9180
X66634Y29680
T03
X69649Y49180
X69649Y51180
X71618Y51180
X71618Y49180
X71618Y53180
X69649Y53180
X69649Y55180
X69649Y57180
X71618Y57180
X71618Y55180
T04
X56134Y43430
X54134Y43430
X52384Y43430
X54634Y36680
X56884Y33430
X63634Y28430
X68634Y29180
X56384Y13680
T05
X58134Y61180
X59134Y61180
X60134Y61180
X61134Y61180
X61134Y64180
X60134Y64180
X59134Y64180
X58134Y64180
T06
X58634Y65680
X59634Y65680
X60634Y65680
X61634Y65680
X62634Y65680
X63634Y65680
X64634Y65680
X65634Y65680
X66634Y65680
X67634Y65680
X68634Y65680
X69634Y65680
X70634Y65680
X71634Y65680
X71634Y68680
X70634Y68680
X69634Y68680
X68634Y68680
X67634Y68680
X66634Y68680
X65634Y68680
X64634Y68680
X63634Y68680
X62634Y68680
X61634Y68680
X60634Y68680
X59634Y68680
X58634Y68680
X35134Y44680
X34134Y44680
X33134Y44680
X32134Y44680
X32134Y41680
X33134Y41680
X34134Y41680
X35134Y41680
X35634Y40180
X36634Y40180
X37634Y40180
X38634Y40180
X39634Y40180
X40634Y40180
X41634Y40180
X42634Y40180
X43634Y40180
X44634Y40180
X45634Y40180
X45634Y37180
X44634Y37180
X43634Y37180
X42634Y37180
X41634Y37180
X40634Y37180
X39634Y37180
X38634Y37180
X37634Y37180
X36634Y37180
X35634Y37180
X34634Y37180
X33634Y37180
X32634Y37180
X32634Y40180
X33634Y40180
X34634Y40180
X17634Y41680
X16634Y41680
X15634Y41680
X14634Y41680
X13634Y41680
X12634Y41680
X11634Y41680
X10634Y41680
X9634Y41680
X8634Y41680
X7634Y41680
X6634Y41680
X6634Y44680
X7634Y44680
X8634Y44680
X9634Y44680
X10634Y44680
X11634Y44680
X12634Y44680
X13634Y44680
X14634Y44680
X15634Y44680
X16634Y44680
X17634Y44680
X17634Y48180
X16634Y48180
X15634Y48180
X14634Y48180
X13634Y48180
X12634Y48180
X11634Y48180
X10634Y48180
X9634Y48180
X8634Y48180
X7634Y48180
X6634Y48180
X5634Y48180
X4634Y48180
X4634Y51180
X5634Y51180
X6634Y51180
X7634Y51180
X8634Y51180
X9634Y51180
X10634Y51180
X11634Y51180
X12634Y51180
X13634Y51180
X14634Y51180
X15634Y51180
X16634Y51180
X17634Y51180
X17634Y60180
X16634Y60180
X15634Y60180
X14634Y60180
X13634Y60180
X12634Y60180
X11634Y60180
X10634Y60180
X9634Y60180
X8634Y60180
X7634Y60180
X6634Y60180
X6634Y63180
X7634Y63180
X8634Y63180
X9634Y63180
X10634Y63180
X11634Y63180
X12634Y63180
X13634Y63180
X14634Y63180
X15634Y63180
X16634Y63180
X17634Y63180
X17634Y66680
X16634Y66680
X15634Y66680
X14634Y66680
X13634Y66680
X12634Y66680
X11634Y66680
X10634Y66680
X9634Y66680
X8634Y66680
X7634Y66680
X6634Y66680
X5634Y66680
X4634Y66680
X4634Y69680
X5634Y69680
X6634Y69680
X7634Y69680
X8634Y69680
X9634Y69680
X10634Y69680
X11634Y69680
X12634Y69680
X13634Y69680
X14634Y69680
X15634Y69680
X16634Y69680
X17634Y69680
X17634Y31680
X16634Y31680
X15634Y31680
X14634Y31680
X13634Y31680
X12634Y31680
X11634Y31680
X10634Y31680
X9634Y31680
X8634Y31680
X7634Y31680
X6634Y31680
X5634Y31680
X4634Y31680
X4634Y28680
X5634Y28680
X6634Y28680
X7634Y28680
X8634Y28680
X9634Y28680
X10634Y28680
X11634Y28680
X12634Y28680
X13634Y28680
X14634Y28680
X15634Y28680
X16634Y28680
X17634Y28680
X17634Y24680
X16634Y24680
X15634Y24680
X14634Y24680
X13634Y24680
X12634Y24680
X11634Y24680
X10634Y24680
X9634Y24680
X8634Y24680
X7634Y24680
X6634Y24680
X6634Y21680
X7634Y21680
X8634Y21680
X9634Y21680
X10634Y21680
X11634Y21680
X12634Y21680
X13634Y21680
X14634Y21680
X15634Y21680
X16634Y21680
X17634Y21680
X58634Y22680
X59634Y22680
X60634Y22680
X61634Y22680
X62634Y22680
X63634Y22680
X64634Y22680
X65634Y22680
X66634Y22680
X67634Y22680
X68634Y22680
X69634Y22680
X70634Y22680
X71634Y22680
X71634Y19680
X70634Y19680
X69634Y19680
X68634Y19680
X67634Y19680
X66634Y19680
X65634Y19680
X64634Y19680
X63634Y19680
X62634Y19680
X61634Y19680
X60634Y19680
X59634Y19680
X58634Y19680
X60634Y15680
X61634Y15680
X62634Y15680
X63634Y15680
X64634Y15680
X65634Y15680
X66634Y15680
X67634Y15680
X68634Y15680
X69634Y15680
X70634Y15680
X71634Y15680
X71634Y12680
X70634Y12680
X69634Y12680
X68634Y12680
X67634Y12680
X66634Y12680
X65634Y12680
X64634Y12680
X63634Y12680
X62634Y12680
X61634Y12680
X60634Y12680
X60634Y32680
X61634Y32680
X62634Y32680
X63634Y32680
X64634Y32680
X65634Y32680
X66634Y32680
X67634Y32680
X68634Y32680
X69634Y32680
X70634Y32680
X71634Y32680
X71634Y35680
X70634Y35680
X69634Y35680
X68634Y35680
X67634Y35680
X66634Y35680
X65634Y35680
X64634Y35680
X63634Y35680
X62634Y35680
X61634Y35680
X60634Y35680
X60634Y39680
X61634Y39680
X62634Y39680
X63634Y39680
X64634Y39680
X65634Y39680
X66634Y39680
X67634Y39680
X68634Y39680
X69634Y39680
X70634Y39680
X71634Y39680
X71634Y42680
X70634Y42680
X69634Y42680
X68634Y42680
X67634Y42680
X66634Y42680
X65634Y42680
X64634Y42680
X63634Y42680
X62634Y42680
X61634Y42680
X60634Y42680
X59634Y42680
X58634Y42680
X58634Y39680
X59634Y39680
T07
X53634Y61180
X53634Y64180
X37134Y45680
X34134Y45680
X33134Y45680
X30134Y45680
X30134Y36180
X28634Y36180
X28634Y33180
X30134Y33180
T08
X41884Y42180
X42884Y42180
X43884Y42180
X44884Y42180
X45384Y43180
X44384Y43180
X43384Y43180
X42384Y43180
X50634Y48930
X58634Y50430
T09
X60634Y51180
X60634Y52180
X60634Y53180
X60634Y54180
X63134Y54180
X63134Y53180
X63134Y52180
X63134Y51180
X67134Y51180
X68134Y51180
X68134Y49180
X67134Y49180
X67134Y53180
X68134Y53180
X68134Y55180
X67134Y55180
X67134Y57180
X68134Y57180
X56634Y55680
X56634Y54180
X54634Y53680
X54634Y52680
X54634Y51680
X56634Y51180
X56634Y49680
X54634Y49180
X54634Y48180
X54634Y47180
X56634Y46680
X54634Y56180
X54634Y57180
X54634Y58180
X56634Y58680
X51384Y61180
X51384Y62180
X51384Y63180
X51384Y64180
X30134Y43730
X30134Y42630
X46634Y34180
X47634Y34180
X48634Y34180
X48634Y32680
X47634Y32680
X46634Y32680
T10
X50884Y30430
T11
X51634Y32180
X51634Y33180
X51634Y34180
X51634Y35180
X51634Y36180
X34634Y34680
X33634Y34680
X32634Y34680
X21134Y10680
X20134Y10680
X19134Y10680
X18134Y10680
X17134Y10680
X14634Y10680
X13634Y10680
X12634Y10680
X11634Y10680
X10634Y10680
X8134Y10680
X7134Y10680
X6134Y10680
X5134Y10680
X4134Y10680
X69134Y5680
X70134Y5680
X71134Y5680
X72134Y5680
X73134Y5680
T12
X50134Y36430
X50134Y40180
X50134Y46680
X49884Y49806
T13
X50884Y39430
X50884Y36930
X51634Y29649
X51634Y27680
X32134Y46680
X34634Y49180
X36602Y49180
X20134Y6680
X18165Y6680
X13634Y6680
X11665Y6680
X7134Y6680
X5165Y6680
X64665Y5680
X66634Y5680
T14
X43634Y49180
X42634Y49180
X41634Y49180
T15
X39413Y42430
X36854Y42430
X30134Y39960
X30134Y37400
X16413Y35180
X13854Y35180
X14354Y54680
X16913Y54680
X16913Y73180
X14354Y73180
X67854Y26180
X70413Y26180
X71413Y46180
X68854Y46180
X68854Y73180
X71413Y73180
T16
X45884Y45680
X41384Y45680
X38634Y62680
T17
X5134Y2680
X72134Y2680
X54634Y72680
X22634Y72680
M30
